<svg width="24" height="24" viewBox="0 0 24 24" fill="none" xmlns="http://www.w3.org/2000/svg">
<path d="M21.6054 12.6631C21.6054 12.3838 21.4979 12.126 21.2831 11.9219L14.5692 5.21875C14.3329 4.99316 14.0966 4.89648 13.8387 4.89648C13.2909 4.89648 12.872 5.29395 12.872 5.8418C12.872 6.11035 12.9686 6.35742 13.1512 6.5293L15.4286 8.84961L18.6835 11.8252L16.2665 11.6748H3.5907C3.02137 11.6748 2.61316 12.083 2.61316 12.6631C2.61316 13.2324 3.02137 13.6406 3.5907 13.6406H16.2665L18.6942 13.4902L15.4286 16.4658L13.1512 18.7861C12.9794 18.958 12.872 19.2051 12.872 19.4736C12.872 20.0215 13.2909 20.4189 13.8387 20.4189C14.0966 20.4189 14.3221 20.3223 14.5477 20.1182L21.2831 13.3936C21.4979 13.1895 21.6054 12.9316 21.6054 12.6631Z" fill="#021730"/>
</svg>
