<svg width="25" height="24" viewBox="0 0 25 24" fill="none" xmlns="http://www.w3.org/2000/svg">
<path d="M10.955 18.7344C11.6972 18.7344 12.33 18.1719 12.33 17.1641V12.6484C12.4316 13.0781 12.7597 13.4219 13.2519 13.7109L21.2909 18.4297C21.6425 18.6328 21.9628 18.7344 22.33 18.7344C23.0722 18.7344 23.705 18.1719 23.705 17.1641V7.49219C23.705 6.47656 23.08 5.92188 22.3378 5.92188C21.9706 5.92188 21.6503 6.02344 21.2909 6.22656L13.2519 10.9453C12.7519 11.2422 12.4316 11.5703 12.33 11.9922V7.49219C12.33 6.47656 11.705 5.92188 10.9628 5.92188C10.5956 5.92188 10.2753 6.02344 9.91594 6.22656L1.87687 10.9453C1.25187 11.3125 0.915937 11.7344 0.915937 12.3203C0.915937 12.9062 1.2675 13.3516 1.87687 13.7109L9.91594 18.4297C10.2675 18.6328 10.5878 18.7344 10.955 18.7344Z" fill="#021730"/>
</svg>
