<svg width="25" height="24" viewBox="0 0 25 24" fill="none" xmlns="http://www.w3.org/2000/svg">
<path d="M21.5938 3.27441H7.68262C5.53418 3.27441 4.43848 4.34863 4.43848 6.47559V12.2441C4.72852 12.2119 5.01855 12.1797 5.31934 12.1797C5.60938 12.1797 5.91016 12.2119 6.2002 12.2441V9.41895C6.2002 8.49512 6.69434 8.02246 7.5752 8.02246H21.6904C22.5713 8.02246 23.0762 8.49512 23.0762 9.41895V18.915C23.0762 19.8496 22.5713 20.3115 21.6904 20.3115H11.7002C11.5713 20.9346 11.335 21.5361 11.0127 22.084H21.5938C23.7529 22.084 24.8379 20.999 24.8379 18.8721V6.47559C24.8379 4.35938 23.7529 3.27441 21.5938 3.27441ZM13.666 11.6318H14.2568C14.6221 11.6318 14.7402 11.5244 14.7402 11.1592V10.5684C14.7402 10.2139 14.6221 10.0957 14.2568 10.0957H13.666C13.3008 10.0957 13.1826 10.2139 13.1826 10.5684V11.1592C13.1826 11.5244 13.3008 11.6318 13.666 11.6318ZM16.5127 11.6318H17.1143C17.4795 11.6318 17.5977 11.5244 17.5977 11.1592V10.5684C17.5977 10.2139 17.4795 10.0957 17.1143 10.0957H16.5127C16.1582 10.0957 16.04 10.2139 16.04 10.5684V11.1592C16.04 11.5244 16.1582 11.6318 16.5127 11.6318ZM19.3701 11.6318H19.9717C20.3369 11.6318 20.4551 11.5244 20.4551 11.1592V10.5684C20.4551 10.2139 20.3369 10.0957 19.9717 10.0957H19.3701C19.0156 10.0957 18.8975 10.2139 18.8975 10.5684V11.1592C18.8975 11.5244 19.0156 11.6318 19.3701 11.6318ZM10.8086 14.9297H11.3994C11.7646 14.9297 11.8828 14.8223 11.8828 14.4678V13.8662C11.8828 13.5117 11.7646 13.4043 11.3994 13.4043H10.8086C10.4434 13.4043 10.3252 13.5117 10.3252 13.8662V14.4678C10.3252 14.8223 10.4434 14.9297 10.8086 14.9297ZM13.666 14.9297H14.2568C14.6221 14.9297 14.7402 14.8223 14.7402 14.4678V13.8662C14.7402 13.5117 14.6221 13.4043 14.2568 13.4043H13.666C13.3008 13.4043 13.1826 13.5117 13.1826 13.8662V14.4678C13.1826 14.8223 13.3008 14.9297 13.666 14.9297ZM16.5127 14.9297H17.1143C17.4795 14.9297 17.5977 14.8223 17.5977 14.4678V13.8662C17.5977 13.5117 17.4795 13.4043 17.1143 13.4043H16.5127C16.1582 13.4043 16.04 13.5117 16.04 13.8662V14.4678C16.04 14.8223 16.1582 14.9297 16.5127 14.9297ZM19.3701 14.9297H19.9717C20.3369 14.9297 20.4551 14.8223 20.4551 14.4678V13.8662C20.4551 13.5117 20.3369 13.4043 19.9717 13.4043H19.3701C19.0156 13.4043 18.8975 13.5117 18.8975 13.8662V14.4678C18.8975 14.8223 19.0156 14.9297 19.3701 14.9297ZM5.31934 23.9746C8.13379 23.9746 10.5078 21.6221 10.5078 18.7861C10.5078 15.9395 8.15527 13.5977 5.31934 13.5977C2.47266 13.5977 0.130859 15.9395 0.130859 18.7861C0.130859 21.6328 2.47266 23.9746 5.31934 23.9746ZM5.31934 22.1592C4.9541 22.1592 4.63184 21.9014 4.63184 21.5039V19.4307H2.70898C2.35449 19.4307 2.05371 19.1299 2.05371 18.7861C2.05371 18.4316 2.35449 18.1309 2.70898 18.1309H4.63184V16.0576C4.63184 15.6602 4.9541 15.4131 5.31934 15.4131C5.68457 15.4131 6.00684 15.6602 6.00684 16.0576V18.1309H7.92969C8.28418 18.1309 8.57422 18.4316 8.57422 18.7861C8.57422 19.1299 8.28418 19.4307 7.92969 19.4307H6.00684V21.5039C6.00684 21.9014 5.68457 22.1592 5.31934 22.1592ZM13.666 18.2383H14.2568C14.6221 18.2383 14.7402 18.1309 14.7402 17.7764V17.1748C14.7402 16.8203 14.6221 16.7129 14.2568 16.7129H13.666C13.3008 16.7129 13.1826 16.8203 13.1826 17.1748V17.7764C13.1826 18.1309 13.3008 18.2383 13.666 18.2383ZM16.5127 18.2383H17.1143C17.4795 18.2383 17.5977 18.1309 17.5977 17.7764V17.1748C17.5977 16.8203 17.4795 16.7129 17.1143 16.7129H16.5127C16.1582 16.7129 16.04 16.8203 16.04 17.1748V17.7764C16.04 18.1309 16.1582 18.2383 16.5127 18.2383Z" fill="#021730"/>
</svg>
