<svg width="24" height="24" viewBox="0 0 24 24" fill="none" xmlns="http://www.w3.org/2000/svg">
<path d="M15.4179 21.2461C15.6112 21.4395 15.8475 21.5469 16.1376 21.5469C16.7177 21.5469 17.1581 21.1064 17.1581 20.5264C17.1581 20.2471 17.0399 19.9893 16.8573 19.7959L9.55262 12.6631L16.8573 5.51953C17.0399 5.32617 17.1581 5.06836 17.1581 4.78906C17.1581 4.21973 16.7177 3.76855 16.1376 3.76855C15.8475 3.76855 15.6112 3.87598 15.4179 4.06934L7.41492 11.8896C7.18934 12.0938 7.07117 12.373 7.07117 12.6631C7.07117 12.9531 7.18934 13.2109 7.41492 13.4258L15.4179 21.2461Z" fill="#021730"/>
</svg>
