<svg width="24" height="24" viewBox="0 0 24 24" fill="none" xmlns="http://www.w3.org/2000/svg">
<path d="M8.09168 21.5469C8.38172 21.5469 8.61805 21.4395 8.81141 21.2568L16.8143 13.4258C17.0399 13.2109 17.1581 12.9531 17.1581 12.6631C17.1581 12.373 17.0399 12.0938 16.8251 11.8896L8.82215 4.06934C8.62879 3.87598 8.38172 3.76855 8.09168 3.76855C7.52234 3.76855 7.07117 4.21973 7.07117 4.78906C7.07117 5.06836 7.18934 5.32617 7.37195 5.51953L14.6766 12.6631L7.37195 19.7959C7.18934 19.9893 7.07117 20.2471 7.07117 20.5264C7.07117 21.1064 7.52234 21.5469 8.09168 21.5469Z" fill="#021730"/>
</svg>
