<svg width="28" height="24" viewBox="0 0 28 24" fill="none" xmlns="http://www.w3.org/2000/svg">
<path d="M3.35633 19.3125H24.8729C26.6454 19.3125 27.5585 18.4531 27.5585 16.6377V5.04688C27.5585 3.23145 26.6454 2.36133 24.8729 2.36133H3.35633C1.57312 2.36133 0.670781 3.23145 0.670781 5.04688V16.6377C0.670781 18.4531 1.57312 19.3125 3.35633 19.3125ZM3.41004 17.5615C2.72254 17.5615 2.42176 17.2822 2.42176 16.5732V5.10059C2.42176 4.3916 2.72254 4.1123 3.41004 4.1123H24.8085C25.496 4.1123 25.8075 4.3916 25.8075 5.10059V16.5732C25.8075 17.2822 25.496 17.5615 24.8085 17.5615H3.41004ZM21.4999 22.127C21.4999 21.5898 21.0702 21.1602 20.5331 21.1602H7.66395C7.13758 21.1602 6.70789 21.5898 6.70789 22.127C6.70789 22.6641 7.13758 23.0938 7.66395 23.0938H20.5331C21.0702 23.0938 21.4999 22.6641 21.4999 22.127Z" fill="#021730"/>
</svg>
