<svg width="25" height="24" viewBox="0 0 25 24" fill="none" xmlns="http://www.w3.org/2000/svg">
<path d="M3.08 18.7344C3.43937 18.7344 3.75969 18.6328 4.11906 18.4297L12.1581 13.7109C12.6503 13.4219 12.9706 13.0781 13.08 12.6484V17.1641C13.08 18.1719 13.7128 18.7344 14.455 18.7344C14.8144 18.7344 15.1347 18.6328 15.4941 18.4297L23.5331 13.7109C24.1425 13.3516 24.4941 12.9062 24.4941 12.3203C24.4941 11.7344 24.1581 11.3125 23.5331 10.9453L15.4941 6.22656C15.1347 6.02344 14.8144 5.92188 14.4472 5.92188C13.705 5.92188 13.08 6.47656 13.08 7.49219V11.9922C12.9784 11.5703 12.6581 11.2422 12.1581 10.9453L4.11906 6.22656C3.75969 6.02344 3.43937 5.92188 3.07219 5.92188C2.33 5.92188 1.705 6.47656 1.705 7.49219V17.1641C1.705 18.1719 2.33781 18.7344 3.08 18.7344Z" fill="#021730"/>
</svg>
