<svg width="24" height="25" viewBox="0 0 24 25" fill="none" xmlns="http://www.w3.org/2000/svg">
<path d="M12.12 22.6533C12.3778 22.6533 12.6249 22.6318 12.8934 22.6104L13.4735 23.7168C13.5809 23.9531 13.828 24.082 14.118 24.0391C14.3866 23.9961 14.5692 23.792 14.6122 23.5127L14.7841 22.2881C15.2782 22.1592 15.7616 21.9658 16.245 21.7617L17.1473 22.5781C17.3407 22.7715 17.6093 22.8037 17.8778 22.6641C18.1034 22.5244 18.2001 22.2773 18.1464 21.998L17.8993 20.7949C18.3075 20.5049 18.7157 20.1719 19.0917 19.8066L20.2089 20.2793C20.4774 20.3867 20.7245 20.333 20.9286 20.0859C21.1112 19.8926 21.1327 19.6133 20.9823 19.377L20.327 18.335C20.6171 17.916 20.8641 17.4648 21.0897 16.9922L22.3251 17.0459C22.6044 17.0674 22.8407 16.9062 22.9266 16.6484C23.0126 16.3799 22.9374 16.1221 22.7118 15.9502L21.745 15.1875C21.8739 14.7041 21.9813 14.1885 22.0243 13.6621L23.1845 13.2861C23.453 13.1895 23.6249 12.9854 23.6249 12.7061C23.6249 12.4268 23.453 12.2227 23.1845 12.126L22.0243 11.75C21.9813 11.2236 21.8739 10.7188 21.745 10.2246L22.7118 9.46191C22.9266 9.29004 23.0126 9.04297 22.9266 8.77441C22.8407 8.5166 22.6044 8.35547 22.3251 8.37695L21.0897 8.41992C20.8641 7.94727 20.6171 7.50684 20.327 7.07715L20.9823 6.03516C21.1327 5.80957 21.1112 5.53027 20.9286 5.33691C20.7245 5.10059 20.4774 5.03613 20.2089 5.14355L19.0917 5.60547C18.7157 5.25098 18.3075 4.90723 17.8993 4.61719L18.1464 3.4248C18.2001 3.13477 18.1034 2.8877 17.8778 2.75879C17.6093 2.61914 17.3514 2.64062 17.1473 2.84473L16.245 3.65039C15.7616 3.43555 15.2782 3.26367 14.7841 3.12402L14.6122 1.91016C14.5692 1.63086 14.3866 1.4375 14.118 1.38379C13.828 1.35156 13.5809 1.46973 13.4735 1.69531L12.8934 2.80176C12.6249 2.78027 12.3778 2.76953 12.12 2.76953C11.8514 2.76953 11.6151 2.78027 11.3358 2.80176L10.7665 1.69531C10.6483 1.46973 10.4012 1.35156 10.1112 1.38379C9.84266 1.4375 9.66004 1.63086 9.61707 1.91016L9.4452 3.12402C8.95105 3.26367 8.46766 3.43555 7.995 3.65039L7.09266 2.84473C6.87781 2.64062 6.62 2.61914 6.36219 2.75879C6.12586 2.8877 6.02918 3.13477 6.08289 3.4248L6.3407 4.61719C5.92176 4.90723 5.51355 5.25098 5.14832 5.60547L4.02039 5.14355C3.75184 5.03613 3.50477 5.10059 3.30066 5.33691C3.12879 5.53027 3.1073 5.80957 3.24695 6.02441L3.90223 7.07715C3.61219 7.50684 3.37586 7.94727 3.13953 8.41992L1.90418 8.37695C1.63562 8.35547 1.3993 8.5166 1.30262 8.77441C1.21668 9.04297 1.29187 9.29004 1.51746 9.46191L2.48426 10.2246C2.35535 10.7188 2.24793 11.2236 2.2157 11.75L1.0448 12.126C0.77625 12.2119 0.615117 12.416 0.615117 12.7061C0.615117 12.9961 0.77625 13.2002 1.0448 13.2861L2.2157 13.6621C2.24793 14.1885 2.35535 14.7041 2.48426 15.1875L1.51746 15.9502C1.30262 16.1221 1.22742 16.3799 1.30262 16.6484C1.3993 16.9062 1.63562 17.0674 1.90418 17.0459L3.13953 16.9922C3.36512 17.4648 3.61219 17.916 3.90223 18.335L3.24695 19.377C3.09656 19.6133 3.11805 19.8926 3.30066 20.0859C3.50477 20.333 3.75184 20.3867 4.02039 20.2793L5.14832 19.8066C5.51355 20.1719 5.92176 20.5049 6.3407 20.7949L6.08289 21.998C6.02918 22.2773 6.12586 22.5244 6.36219 22.6641C6.62 22.8037 6.88855 22.7715 7.09266 22.5781L7.98426 21.7617C8.46766 21.9658 8.95105 22.1592 9.4452 22.2881L9.61707 23.5127C9.66004 23.792 9.84266 23.9961 10.122 24.0391C10.4012 24.082 10.6483 23.9531 10.7665 23.7168L11.3358 22.6104C11.6044 22.6318 11.8514 22.6533 12.12 22.6533ZM14.7089 12.0078C14.2255 10.7188 13.2587 10.0098 12.0878 10.0098C11.9052 10.0098 11.7118 10.0312 11.3895 10.1064L8.53211 5.21875C9.60633 4.69238 10.8202 4.40234 12.12 4.40234C16.5028 4.40234 19.9403 7.72168 20.2841 12.0078H14.7089ZM3.92371 12.7168C3.92371 9.92383 5.23426 7.46387 7.28602 5.95996L10.1649 10.8799C9.62781 11.46 9.37 12.083 9.37 12.749C9.37 13.3936 9.60633 13.9844 10.1649 14.5859L7.22156 19.4092C5.20203 17.9053 3.92371 15.4775 3.92371 12.7168ZM10.8632 12.7383C10.8632 12.0508 11.454 11.5137 12.0985 11.5137C12.786 11.5137 13.3554 12.0508 13.3554 12.7383C13.3554 13.415 12.786 13.9736 12.0985 13.9736C11.454 13.9736 10.8632 13.415 10.8632 12.7383ZM12.12 21.0205C10.788 21.0205 9.55262 20.7197 8.45691 20.1719L11.3895 15.3809C11.7011 15.4561 11.9052 15.4775 12.0878 15.4775C13.2694 15.4775 14.2362 14.7471 14.7089 13.4365H20.2841C19.9403 17.7012 16.5028 21.0205 12.12 21.0205Z" fill="#021730"/>
</svg>
