<svg width="24" height="24" viewBox="0 0 24 24" fill="none" xmlns="http://www.w3.org/2000/svg">
<path d="M9.37 3.75H10.745V5.125H9.37V3.75ZM12.12 3.75H13.495V5.125H12.12V3.75ZM16.245 6.5C16.4312 6.5 16.6067 6.53581 16.7714 6.60742C16.9432 6.67904 17.0901 6.77572 17.2118 6.89746C17.3407 7.01921 17.441 7.16243 17.5126 7.32715C17.5842 7.49186 17.62 7.66732 17.62 7.85352V17.5215C17.62 17.7077 17.5842 17.8831 17.5126 18.0479C17.441 18.2126 17.3407 18.3558 17.2118 18.4775C17.0901 18.5993 16.9432 18.696 16.7714 18.7676C16.6067 18.8392 16.4312 18.875 16.245 18.875H12.12V23H10.745V18.875H6.62C6.4338 18.875 6.25477 18.8392 6.08289 18.7676C5.91818 18.696 5.77137 18.5993 5.64246 18.4775C5.52072 18.3558 5.42404 18.2126 5.35242 18.0479C5.28081 17.8831 5.245 17.7077 5.245 17.5215V7.85352C5.245 7.66732 5.28081 7.49186 5.35242 7.32715C5.42404 7.16243 5.52072 7.01921 5.64246 6.89746C5.77137 6.77572 5.91818 6.67904 6.08289 6.60742C6.25477 6.53581 6.4338 6.5 6.62 6.5V1H16.245V6.5ZM7.995 6.5H14.87V2.375H7.995V6.5ZM16.245 7.875H6.62V17.5H16.245V7.875Z" fill="#021730"/>
</svg>
