<svg width="24" height="24" viewBox="0 0 24 24" fill="none" xmlns="http://www.w3.org/2000/svg">
<path d="M18.7578 8.70703C20.2324 8.70703 21.4434 7.47656 21.4434 6.00195C21.4434 4.51758 20.2324 3.30664 18.7578 3.31641C17.2832 3.32617 16.0723 4.51758 16.0723 6.00195C16.0723 7.47656 17.2832 8.70703 18.7578 8.70703ZM11.9902 8.70703C13.4746 8.70703 14.6953 7.47656 14.6953 6.00195C14.6953 4.51758 13.4746 3.30664 11.9902 3.31641C10.5156 3.32617 9.29492 4.51758 9.29492 6.00195C9.29492 7.47656 10.5156 8.70703 11.9902 8.70703ZM5.23242 8.69727C6.70703 8.69727 7.91797 7.47656 7.91797 6.01172C7.91797 4.53711 6.70703 3.31641 5.23242 3.31641C3.74805 3.31641 2.53711 4.53711 2.53711 6.01172C2.53711 7.47656 3.74805 8.69727 5.23242 8.69727ZM5.23242 15.0449C6.70703 15.0449 7.91797 13.8145 7.91797 12.3398C7.91797 10.8652 6.70703 9.64453 5.23242 9.6543C3.74805 9.66406 2.53711 10.8652 2.53711 12.3398C2.53711 13.8145 3.74805 15.0449 5.23242 15.0449ZM18.7578 15.0449C20.2324 15.0449 21.4434 13.8145 21.4434 12.3398C21.4434 10.8652 20.2324 9.64453 18.7578 9.6543C17.2832 9.66406 16.0723 10.8652 16.0723 12.3398C16.0723 13.8145 17.2832 15.0449 18.7578 15.0449ZM11.9902 15.0449C13.4746 15.0449 14.6953 13.8145 14.6953 12.3398C14.6953 10.8652 13.4746 9.64453 11.9902 9.6543C10.5156 9.66406 9.29492 10.8652 9.29492 12.3398C9.29492 13.8145 10.5156 15.0449 11.9902 15.0449ZM5.23242 21.3828C6.70703 21.3828 7.91797 20.1523 7.91797 18.6777C7.91797 17.2031 6.70703 15.9922 5.23242 15.9922C3.74805 15.9922 2.53711 17.2031 2.53711 18.6777C2.53711 20.1523 3.74805 21.3828 5.23242 21.3828ZM11.9902 21.3828C13.4746 21.3828 14.6953 20.1523 14.6953 18.6777C14.6953 17.2031 13.4746 15.9922 11.9902 15.9922C10.5156 15.9922 9.29492 17.2031 9.29492 18.6777C9.29492 20.1523 10.5156 21.3828 11.9902 21.3828ZM18.7578 21.3828C20.2324 21.3828 21.4434 20.1523 21.4434 18.6777C21.4434 17.2031 20.2324 15.9922 18.7578 15.9922C17.2832 15.9922 16.0723 17.2031 16.0723 18.6777C16.0723 20.1523 17.2832 21.3828 18.7578 21.3828Z" fill="#021730"/>
</svg>
