<svg width="24" height="24" viewBox="0 0 24 24" fill="none" xmlns="http://www.w3.org/2000/svg">
<path d="M8.63086 17.877H15.3594C15.6914 17.877 15.916 17.6523 15.916 17.3301V15.875C15.916 13.6387 19.168 12.2129 19.168 8.18945C19.168 3.94141 16.2969 1.09961 12 1.09961C7.70312 1.09961 4.82227 3.94141 4.82227 8.18945C4.82227 12.2129 8.08398 13.6387 8.08398 15.875V17.3301C8.08398 17.6523 8.29883 17.877 8.63086 17.877ZM9.53906 15.875C9.53906 13.1309 6.29688 11.6953 6.29688 8.18945C6.29688 4.82031 8.58203 2.57422 12 2.57422C15.418 2.57422 17.6934 4.82031 17.6934 8.18945C17.6934 11.6953 14.4609 13.1309 14.4609 15.875V16.4121H9.53906V15.875ZM8.94336 20.3867H15.0469C15.5254 20.3867 15.916 19.9961 15.916 19.5078C15.916 19.0195 15.5254 18.6289 15.0469 18.6289H8.94336C8.46484 18.6289 8.07422 19.0195 8.07422 19.5078C8.07422 19.9961 8.46484 20.3867 8.94336 20.3867ZM12 22.6523C13.2988 22.6523 14.2168 22.0469 14.3145 21.1387H9.68555C9.76367 22.0469 10.6816 22.6523 12 22.6523Z" fill="#021730"/>
</svg>
