<svg width="24" height="24" viewBox="0 0 24 24" fill="none" xmlns="http://www.w3.org/2000/svg">
<path d="M8.19719 18.9688H10.08C10.8691 18.9688 11.2675 18.5625 11.2675 17.7812V6.94531C11.2675 6.14844 10.8691 5.77344 10.08 5.75781H8.19719C7.40812 5.75781 7.00969 6.15625 7.00969 6.94531V17.7812C7.00187 18.5625 7.40031 18.9688 8.19719 18.9688ZM14.33 18.9688H16.2128C16.9941 18.9688 17.4003 18.5625 17.4003 17.7812V6.94531C17.4003 6.14844 16.9941 5.75781 16.2128 5.75781H14.33C13.5409 5.75781 13.1425 6.15625 13.1425 6.94531V17.7812C13.1425 18.5625 13.5331 18.9688 14.33 18.9688Z" fill="#021730"/>
</svg>
