<svg width="24" height="24" viewBox="0 0 24 24" fill="none" xmlns="http://www.w3.org/2000/svg">
<path d="M11.9893 8.39844C7.83203 8.39844 3.8252 9.31152 1.7627 11.3633C0.817383 12.3086 0.355469 13.4365 0.376953 14.79C0.398438 15.5205 0.591797 16.3154 1.0752 16.8096C1.4082 17.1318 1.87012 17.3145 2.4502 17.2178L6.17773 16.5732C6.65039 16.4873 7.01562 16.3369 7.27344 16.0791C7.58496 15.7783 7.72461 15.3057 7.73535 14.6396L7.74609 13.6084C7.74609 13.458 7.81055 13.3291 7.90723 13.2217C8.00391 13.125 8.13281 13.0713 8.25098 13.0391C8.87402 12.8564 10.249 12.6523 12 12.6523C13.7295 12.6523 15.1045 12.8135 15.7383 13.0391C15.8457 13.082 15.9639 13.1357 16.0498 13.2217C16.1465 13.3076 16.1895 13.415 16.2002 13.5762L16.2432 14.6396C16.2646 15.3057 16.4043 15.7676 16.7158 16.0791C16.9736 16.3477 17.3389 16.4873 17.8115 16.5732L21.3994 17.1855C22.0225 17.3037 22.5273 17.0996 22.9141 16.7236C23.3545 16.2725 23.6016 15.5742 23.6123 14.7363C23.6338 13.3828 23.1074 12.2656 22.2051 11.3633C20.1533 9.31152 16.168 8.3877 11.9893 8.39844Z" fill="#021730"/>
</svg>
