<svg width="24" height="24" viewBox="0 0 24 24" fill="none" xmlns="http://www.w3.org/2000/svg">
<path d="M19.038 17.3682C19.3817 17.7656 19.9725 17.7764 20.3915 17.3145C22.078 15.4883 23.0233 13.0391 23.0233 10.3857C23.0233 7.74316 22.0673 5.27246 20.3915 3.45703C19.9725 2.99512 19.3817 3.00586 19.038 3.40332C18.705 3.79004 18.8124 4.27344 19.1884 4.70312C20.5419 6.20703 21.2938 8.19434 21.2938 10.3857C21.2938 12.5771 20.5419 14.5645 19.1884 16.0684C18.8124 16.498 18.705 16.9814 19.038 17.3682ZM5.20203 17.3682C5.53504 16.9814 5.43836 16.498 5.05164 16.0684C3.69812 14.5645 2.94617 12.5771 2.94617 10.3857C2.94617 8.19434 3.69812 6.20703 5.05164 4.70312C5.43836 4.27344 5.53504 3.79004 5.20203 3.40332C4.86902 3.00586 4.2782 2.99512 3.85926 3.45703C2.17273 5.27246 1.21668 7.74316 1.21668 10.3857C1.21668 13.0391 2.16199 15.4883 3.85926 17.3145C4.2782 17.7764 4.86902 17.7656 5.20203 17.3682ZM15.9657 14.457C16.3095 14.8545 16.9432 14.8652 17.33 14.3818C18.2108 13.2969 18.7264 11.8896 18.7264 10.3857C18.7264 8.88184 18.2108 7.47461 17.33 6.38965C16.9432 5.90625 16.3095 5.91699 15.9657 6.3252C15.6327 6.70117 15.7723 7.16309 16.0946 7.61426C16.6639 8.37695 16.997 9.34375 16.997 10.3857C16.997 11.4277 16.6854 12.416 16.0946 13.1572C15.7723 13.5977 15.6327 14.0703 15.9657 14.457ZM8.2743 14.457C8.6073 14.0703 8.46766 13.5977 8.14539 13.1572C7.55457 12.416 7.24305 11.4277 7.24305 10.3857C7.24305 9.34375 7.57605 8.37695 8.14539 7.61426C8.46766 7.16309 8.6073 6.70117 8.2743 6.3252C7.93055 5.91699 7.29676 5.90625 6.91004 6.38965C6.02918 7.47461 5.5243 8.88184 5.5243 10.3857C5.5243 11.8896 6.02918 13.2969 6.91004 14.3818C7.29676 14.8652 7.93055 14.8545 8.2743 14.457ZM12.12 22.084C12.6249 22.084 12.9364 21.7188 12.9364 21.1602V12.0723C13.5595 11.7715 13.9999 11.127 13.9999 10.3857C13.9999 9.34375 13.1727 8.50586 12.12 8.50586C11.078 8.50586 10.2509 9.34375 10.2509 10.3857C10.2509 11.1377 10.6805 11.7715 11.3036 12.083V21.1602C11.3036 21.6973 11.6366 22.084 12.12 22.084Z" fill="#021730"/>
</svg>
