<svg width="24" height="24" viewBox="0 0 24 24" fill="none" xmlns="http://www.w3.org/2000/svg">
<path d="M16.455 6.20312C16.455 5.53906 15.955 5.00781 15.2753 5.00781C14.83 5.00781 14.5019 5.1875 14.0331 5.625L10.9862 8.46094C10.9472 8.49219 10.9081 8.52344 10.8691 8.53906L10.6425 8.55469L16.455 14.3672V6.20312ZM19.0097 20.1406C19.2597 20.3906 19.6659 20.3906 19.9081 20.1406C20.1503 19.8906 20.1581 19.4922 19.9081 19.2422L5.98625 5.32031C5.73625 5.07031 5.32219 5.07031 5.07219 5.32031C4.83 5.5625 4.83 5.98438 5.07219 6.21875L19.0097 20.1406ZM8.22844 15.8984H10.455C10.5175 15.8984 10.5722 15.9141 10.6191 15.9609L14.0331 19.1406C14.4706 19.5469 14.83 19.7266 15.2831 19.7266C15.7128 19.7266 16.0722 19.5156 16.2675 19.1875C16.3066 19.1172 16.3456 19.0391 16.3769 18.9453L6.79875 9.375C6.455 9.71094 6.2675 10.2266 6.2675 10.8984V13.8516C6.2675 15.1875 6.96281 15.8984 8.22844 15.8984Z" fill="#021730"/>
</svg>
