<svg width="24" height="24" viewBox="0 0 24 24" fill="none" xmlns="http://www.w3.org/2000/svg">
<path d="M13.455 19.7266C14.1191 19.7266 14.6191 19.2266 14.6191 18.5625V6.20312C14.6191 5.53906 14.1191 5.00781 13.4394 5.00781C13.0019 5.00781 12.6737 5.1875 12.1972 5.625L8.79094 8.78906C8.73625 8.83594 8.68937 8.85156 8.61906 8.85156H6.40031C5.12687 8.85156 4.43937 9.5625 4.43937 10.8984V13.8516C4.43937 15.1875 5.12687 15.8984 6.40031 15.8984H8.61906C8.68937 15.8984 8.74406 15.9141 8.79094 15.9609L12.1972 19.1406C12.6425 19.5469 12.9941 19.7266 13.455 19.7266ZM17.9003 16.0859C18.2987 16.3359 18.8144 16.25 19.0878 15.8594C19.7675 14.9375 20.1659 13.6719 20.1659 12.3594C20.1659 11.0469 19.7675 9.78906 19.0878 8.85938C18.8144 8.46875 18.2987 8.375 17.9003 8.63281C17.4394 8.92969 17.3534 9.46875 17.7128 10.0391C18.1269 10.6406 18.3769 11.4922 18.3769 12.3594C18.3769 13.2266 18.1191 14.0781 17.7128 14.6875C17.3534 15.2578 17.4394 15.7891 17.9003 16.0859Z" fill="#021730"/>
</svg>
