<svg width="24" height="24" viewBox="0 0 24 24" fill="none" xmlns="http://www.w3.org/2000/svg">
<path d="M11.3612 19.7266C12.0253 19.7266 12.5253 19.2266 12.5253 18.5625V6.20312C12.5253 5.53906 12.0253 5.00781 11.3456 5.00781C10.9081 5.00781 10.58 5.1875 10.1034 5.625L6.69719 8.78906C6.6425 8.83594 6.59562 8.85156 6.52531 8.85156H4.30656C3.03312 8.85156 2.34562 9.5625 2.34562 10.8984V13.8516C2.34562 15.1875 3.03312 15.8984 4.30656 15.8984H6.52531C6.59562 15.8984 6.65031 15.9141 6.69719 15.9609L10.1034 19.1406C10.5487 19.5469 10.9003 19.7266 11.3612 19.7266ZM19.3378 18.2969C19.7675 18.5547 20.2831 18.4453 20.5722 18.0234C21.6425 16.4531 22.2519 14.4609 22.2519 12.3594C22.2519 10.2578 21.6503 8.25 20.5722 6.69531C20.2831 6.26562 19.7675 6.16406 19.3378 6.42188C18.8769 6.70312 18.8222 7.26562 19.1425 7.77344C19.9706 9.04688 20.4628 10.6562 20.4628 12.3594C20.4628 14.0625 19.9706 15.6797 19.1425 16.9453C18.8222 17.4531 18.8769 18.0156 19.3378 18.2969ZM15.8066 16.0859C16.205 16.3359 16.7206 16.25 16.9941 15.8594C17.6737 14.9375 18.0722 13.6719 18.0722 12.3594C18.0722 11.0469 17.6737 9.78906 16.9941 8.85938C16.7206 8.46875 16.205 8.375 15.8066 8.63281C15.3456 8.92969 15.2597 9.46875 15.6191 10.0391C16.0331 10.6406 16.2831 11.4922 16.2831 12.3594C16.2831 13.2266 16.0253 14.0781 15.6191 14.6875C15.2597 15.2578 15.3456 15.7891 15.8066 16.0859Z" fill="#021730"/>
</svg>
