<svg width="25" height="24" viewBox="0 0 25 24" fill="none" xmlns="http://www.w3.org/2000/svg">
<path d="M20.83 20.5234C21.2519 20.7891 21.7909 20.6641 22.08 20.2188C23.5331 18.0156 24.3691 15.2812 24.3691 12.3672C24.3691 9.46094 23.5175 6.72656 22.08 4.51562C21.7909 4.07031 21.2519 3.94531 20.83 4.21094C20.3769 4.49219 20.3066 5.04688 20.6191 5.54688C21.8456 7.46094 22.5956 9.83594 22.5956 12.3672C22.5956 14.8984 21.8691 17.3047 20.6191 19.1953C20.3066 19.6875 20.3769 20.2422 20.83 20.5234ZM9.30656 19.7266C9.97062 19.7266 10.4706 19.2266 10.4706 18.5625V6.20312C10.4706 5.53906 9.97062 5.00781 9.29094 5.00781C8.85344 5.00781 8.52531 5.1875 8.04875 5.625L4.6425 8.78906C4.58781 8.83594 4.54094 8.85156 4.47062 8.85156H2.25187C0.978437 8.85156 0.290937 9.5625 0.290937 10.8984V13.8516C0.290937 15.1875 0.978437 15.8984 2.25187 15.8984H4.47062C4.54094 15.8984 4.59562 15.9141 4.6425 15.9609L8.04875 19.1406C8.49406 19.5469 8.84562 19.7266 9.30656 19.7266ZM17.2831 18.3047C17.7128 18.5625 18.2284 18.4531 18.5175 18.0312C19.5878 16.4688 20.1972 14.4688 20.1972 12.3672C20.1972 10.2656 19.5956 8.25781 18.5175 6.70312C18.2284 6.28125 17.7128 6.17188 17.2831 6.42969C16.8222 6.71094 16.7675 7.27344 17.0878 7.78125C17.9159 9.05469 18.4081 10.6641 18.4081 12.3672C18.4081 14.0703 17.9159 15.6875 17.0878 16.9531C16.7675 17.4609 16.8222 18.0234 17.2831 18.3047ZM13.7519 16.0938C14.1503 16.3516 14.6659 16.2578 14.9394 15.8672C15.6191 14.9453 16.0175 13.6797 16.0175 12.3672C16.0175 11.0547 15.6191 9.79688 14.9394 8.86719C14.6659 8.47656 14.1503 8.39062 13.7519 8.64062C13.2909 8.9375 13.205 9.47656 13.5644 10.0469C13.9784 10.6562 14.2284 11.5 14.2284 12.3672C14.2284 13.2344 13.9706 14.0859 13.5644 14.6953C13.205 15.2656 13.2909 15.7969 13.7519 16.0938Z" fill="#021730"/>
</svg>
