<svg width="24" height="24" viewBox="0 0 24 24" fill="none" xmlns="http://www.w3.org/2000/svg">
<path d="M9.37012 3.75H10.7451V5.125H9.37012V3.75ZM12.1201 3.75H13.4951V5.125H12.1201V3.75ZM16.2451 9.5C16.4313 9.5 16.6068 9.53581 16.7715 9.60742C16.9434 9.67904 17.0902 9.77572 17.2119 9.89746C17.3408 10.0192 17.4411 10.1624 17.5127 10.3271C17.5843 10.4919 17.6201 10.6673 17.6201 10.8535V17.5215C17.6201 17.7077 17.5843 17.8831 17.5127 18.0479C17.4411 18.2126 17.3408 18.3558 17.2119 18.4775C17.0902 18.5993 16.9434 18.696 16.7715 18.7676C16.6068 18.8392 16.4313 18.875 16.2451 18.875H12.1201V23H10.7451V18.875H6.62012C6.43392 18.875 6.25488 18.8392 6.08301 18.7676C5.91829 18.696 5.77148 18.5993 5.64258 18.4775C5.52083 18.3558 5.42415 18.2126 5.35254 18.0479C5.28092 17.8831 5.24512 17.7077 5.24512 17.5215V10.8535C5.24512 10.6673 5.28092 10.4919 5.35254 10.3271C5.42415 10.1624 5.52083 10.0192 5.64258 9.89746C5.77148 9.77572 5.91829 9.67904 6.08301 9.60742C6.25488 9.53581 6.43392 9.5 6.62012 9.5V1H16.2451V9.5ZM7.99512 9.5H14.8701V2.375H7.99512V9.5ZM16.2451 10.875H6.62012V17.5H16.2451V10.875Z" fill="#021730"/>
</svg>
