<svg width="24" height="24" viewBox="0 0 24 24" fill="none" xmlns="http://www.w3.org/2000/svg">
<path d="M12.205 23.2441C17.995 23.2441 22.7753 18.4639 22.7753 12.6738C22.7753 6.87305 17.9843 2.09277 12.1943 2.09277C6.40422 2.09277 1.62395 6.87305 1.62395 12.6738C1.62395 18.4639 6.40422 23.2441 12.205 23.2441ZM8.72453 17.1641C8.1552 17.1641 7.70402 16.7021 7.70402 16.1328C7.70402 15.8643 7.81145 15.6172 8.01555 15.4238L10.7548 12.6738L8.01555 9.93457C7.82219 9.75195 7.70402 9.49414 7.70402 9.22559C7.70402 8.64551 8.1552 8.20508 8.72453 8.20508C9.02531 8.20508 9.26164 8.3125 9.455 8.50586L12.1943 11.2344L14.955 8.49512C15.1591 8.29102 15.3847 8.19434 15.6747 8.19434C16.2548 8.19434 16.706 8.64551 16.706 9.21484C16.706 9.49414 16.5986 9.71973 16.3945 9.92383L13.6552 12.6738L16.3837 15.4131C16.5771 15.6064 16.6952 15.8535 16.6952 16.1328C16.6952 16.7021 16.2441 17.1641 15.6747 17.1641C15.3632 17.1641 15.1161 17.0459 14.9335 16.8633L12.1943 14.1348L9.46574 16.8633C9.28312 17.0566 9.02531 17.1641 8.72453 17.1641Z" fill="#8E8E93"/>
</svg>
