<?xml version="1.0" encoding="UTF-8"?>
<svg version="1.1" xmlns="http://www.w3.org/2000/svg" width="931" height="425">
<path d="M0 0 C19.8 0 39.6 0 60 0 C60 22.77 60 45.54 60 69 C306.18 69 552.36 69 806 69 C806 174.27 806 279.54 806 388 C678.62 388 551.24 388 420 388 C420 400.21 420 412.42 420 425 C255.99 425 91.98 425 -77 425 C-77 422.03 -77 419.06 -77 416 C-92.84 416 -108.68 416 -125 416 C-125 376.4 -125 336.8 -125 296 C-109.16 296 -93.32 296 -77 296 C-77 221.09 -77 146.18 -77 69 C-51.59 69 -26.18 69 0 69 C0 46.23 0 23.46 0 0 Z M9 9 C9 28.8 9 48.6 9 69 C22.86 69 36.72 69 51 69 C51 49.2 51 29.4 51 9 C37.14 9 23.28 9 9 9 Z M-123 298 C-123 309.88 -123 321.76 -123 334 C-116.07 334 -109.14 334 -102 334 C-102 350.5 -102 367 -102 384 C-100.68 384 -99.36 384 -98 384 C-98 371.46 -98 358.92 -98 346 C-91.07 346 -84.14 346 -77 346 C-77 330.16 -77 314.32 -77 298 C-92.18 298 -107.36 298 -123 298 Z M-123 336 C-123 337.32 -123 338.64 -123 340 C-116.73 340 -110.46 340 -104 340 C-104 338.68 -104 337.36 -104 336 C-110.27 336 -116.54 336 -123 336 Z M-123 342 C-123 343.32 -123 344.64 -123 346 C-116.73 346 -110.46 346 -104 346 C-104 344.68 -104 343.36 -104 342 C-110.27 342 -116.54 342 -123 342 Z M-123 348 C-123 349.65 -123 351.3 -123 353 C-116.73 353 -110.46 353 -104 353 C-104 351.35 -104 349.7 -104 348 C-110.27 348 -116.54 348 -123 348 Z M-96 348 C-96 349.65 -96 351.3 -96 353 C-89.73 353 -83.46 353 -77 353 C-77 351.35 -77 349.7 -77 348 C-83.27 348 -89.54 348 -96 348 Z M-123 355 C-123 356.32 -123 357.64 -123 359 C-116.73 359 -110.46 359 -104 359 C-104 357.68 -104 356.36 -104 355 C-110.27 355 -116.54 355 -123 355 Z M-96 355 C-96 356.32 -96 357.64 -96 359 C-89.73 359 -83.46 359 -77 359 C-77 357.68 -77 356.36 -77 355 C-83.27 355 -89.54 355 -96 355 Z M-123 361 C-123 362.32 -123 363.64 -123 365 C-116.73 365 -110.46 365 -104 365 C-104 363.68 -104 362.36 -104 361 C-110.27 361 -116.54 361 -123 361 Z M-96 361 C-96 362.32 -96 363.64 -96 365 C-89.73 365 -83.46 365 -77 365 C-77 363.68 -77 362.36 -77 361 C-83.27 361 -89.54 361 -96 361 Z M-123 367 C-123 368.32 -123 369.64 -123 371 C-116.73 371 -110.46 371 -104 371 C-104 369.68 -104 368.36 -104 367 C-110.27 367 -116.54 367 -123 367 Z M-96 367 C-96 368.32 -96 369.64 -96 371 C-89.73 371 -83.46 371 -77 371 C-77 369.68 -77 368.36 -77 367 C-83.27 367 -89.54 367 -96 367 Z M-123 373 C-123 374.65 -123 376.3 -123 378 C-116.73 378 -110.46 378 -104 378 C-104 376.35 -104 374.7 -104 373 C-110.27 373 -116.54 373 -123 373 Z M-96 373 C-96 374.65 -96 376.3 -96 378 C-89.73 378 -83.46 378 -77 378 C-77 376.35 -77 374.7 -77 373 C-83.27 373 -89.54 373 -96 373 Z M-123 380 C-123 381.32 -123 382.64 -123 384 C-116.73 384 -110.46 384 -104 384 C-104 382.68 -104 381.36 -104 380 C-110.27 380 -116.54 380 -123 380 Z M-96 380 C-96 381.32 -96 382.64 -96 384 C-89.73 384 -83.46 384 -77 384 C-77 382.68 -77 381.36 -77 380 C-83.27 380 -89.54 380 -96 380 Z M-123 386 C-123 395.24 -123 404.48 -123 414 C-107.82 414 -92.64 414 -77 414 C-77 404.76 -77 395.52 -77 386 C-92.18 386 -107.36 386 -123 386 Z " fill="#898989" transform="translate(125,0)"/>
<path d="M0 0 C36.3 0 72.6 0 110 0 C110 10.23 110 20.46 110 31 C110.66 31 111.32 31 112 31 C112 43.87 112 56.74 112 70 C111.34 70 110.68 70 110 70 C110 82.21 110 94.42 110 107 C111.65 107 113.3 107 115 107 C115 103.04 115 99.08 115 95 C127.54 95 140.08 95 153 95 C153 94.34 153 93.68 153 93 C159.27 93 165.54 93 172 93 C172 93.66 172 94.32 172 95 C178.27 95 184.54 95 191 95 C191 119.09 191 143.18 191 168 C165.92 168 140.84 168 115 168 C114.67 154.47 114.34 140.94 114 127 C112.68 126.67 111.36 126.34 110 126 C110 139.86 110 153.72 110 168 C108.68 168 107.36 168 106 168 C106 178.23 106 188.46 106 199 C104.02 199 102.04 199 100 199 C100 201.97 100 204.94 100 208 C-51.47 208 -202.94 208 -359 208 C-359 205.03 -359 202.06 -359 199 C-363.95 199 -368.9 199 -374 199 C-374 137.95 -374 76.9 -374 14 C-336.05 14 -298.1 14 -259 14 C-259 15.98 -259 17.96 -259 20 C-241.84 20 -224.68 20 -207 20 C-207 18.02 -207 16.04 -207 14 C-192.15 14 -177.3 14 -162 14 C-162 15.98 -162 17.96 -162 20 C-149.46 20 -136.92 20 -124 20 C-124 17.36 -124 14.72 -124 12 C-86.38 12 -48.76 12 -10 12 C-10 14.64 -10 17.28 -10 20 C-6.7 20 -3.4 20 0 20 C0 13.4 0 6.8 0 0 Z " fill="#85613D" transform="translate(430,217)"/>
<path d="M0 0 C19.8 0 39.6 0 60 0 C60 22.77 60 45.54 60 69 C207.18 69 354.36 69 506 69 C506 71.97 506 74.94 506 78 C504.02 78 502.04 78 500 78 C500 94.17 500 110.34 500 127 C501.65 127 503.3 127 505 127 C505 128.32 505 129.64 505 131 C503.35 131 501.7 131 500 131 C500 155.75 500 180.5 500 206 C492.74 206 485.48 206 478 206 C478 205.34 478 204.68 478 204 C471.73 204 465.46 204 459 204 C459 204.66 459 205.32 459 206 C446.13 206 433.26 206 420 206 C420 219.86 420 233.72 420 248 C418.35 248 416.7 248 415 248 C415 237.77 415 227.54 415 217 C378.7 217 342.4 217 305 217 C305 223.6 305 230.2 305 237 C301.7 237 298.4 237 295 237 C295 234.36 295 231.72 295 229 C257.38 229 219.76 229 181 229 C181 231.64 181 234.28 181 237 C168.46 237 155.92 237 143 237 C143 235.02 143 233.04 143 231 C128.15 231 113.3 231 98 231 C98 232.98 98 234.96 98 237 C80.84 237 63.68 237 46 237 C46 235.02 46 233.04 46 231 C8.05 231 -29.9 231 -69 231 C-69 292.05 -69 353.1 -69 416 C-64.05 416 -59.1 416 -54 416 C-54 418.97 -54 421.94 -54 425 C-61.59 425 -69.18 425 -77 425 C-77 422.03 -77 419.06 -77 416 C-92.84 416 -108.68 416 -125 416 C-125 376.4 -125 336.8 -125 296 C-109.16 296 -93.32 296 -77 296 C-77 221.09 -77 146.18 -77 69 C-51.59 69 -26.18 69 0 69 C0 46.23 0 23.46 0 0 Z M9 9 C9 28.8 9 48.6 9 69 C22.86 69 36.72 69 51 69 C51 49.2 51 29.4 51 9 C37.14 9 23.28 9 9 9 Z M-123 298 C-123 309.88 -123 321.76 -123 334 C-116.07 334 -109.14 334 -102 334 C-102 350.5 -102 367 -102 384 C-100.68 384 -99.36 384 -98 384 C-98 371.46 -98 358.92 -98 346 C-91.07 346 -84.14 346 -77 346 C-77 330.16 -77 314.32 -77 298 C-92.18 298 -107.36 298 -123 298 Z M-123 336 C-123 337.32 -123 338.64 -123 340 C-116.73 340 -110.46 340 -104 340 C-104 338.68 -104 337.36 -104 336 C-110.27 336 -116.54 336 -123 336 Z M-123 342 C-123 343.32 -123 344.64 -123 346 C-116.73 346 -110.46 346 -104 346 C-104 344.68 -104 343.36 -104 342 C-110.27 342 -116.54 342 -123 342 Z M-123 348 C-123 349.65 -123 351.3 -123 353 C-116.73 353 -110.46 353 -104 353 C-104 351.35 -104 349.7 -104 348 C-110.27 348 -116.54 348 -123 348 Z M-96 348 C-96 349.65 -96 351.3 -96 353 C-89.73 353 -83.46 353 -77 353 C-77 351.35 -77 349.7 -77 348 C-83.27 348 -89.54 348 -96 348 Z M-123 355 C-123 356.32 -123 357.64 -123 359 C-116.73 359 -110.46 359 -104 359 C-104 357.68 -104 356.36 -104 355 C-110.27 355 -116.54 355 -123 355 Z M-96 355 C-96 356.32 -96 357.64 -96 359 C-89.73 359 -83.46 359 -77 359 C-77 357.68 -77 356.36 -77 355 C-83.27 355 -89.54 355 -96 355 Z M-123 361 C-123 362.32 -123 363.64 -123 365 C-116.73 365 -110.46 365 -104 365 C-104 363.68 -104 362.36 -104 361 C-110.27 361 -116.54 361 -123 361 Z M-96 361 C-96 362.32 -96 363.64 -96 365 C-89.73 365 -83.46 365 -77 365 C-77 363.68 -77 362.36 -77 361 C-83.27 361 -89.54 361 -96 361 Z M-123 367 C-123 368.32 -123 369.64 -123 371 C-116.73 371 -110.46 371 -104 371 C-104 369.68 -104 368.36 -104 367 C-110.27 367 -116.54 367 -123 367 Z M-96 367 C-96 368.32 -96 369.64 -96 371 C-89.73 371 -83.46 371 -77 371 C-77 369.68 -77 368.36 -77 367 C-83.27 367 -89.54 367 -96 367 Z M-123 373 C-123 374.65 -123 376.3 -123 378 C-116.73 378 -110.46 378 -104 378 C-104 376.35 -104 374.7 -104 373 C-110.27 373 -116.54 373 -123 373 Z M-96 373 C-96 374.65 -96 376.3 -96 378 C-89.73 378 -83.46 378 -77 378 C-77 376.35 -77 374.7 -77 373 C-83.27 373 -89.54 373 -96 373 Z M-123 380 C-123 381.32 -123 382.64 -123 384 C-116.73 384 -110.46 384 -104 384 C-104 382.68 -104 381.36 -104 380 C-110.27 380 -116.54 380 -123 380 Z M-96 380 C-96 381.32 -96 382.64 -96 384 C-89.73 384 -83.46 384 -77 384 C-77 382.68 -77 381.36 -77 380 C-83.27 380 -89.54 380 -96 380 Z M-123 386 C-123 395.24 -123 404.48 -123 414 C-107.82 414 -92.64 414 -77 414 C-77 404.76 -77 395.52 -77 386 C-92.18 386 -107.36 386 -123 386 Z " fill="#C3C3C3" transform="translate(125,0)"/>
<path d="M0 0 C28.38 0 56.76 0 86 0 C86 1.98 86 3.96 86 6 C89.63 6 93.26 6 97 6 C97 39.66 97 73.32 97 108 C98.65 108 100.3 108 102 108 C102 74.34 102 40.68 102 6 C106.29 6 110.58 6 115 6 C115 4.02 115 2.04 115 0 C131.17 0 147.34 0 164 0 C164 1.98 164 3.96 164 6 C168.62 6 173.24 6 178 6 C178 46.59 178 87.18 178 129 C172.39 129.33 166.78 129.66 161 130 C160.67 130.66 160.34 131.32 160 132 C153.73 132 147.46 132 141 132 C141 131.01 141 130.02 141 129 C139.26713745 129.01571045 139.26713745 129.01571045 137.49926758 129.03173828 C133.20356356 129.06800279 128.90787302 129.09092398 124.61206055 129.10986328 C122.75461551 129.11990615 120.89718621 129.13354304 119.03979492 129.15087891 C116.36633409 129.17520261 113.69308274 129.18650033 111.01953125 129.1953125 C109.7786248 129.21079636 109.7786248 129.21079636 108.51264954 129.22659302 C107.73221786 129.22674408 106.95178619 129.22689514 106.14770508 129.22705078 C105.46597733 129.231492 104.78424957 129.23593323 104.0818634 129.24050903 C102 129 102 129 97 127 C97 131.29 97 135.58 97 140 C54.1 140 11.2 140 -33 140 C-33 133.73 -33 127.46 -33 121 C-33.66 121 -34.32 121 -35 121 C-35 108.13 -35 95.26 -35 82 C-34.34 82 -33.68 82 -33 82 C-33 56.92 -33 31.84 -33 6 C-22.11 6 -11.22 6 0 6 C0 4.02 0 2.04 0 0 Z " fill="#DEDA0A" transform="translate(443,72)"/>
<path d="M0 0 C92.73 0 185.46 0 281 0 C281 55.44 281 110.88 281 168 C236.45 168 191.9 168 146 168 C146 163.71 146 159.42 146 155 C151.28 155 156.56 155 162 155 C162 157.64 162 160.28 162 163 C198.3 163 234.6 163 272 163 C272 153.76 272 144.52 272 135 C267.38 135 262.76 135 258 135 C258.33 133.35 258.66 131.7 259 130 C263.29 130 267.58 130 272 130 C272 115.81 272 101.62 272 87 C270.35 87 268.7 87 267 87 C266.67 85.35 266.34 83.7 266 82 C267.98 82 269.96 82 272 82 C272 57.91 272 33.82 272 9 C252.53 9 233.06 9 213 9 C213 16.26 213 23.52 213 31 C222.57 31 232.14 31 242 31 C242 32.65 242 34.3 242 36 C232.43 36 222.86 36 213 36 C213 42.6 213 49.2 213 56 C222.57 56 232.14 56 242 56 C242 57.65 242 59.3 242 61 C232.43 61 222.86 61 213 61 C213 67.93 213 74.86 213 82 C225.21 82 237.42 82 250 82 C250 83.65 250 85.3 250 87 C242.41 87 234.82 87 227 87 C227 101.19 227 115.38 227 130 C231.95 130 236.9 130 242 130 C242 131.65 242 133.3 242 135 C231.77 135 221.54 135 211 135 C211.33 133.35 211.66 131.7 212 130 C215.3 130 218.6 130 222 130 C222 115.81 222 101.62 222 87 C214.41 87 206.82 87 199 87 C199 101.19 199 115.38 199 130 C199.99 130 200.98 130 202 130 C202 131.65 202 133.3 202 135 C193.42 135 184.84 135 176 135 C176.33 133.35 176.66 131.7 177 130 C182.61 130 188.22 130 194 130 C194 115.81 194 101.62 194 87 C186.08 87 178.16 87 170 87 C169.67 85.35 169.34 83.7 169 82 C181.87 82 194.74 82 208 82 C208 66.82 208 51.64 208 36 C203.38 36 198.76 36 194 36 C194.33 34.35 194.66 32.7 195 31 C199.29 31 203.58 31 208 31 C208 23.74 208 16.48 208 9 C199.42 9 190.84 9 182 9 C182 16.26 182 23.52 182 31 C182.99 31 183.98 31 185 31 C185 32.65 185 34.3 185 36 C179.39 36 173.78 36 168 36 C168 34.35 168 32.7 168 31 C171.3 31 174.6 31 178 31 C178 23.74 178 16.48 178 9 C169.09 9 160.18 9 151 9 C151 16.26 151 23.52 151 31 C153.64 31 156.28 31 159 31 C159 32.65 159 34.3 159 36 C156.36 36 153.72 36 151 36 C151 51.18 151 66.36 151 82 C156.61 82 162.22 82 168 82 C168 83.65 168 85.3 168 87 C162.39 87 156.78 87 151 87 C151 101.19 151 115.38 151 130 C156.61 130 162.22 130 168 130 C168 131.65 168 133.3 168 135 C160.74 135 153.48 135 146 135 C146 133.35 146 131.7 146 130 C132.8 130 119.6 130 106 130 C106 105.25 106 80.5 106 55 C94.12 55 82.24 55 70 55 C70 91.96 70 128.92 70 167 C56.8 167 43.6 167 30 167 C30 168.32 30 169.64 30 171 C12.18 171 -5.64 171 -24 171 C-24 173.64 -24 176.28 -24 179 C-25.65 179 -27.3 179 -29 179 C-29 174.71 -29 170.42 -29 166 C-11.18 166 6.64 166 25 166 C25 131.68 25 97.36 25 62 C16.75 62 8.5 62 0 62 C0 60.35 0 58.7 0 57 C8.25 57 16.5 57 25 57 C25 41.16 25 25.32 25 9 C16.75 9 8.5 9 0 9 C0 6.03 0 3.06 0 0 Z " fill="#C7C8C8" transform="translate(650,69)"/>
<path d="M0 0 C92.73 0 185.46 0 281 0 C281 55.44 281 110.88 281 168 C236.45 168 191.9 168 146 168 C146 163.71 146 159.42 146 155 C151.28 155 156.56 155 162 155 C162 157.64 162 160.28 162 163 C198.3 163 234.6 163 272 163 C272 153.76 272 144.52 272 135 C267.38 135 262.76 135 258 135 C258.33 133.35 258.66 131.7 259 130 C263.29 130 267.58 130 272 130 C272 115.81 272 101.62 272 87 C270.35 87 268.7 87 267 87 C266.67 85.35 266.34 83.7 266 82 C267.98 82 269.96 82 272 82 C272 57.91 272 33.82 272 9 C252.53 9 233.06 9 213 9 C213 16.26 213 23.52 213 31 C222.57 31 232.14 31 242 31 C242 32.65 242 34.3 242 36 C232.43 36 222.86 36 213 36 C213 42.6 213 49.2 213 56 C222.57 56 232.14 56 242 56 C242 57.65 242 59.3 242 61 C232.43 61 222.86 61 213 61 C213 67.93 213 74.86 213 82 C225.21 82 237.42 82 250 82 C250 83.65 250 85.3 250 87 C242.41 87 234.82 87 227 87 C227 101.19 227 115.38 227 130 C231.95 130 236.9 130 242 130 C242 131.65 242 133.3 242 135 C231.77 135 221.54 135 211 135 C211.33 133.35 211.66 131.7 212 130 C215.3 130 218.6 130 222 130 C222 115.81 222 101.62 222 87 C214.41 87 206.82 87 199 87 C199 101.19 199 115.38 199 130 C199.99 130 200.98 130 202 130 C202 131.65 202 133.3 202 135 C193.42 135 184.84 135 176 135 C176.33 133.35 176.66 131.7 177 130 C182.61 130 188.22 130 194 130 C194 115.81 194 101.62 194 87 C186.08 87 178.16 87 170 87 C169.67 85.35 169.34 83.7 169 82 C181.87 82 194.74 82 208 82 C208 66.82 208 51.64 208 36 C203.38 36 198.76 36 194 36 C194.33 34.35 194.66 32.7 195 31 C199.29 31 203.58 31 208 31 C208 23.74 208 16.48 208 9 C199.42 9 190.84 9 182 9 C182 16.26 182 23.52 182 31 C182.99 31 183.98 31 185 31 C185 32.65 185 34.3 185 36 C179.39 36 173.78 36 168 36 C168 34.35 168 32.7 168 31 C171.3 31 174.6 31 178 31 C178 23.74 178 16.48 178 9 C169.09 9 160.18 9 151 9 C151 16.26 151 23.52 151 31 C153.64 31 156.28 31 159 31 C159 32.65 159 34.3 159 36 C156.36 36 153.72 36 151 36 C151 51.18 151 66.36 151 82 C156.61 82 162.22 82 168 82 C168 83.65 168 85.3 168 87 C162.39 87 156.78 87 151 87 C151 101.19 151 115.38 151 130 C156.61 130 162.22 130 168 130 C168 131.65 168 133.3 168 135 C160.74 135 153.48 135 146 135 C146 93.42 146 51.84 146 9 C107.72 9 69.44 9 30 9 C30 62.46 30 115.92 30 171 C12.18 171 -5.64 171 -24 171 C-24 173.64 -24 176.28 -24 179 C-25.65 179 -27.3 179 -29 179 C-29 174.71 -29 170.42 -29 166 C-11.18 166 6.64 166 25 166 C25 131.68 25 97.36 25 62 C16.75 62 8.5 62 0 62 C0 60.35 0 58.7 0 57 C8.25 57 16.5 57 25 57 C25 41.16 25 25.32 25 9 C16.75 9 8.5 9 0 9 C0 6.03 0 3.06 0 0 Z " fill="#F3F8FA" transform="translate(650,69)"/>
<path d="M0 0 C19.47 0 38.94 0 59 0 C59 24.09 59 48.18 59 73 C57.02 73 55.04 73 53 73 C53.33 74.32 53.66 75.64 54 77 C55.65 77.33 57.3 77.66 59 78 C59 92.19 59 106.38 59 121 C52.565 121.495 52.565 121.495 46 122 C45.67 122.66 45.34 123.32 45 124 C39.72 124 34.44 124 29 124 C29 123.01 29 122.02 29 121 C24.05 121 19.1 121 14 121 C14 106.81 14 92.62 14 78 C21.59 78 29.18 78 37 78 C37 76.35 37 74.7 37 73 C24.79 73 12.58 73 0 73 C0 66.07 0 59.14 0 52 C9.57 52 19.14 52 29 52 C29 50.35 29 48.7 29 47 C19.43 47 9.86 47 0 47 C0 40.4 0 33.8 0 27 C9.57 27 19.14 27 29 27 C29 25.35 29 23.7 29 22 C19.43 22 9.86 22 0 22 C0 14.74 0 7.48 0 0 Z " fill="#009CE2" transform="translate(863,78)"/>
<path d="M0 0 C8.91 0 17.82 0 27 0 C27 7.26 27 14.52 27 22 C23.7 22 20.4 22 17 22 C17 23.65 17 25.3 17 27 C22.61 27 28.22 27 34 27 C34 25.35 34 23.7 34 22 C33.01 22 32.02 22 31 22 C31 14.74 31 7.48 31 0 C39.58 0 48.16 0 57 0 C57 7.26 57 14.52 57 22 C50.565 22.495 50.565 22.495 44 23 C43.67 24.32 43.34 25.64 43 27 C47.62 27 52.24 27 57 27 C57 42.18 57 57.36 57 73 C44.13 73 31.26 73 18 73 C18.33 74.32 18.66 75.64 19 77 C26.92 77.33 34.84 77.66 43 78 C43 92.19 43 106.38 43 121 C34.585 121.495 34.585 121.495 26 122 C25.67 122.66 25.34 123.32 25 124 C22.36 124 19.72 124 17 124 C17 123.01 17 122.02 17 121 C11.39 121 5.78 121 0 121 C0 106.81 0 92.62 0 78 C5.61 78 11.22 78 17 78 C17 76.35 17 74.7 17 73 C11.39 73 5.78 73 0 73 C0 57.82 0 42.64 0 27 C2.64 27 5.28 27 8 27 C8 25.35 8 23.7 8 22 C5.36 22 2.72 22 0 22 C0 14.74 0 7.48 0 0 Z " fill="#009DE2" transform="translate(801,78)"/>
<path d="M0 0 C38.28 0 76.56 0 116 0 C116 14.52 116 29.04 116 44 C77.72 44 39.44 44 0 44 C0 29.48 0 14.96 0 0 Z " fill="#898989" transform="translate(680,78)"/>
<path d="M0 0 C2.64 0 5.28 0 8 0 C8 77.88 8 155.76 8 236 C12.95 236 17.9 236 23 236 C23 238.97 23 241.94 23 245 C15.41 245 7.82 245 0 245 C0 242.03 0 239.06 0 236 C-15.84 236 -31.68 236 -48 236 C-48 196.4 -48 156.8 -48 116 C-32.16 116 -16.32 116 0 116 C0 77.72 0 39.44 0 0 Z M-46 118 C-46 129.88 -46 141.76 -46 154 C-39.07 154 -32.14 154 -25 154 C-25 170.5 -25 187 -25 204 C-23.68 204 -22.36 204 -21 204 C-21 191.46 -21 178.92 -21 166 C-14.07 166 -7.14 166 0 166 C0 150.16 0 134.32 0 118 C-15.18 118 -30.36 118 -46 118 Z M-46 156 C-46 157.32 -46 158.64 -46 160 C-39.73 160 -33.46 160 -27 160 C-27 158.68 -27 157.36 -27 156 C-33.27 156 -39.54 156 -46 156 Z M-46 162 C-46 163.32 -46 164.64 -46 166 C-39.73 166 -33.46 166 -27 166 C-27 164.68 -27 163.36 -27 162 C-33.27 162 -39.54 162 -46 162 Z M-46 168 C-46 169.65 -46 171.3 -46 173 C-39.73 173 -33.46 173 -27 173 C-27 171.35 -27 169.7 -27 168 C-33.27 168 -39.54 168 -46 168 Z M-19 168 C-19 169.65 -19 171.3 -19 173 C-12.73 173 -6.46 173 0 173 C0 171.35 0 169.7 0 168 C-6.27 168 -12.54 168 -19 168 Z M-46 175 C-46 176.32 -46 177.64 -46 179 C-39.73 179 -33.46 179 -27 179 C-27 177.68 -27 176.36 -27 175 C-33.27 175 -39.54 175 -46 175 Z M-19 175 C-19 176.32 -19 177.64 -19 179 C-12.73 179 -6.46 179 0 179 C0 177.68 0 176.36 0 175 C-6.27 175 -12.54 175 -19 175 Z M-46 181 C-46 182.32 -46 183.64 -46 185 C-39.73 185 -33.46 185 -27 185 C-27 183.68 -27 182.36 -27 181 C-33.27 181 -39.54 181 -46 181 Z M-19 181 C-19 182.32 -19 183.64 -19 185 C-12.73 185 -6.46 185 0 185 C0 183.68 0 182.36 0 181 C-6.27 181 -12.54 181 -19 181 Z M-46 187 C-46 188.32 -46 189.64 -46 191 C-39.73 191 -33.46 191 -27 191 C-27 189.68 -27 188.36 -27 187 C-33.27 187 -39.54 187 -46 187 Z M-19 187 C-19 188.32 -19 189.64 -19 191 C-12.73 191 -6.46 191 0 191 C0 189.68 0 188.36 0 187 C-6.27 187 -12.54 187 -19 187 Z M-46 193 C-46 194.65 -46 196.3 -46 198 C-39.73 198 -33.46 198 -27 198 C-27 196.35 -27 194.7 -27 193 C-33.27 193 -39.54 193 -46 193 Z M-19 193 C-19 194.65 -19 196.3 -19 198 C-12.73 198 -6.46 198 0 198 C0 196.35 0 194.7 0 193 C-6.27 193 -12.54 193 -19 193 Z M-46 200 C-46 201.32 -46 202.64 -46 204 C-39.73 204 -33.46 204 -27 204 C-27 202.68 -27 201.36 -27 200 C-33.27 200 -39.54 200 -46 200 Z M-19 200 C-19 201.32 -19 202.64 -19 204 C-12.73 204 -6.46 204 0 204 C0 202.68 0 201.36 0 200 C-6.27 200 -12.54 200 -19 200 Z M-46 206 C-46 215.24 -46 224.48 -46 234 C-30.82 234 -15.64 234 0 234 C0 224.76 0 215.52 0 206 C-15.18 206 -30.36 206 -46 206 Z " fill="#FDFDFD" transform="translate(48,180)"/>
<path d="M0 0 C74.25 0 148.5 0 225 0 C225 2.97 225 5.94 225 9 C223.02 9 221.04 9 219 9 C219 25.17 219 41.34 219 58 C220.65 58 222.3 58 224 58 C224 59.32 224 60.64 224 62 C222.35 62 220.7 62 219 62 C219 86.75 219 111.5 219 137 C211.74 137 204.48 137 197 137 C197.33 135.35 197.66 133.7 198 132 C203.61 132 209.22 132 215 132 C215 91.41 215 50.82 215 9 C210.38 9 205.76 9 201 9 C201 7.02 201 5.04 201 3 C184.83 3 168.66 3 152 3 C152 4.98 152 6.96 152 9 C147.71 9 143.42 9 139 9 C139 42.66 139 76.32 139 111 C137.35 111 135.7 111 134 111 C134 77.34 134 43.68 134 9 C130.37 9 126.74 9 123 9 C123 7.02 123 5.04 123 3 C94.62 3 66.24 3 37 3 C37 4.98 37 6.96 37 9 C26.11 9 15.22 9 4 9 C4 34.08 4 59.16 4 85 C2.35 85 0.7 85 -1 85 C-1.02314874 74.36034449 -1.04092805 63.72069495 -1.05181217 53.0810194 C-1.05703544 48.14083658 -1.06412304 43.20067097 -1.07543945 38.26049805 C-1.08628802 33.49484907 -1.09228104 28.72921666 -1.09487724 23.96355629 C-1.09672793 22.14345349 -1.10034173 20.32335161 -1.10573006 18.50325584 C-1.11296658 15.95812378 -1.11398983 13.41306058 -1.11352539 10.86791992 C-1.11712067 10.11194519 -1.12071594 9.35597046 -1.12442017 8.5770874 C-1.1182124 5.44271375 -0.99910474 2.99731423 0 0 Z " fill="#FCFBF3" transform="translate(406,69)"/>
<path d="M0 0 C1.32 0 2.64 0 4 0 C4 6.27 4 12.54 4 19 C46.9 19 89.8 19 134 19 C134 14.71 134 10.42 134 6 C135.65 6.33 137.3 6.66 139 7 C140.38028097 7.10489921 141.76380346 7.17376751 143.14770508 7.20532227 C144.31835258 7.2352401 144.31835258 7.2352401 145.51264954 7.26576233 C146.3399205 7.28247482 147.16719147 7.29918732 148.01953125 7.31640625 C148.87810226 7.33718735 149.73667328 7.35796844 150.6212616 7.37937927 C153.35159654 7.44452523 156.08202395 7.50359654 158.8125 7.5625 C160.66862918 7.6057185 162.52474916 7.64933384 164.38085938 7.69335938 C168.92047925 7.80017061 173.46019172 7.90153565 178 8 C178 9.65 178 11.3 178 13 C165.13 13 152.26 13 139 13 C139 26.86 139 40.72 139 55 C137.35 55 135.7 55 134 55 C134 44.77 134 34.54 134 24 C97.7 24 61.4 24 24 24 C24 30.6 24 37.2 24 44 C20.7 44 17.4 44 14 44 C14 41.36 14 38.72 14 36 C-23.62 36 -61.24 36 -100 36 C-100 38.64 -100 41.28 -100 44 C-112.54 44 -125.08 44 -138 44 C-138 39.71 -138 35.42 -138 31 C-92.46 31 -46.92 31 0 31 C0 20.77 0 10.54 0 0 Z " fill="#FAF9F5" transform="translate(406,193)"/>
<path d="M0 0 C19.8 0 39.6 0 60 0 C60 22.77 60 45.54 60 69 C62.31 69 64.62 69 67 69 C67 71.97 67 74.94 67 78 C61.72 78 56.44 78 51 78 C51 55.23 51 32.46 51 9 C37.14 9 23.28 9 9 9 C9.01160156 13.22683594 9.02320313 17.45367188 9.03515625 21.80859375 C9.04159676 25.19966859 9.0470162 28.59074167 9.05175018 31.98181915 C9.05700923 35.54998522 9.06402581 39.11812716 9.07543945 42.6862793 C9.08848122 46.78955303 9.09325457 50.89280158 9.09765625 54.99609375 C9.10281754 56.26206894 9.10797882 57.52804413 9.11329651 58.8323822 C9.11370408 65.31075062 8.87488736 71.57911385 8 78 C3.05 78 -1.9 78 -7 78 C-7 75.03 -7 72.06 -7 69 C-4.69 69 -2.38 69 0 69 C0 46.23 0 23.46 0 0 Z " fill="#FDFDFD" transform="translate(125,0)"/>
<path d="M0 0 C15.84 0 31.68 0 48 0 C48 0.66 48 1.32 48 2 C32.82 2 17.64 2 2 2 C2 13.88 2 25.76 2 38 C8.93 38 15.86 38 23 38 C23 54.5 23 71 23 88 C24.32 88 25.64 88 27 88 C27 75.46 27 62.92 27 50 C33.93 50 40.86 50 48 50 C48 50.66 48 51.32 48 52 C41.73 52 35.46 52 29 52 C29 53.65 29 55.3 29 57 C35.27 57 41.54 57 48 57 C48 57.66 48 58.32 48 59 C41.73 59 35.46 59 29 59 C29 60.32 29 61.64 29 63 C35.27 63 41.54 63 48 63 C48 63.66 48 64.32 48 65 C41.73 65 35.46 65 29 65 C29 66.32 29 67.64 29 69 C35.27 69 41.54 69 48 69 C48 69.66 48 70.32 48 71 C41.73 71 35.46 71 29 71 C29 72.32 29 73.64 29 75 C35.27 75 41.54 75 48 75 C48 75.66 48 76.32 48 77 C41.73 77 35.46 77 29 77 C29 78.65 29 80.3 29 82 C35.27 82 41.54 82 48 82 C48 82.66 48 83.32 48 84 C41.73 84 35.46 84 29 84 C29 85.32 29 86.64 29 88 C35.27 88 41.54 88 48 88 C48 88.66 48 89.32 48 90 C32.82 90 17.64 90 2 90 C2 99.24 2 108.48 2 118 C17.18 118 32.36 118 48 118 C48 118.66 48 119.32 48 120 C32.16 120 16.32 120 0 120 C0 80.4 0 40.8 0 0 Z M2 40 C2 41.32 2 42.64 2 44 C8.27 44 14.54 44 21 44 C21 42.68 21 41.36 21 40 C14.73 40 8.46 40 2 40 Z M2 46 C2 47.32 2 48.64 2 50 C8.27 50 14.54 50 21 50 C21 48.68 21 47.36 21 46 C14.73 46 8.46 46 2 46 Z M2 52 C2 53.65 2 55.3 2 57 C8.27 57 14.54 57 21 57 C21 55.35 21 53.7 21 52 C14.73 52 8.46 52 2 52 Z M2 59 C2 60.32 2 61.64 2 63 C8.27 63 14.54 63 21 63 C21 61.68 21 60.36 21 59 C14.73 59 8.46 59 2 59 Z M2 65 C2 66.32 2 67.64 2 69 C8.27 69 14.54 69 21 69 C21 67.68 21 66.36 21 65 C14.73 65 8.46 65 2 65 Z M2 71 C2 72.32 2 73.64 2 75 C8.27 75 14.54 75 21 75 C21 73.68 21 72.36 21 71 C14.73 71 8.46 71 2 71 Z M2 77 C2 78.65 2 80.3 2 82 C8.27 82 14.54 82 21 82 C21 80.35 21 78.7 21 77 C14.73 77 8.46 77 2 77 Z M2 84 C2 85.32 2 86.64 2 88 C8.27 88 14.54 88 21 88 C21 86.68 21 85.36 21 84 C14.73 84 8.46 84 2 84 Z " fill="#D6D7D7" transform="translate(0,296)"/>
<path d="M0 0 C7.59 0 15.18 0 23 0 C23 14.19 23 28.38 23 43 C18.05 43.495 18.05 43.495 13 44 C12.67 44.66 12.34 45.32 12 46 C9.03 46 6.06 46 3 46 C3 45.01 3 44.02 3 43 C2.01 43 1.02 43 0 43 C0 28.81 0 14.62 0 0 Z " fill="#009CE2" transform="translate(849,156)"/>
<path d="M0 0 C0.99 0 1.98 0 3 0 C3 49.83 3 99.66 3 151 C-55.08 151 -113.16 151 -173 151 C-173 150.01 -173 149.02 -173 148 C-115.91 148 -58.82 148 0 148 C0 99.16 0 50.32 0 0 Z " fill="#6597AF" transform="translate(928,237)"/>
<path d="M0 0 C38.28 0 76.56 0 116 0 C116 4.62 116 9.24 116 14 C103.13 14 90.26 14 77 14 C77 15.65 77 17.3 77 19 C76.67 19 76.34 19 76 19 C76 13.39 76 7.78 76 2 C64.12 2 52.24 2 40 2 C40 3.65 40 5.3 40 7 C39 8 39 8 35.30639648 8.11352539 C33.66128708 8.11336624 32.01617269 8.10766988 30.37109375 8.09765625 C29.07474754 8.09553383 29.07474754 8.09553383 27.75221252 8.09336853 C24.98060708 8.08775239 22.2090812 8.07519719 19.4375 8.0625 C17.5631522 8.05748708 15.68880315 8.05292381 13.81445312 8.04882812 C9.20960456 8.03777772 4.60481579 8.0205023 0 8 C0 5.36 0 2.72 0 0 Z " fill="#CACACA" transform="translate(680,122)"/>
<path d="M0 0 C26.4 0 52.8 0 80 0 C80 2.97 80 5.94 80 9 C53.6 9 27.2 9 0 9 C0 6.03 0 3.06 0 0 Z " fill="#FCFCFC" transform="translate(239,69)"/>
<path d="M0 0 C12.21 0 24.42 0 37 0 C37 2.97 37 5.94 37 9 C26.11 9 15.22 9 4 9 C4 34.08 4 59.16 4 85 C2.35 85 0.7 85 -1 85 C-1.02314874 74.36034449 -1.04092805 63.72069495 -1.05181217 53.0810194 C-1.05703544 48.14083658 -1.06412304 43.20067097 -1.07543945 38.26049805 C-1.08628802 33.49484907 -1.09228104 28.72921666 -1.09487724 23.96355629 C-1.09672793 22.14345349 -1.10034173 20.32335161 -1.10573006 18.50325584 C-1.11296658 15.95812378 -1.11398983 13.41306058 -1.11352539 10.86791992 C-1.11712067 10.11194519 -1.12071594 9.35597046 -1.12442017 8.5770874 C-1.1182124 5.44271375 -0.99910474 2.99731423 0 0 Z " fill="#FAFAF7" transform="translate(406,69)"/>
<path d="M0 0 C17.16 0 34.32 0 52 0 C52 4.29 52 8.58 52 13 C34.84 13 17.68 13 0 13 C0 8.71 0 4.42 0 0 Z " fill="#FAFAF9" transform="translate(171,224)"/>
<path d="M0 0 C7.59 0 15.18 0 23 0 C23 2.97 23 5.94 23 9 C18.05 9 13.1 9 8 9 C8 25.17 8 41.34 8 58 C5.36 58 2.72 58 0 58 C0 38.86 0 19.72 0 0 Z " fill="#FDFDFD" transform="translate(48,69)"/>
<path d="M0 0 C1.65 0 3.3 0 5 0 C5 32.67 5 65.34 5 99 C3.35 98.67 1.7 98.34 0 98 C0 73.91 0 49.82 0 25 C-5.94 25 -11.88 25 -18 25 C-18 23.35 -18 21.7 -18 20 C-12.06 20 -6.12 20 0 20 C0 13.4 0 6.8 0 0 Z " fill="#F1F1F0" transform="translate(621,287)"/>
<path d="M0 0 C1.32 0 2.64 0 4 0 C4.70820638 27.33940312 5.14765354 54.6512839 5 82 C0.05 82 -4.9 82 -10 82 C-10 79.03 -10 76.06 -10 73 C-8.02 73 -6.04 73 -4 73 C-4 62.77 -4 52.54 -4 42 C-2.68 42 -1.36 42 0 42 C0 28.14 0 14.28 0 0 Z " fill="#FBFAF9" transform="translate(540,343)"/>
<path d="M0 0 C0.33 0 0.66 0 1 0 C1 13.53 1 27.06 1 41 C53.14 41 105.28 41 159 41 C159 41.99 159 42.98 159 44 C106.53 44 54.06 44 0 44 C0 29.48 0 14.96 0 0 Z " fill="#6D99AC" transform="translate(544,344)"/>
<path d="M0 0 C25.41 0 50.82 0 77 0 C77 1.65 77 3.3 77 5 C51.26 5 25.52 5 -1 5 C-0.67 3.35 -0.34 1.7 0 0 Z " fill="#F1F1F1" transform="translate(720,254)"/>
<path d="M0 0 C1.65 0 3.3 0 5 0 C5 6.6 5 13.2 5 20 C17.54 20 30.08 20 43 20 C43 21.65 43 23.3 43 25 C30.46 25 17.92 25 5 25 C5 28.96 5 32.92 5 37 C3.35 37 1.7 37 0 37 C0 24.79 0 12.58 0 0 Z " fill="#F1F0EE" transform="translate(540,287)"/>
<path d="M0 0 C12.21 0 24.42 0 37 0 C37 2.97 37 5.94 37 9 C24.79 9 12.58 9 0 9 C0 6.03 0 3.06 0 0 Z " fill="#F8F7F6" transform="translate(406,416)"/>
<path d="M0 0 C12.21 0 24.42 0 37 0 C37 2.97 37 5.94 37 9 C24.79 9 12.58 9 0 9 C0 6.03 0 3.06 0 0 Z " fill="#F8F7F6" transform="translate(282,416)"/>
<path d="M0 0 C12.21 0 24.42 0 37 0 C37 2.97 37 5.94 37 9 C24.79 9 12.58 9 0 9 C0 6.03 0 3.06 0 0 Z " fill="#F8F7F6" transform="translate(158,416)"/>
<path d="M0 0 C0.33 0 0.66 0 1 0 C1 2.64 1 5.28 1 8 C-27.71 8 -56.42 8 -86 8 C-86 7.01 -86 6.02 -86 5 C-57.62 5 -29.24 5 0 5 C0 3.35 0 1.7 0 0 Z " fill="#6695A9" transform="translate(529,417)"/>
<path d="M0 0 C0.33 0 0.66 0 1 0 C1 2.64 1 5.28 1 8 C-27.71 8 -56.42 8 -86 8 C-86 7.01 -86 6.02 -86 5 C-57.62 5 -29.24 5 0 5 C0 3.35 0 1.7 0 0 Z " fill="#6695A9" transform="translate(405,417)"/>
<path d="M0 0 C0.33 0 0.66 0 1 0 C1 2.64 1 5.28 1 8 C-27.71 8 -56.42 8 -86 8 C-86 7.01 -86 6.02 -86 5 C-57.62 5 -29.24 5 0 5 C0 3.35 0 1.7 0 0 Z " fill="#6695A9" transform="translate(281,417)"/>
<path d="M0 0 C0.33 0 0.66 0 1 0 C1 2.64 1 5.28 1 8 C-27.71 8 -56.42 8 -86 8 C-86 7.01 -86 6.02 -86 5 C-57.62 5 -29.24 5 0 5 C0 3.35 0 1.7 0 0 Z " fill="#6695A9" transform="translate(157,417)"/>
<path d="M0 0 C28.71 0 57.42 0 87 0 C87 0.99 87 1.98 87 3 C58.29 3 29.58 3 0 3 C0 2.01 0 1.02 0 0 Z " fill="#629AB0" transform="translate(443,69)"/>
<path d="M0 0 C28.71 0 57.42 0 87 0 C87 0.99 87 1.98 87 3 C58.29 3 29.58 3 0 3 C0 2.01 0 1.02 0 0 Z " fill="#649BB4" transform="translate(319,69)"/>
<path d="M0 0 C12.87 0 25.74 0 39 0 C39 1.65 39 3.3 39 5 C26.13 5 13.26 5 0 5 C0 3.35 0 1.7 0 0 Z " fill="#8F8F8F" transform="translate(757,192)"/>
<path d="M0 0 C12.87 0 25.74 0 39 0 C39 1.65 39 3.3 39 5 C26.13 5 13.26 5 0 5 C0 3.35 0 1.7 0 0 Z " fill="#8F8F8F" transform="translate(680,192)"/>
<path d="M0 0 C12.87 0 25.74 0 39 0 C39 1.65 39 3.3 39 5 C26.13 5 13.26 5 0 5 C0 3.35 0 1.7 0 0 Z " fill="#8E8E8E" transform="translate(680,180)"/>
<path d="M0 0 C12.87 0 25.74 0 39 0 C39 1.65 39 3.3 39 5 C26.13 5 13.26 5 0 5 C0 3.35 0 1.7 0 0 Z " fill="#8B8B8B" transform="translate(680,161)"/>
<path d="M0 0 C12.87 0 25.74 0 39 0 C39 1.65 39 3.3 39 5 C26.13 5 13.26 5 0 5 C0 3.35 0 1.7 0 0 Z " fill="#909090" transform="translate(757,136)"/>
<path d="M0 0 C12.87 0 25.74 0 39 0 C39 1.65 39 3.3 39 5 C26.13 5 13.26 5 0 5 C0 3.35 0 1.7 0 0 Z " fill="#909090" transform="translate(680,136)"/>
<path d="M0 0 C12.87 0 25.74 0 39 0 C39 1.65 39 3.3 39 5 C26.13 5 13.26 5 0 5 C0 3.35 0 1.7 0 0 Z " fill="#8C8C8C" transform="translate(680,124)"/>
<path d="M0 0 C12.54 0 25.08 0 38 0 C38 1.65 38 3.3 38 5 C25.46 5 12.92 5 0 5 C0 3.35 0 1.7 0 0 Z " fill="#898989" transform="translate(680,217)"/>
<path d="M0 0 C12.54 0 25.08 0 38 0 C38 1.65 38 3.3 38 5 C25.46 5 12.92 5 0 5 C0 3.35 0 1.7 0 0 Z " fill="#898989" transform="translate(680,211)"/>
<path d="M0 0 C12.54 0 25.08 0 38 0 C38 1.65 38 3.3 38 5 C25.46 5 12.92 5 0 5 C0 3.35 0 1.7 0 0 Z " fill="#898989" transform="translate(758,186)"/>
<path d="M0 0 C12.54 0 25.08 0 38 0 C38 1.65 38 3.3 38 5 C25.46 5 12.92 5 0 5 C0 3.35 0 1.7 0 0 Z " fill="#898989" transform="translate(680,186)"/>
<path d="M0 0 C12.54 0 25.08 0 38 0 C38 1.65 38 3.3 38 5 C25.46 5 12.92 5 0 5 C0 3.35 0 1.7 0 0 Z " fill="#8D8D8D" transform="translate(758,180)"/>
<path d="M0 0 C12.54 0 25.08 0 38 0 C38 1.65 38 3.3 38 5 C25.46 5 12.92 5 0 5 C0 3.35 0 1.7 0 0 Z " fill="#8A8A8A" transform="translate(758,161)"/>
<path d="M0 0 C12.54 0 25.08 0 38 0 C38 1.65 38 3.3 38 5 C25.46 5 12.92 5 0 5 C0 3.35 0 1.7 0 0 Z " fill="#898989" transform="translate(758,155)"/>
<path d="M0 0 C12.54 0 25.08 0 38 0 C38 1.65 38 3.3 38 5 C25.46 5 12.92 5 0 5 C0 3.35 0 1.7 0 0 Z " fill="#898989" transform="translate(680,155)"/>
<path d="M0 0 C12.54 0 25.08 0 38 0 C38 1.65 38 3.3 38 5 C25.46 5 12.92 5 0 5 C0 3.35 0 1.7 0 0 Z " fill="#898989" transform="translate(758,130)"/>
<path d="M0 0 C12.54 0 25.08 0 38 0 C38 1.65 38 3.3 38 5 C25.46 5 12.92 5 0 5 C0 3.35 0 1.7 0 0 Z " fill="#898989" transform="translate(680,130)"/>
<path d="M0 0 C12.54 0 25.08 0 38 0 C38 1.65 38 3.3 38 5 C25.46 5 12.92 5 0 5 C0 3.35 0 1.7 0 0 Z " fill="#8C8C8C" transform="translate(758,124)"/>
<path d="M0 0 C12.54 0 25.08 0 38 0 C38 1.32 38 2.64 38 4 C25.46 4 12.92 4 0 4 C0 2.68 0 1.36 0 0 Z " fill="#898989" transform="translate(680,230)"/>
<path d="M0 0 C12.54 0 25.08 0 38 0 C38 1.32 38 2.64 38 4 C25.46 4 12.92 4 0 4 C0 2.68 0 1.36 0 0 Z " fill="#898989" transform="translate(680,224)"/>
<path d="M0 0 C12.54 0 25.08 0 38 0 C38 1.32 38 2.64 38 4 C25.46 4 12.92 4 0 4 C0 2.68 0 1.36 0 0 Z " fill="#898989" transform="translate(680,205)"/>
<path d="M0 0 C12.54 0 25.08 0 38 0 C38 1.32 38 2.64 38 4 C25.46 4 12.92 4 0 4 C0 2.68 0 1.36 0 0 Z " fill="#898989" transform="translate(680,199)"/>
<path d="M0 0 C12.54 0 25.08 0 38 0 C38 1.32 38 2.64 38 4 C25.46 4 12.92 4 0 4 C0 2.68 0 1.36 0 0 Z " fill="#898989" transform="translate(758,174)"/>
<path d="M0 0 C12.54 0 25.08 0 38 0 C38 1.32 38 2.64 38 4 C25.46 4 12.92 4 0 4 C0 2.68 0 1.36 0 0 Z " fill="#898989" transform="translate(680,174)"/>
<path d="M0 0 C12.54 0 25.08 0 38 0 C38 1.32 38 2.64 38 4 C25.46 4 12.92 4 0 4 C0 2.68 0 1.36 0 0 Z " fill="#898989" transform="translate(758,168)"/>
<path d="M0 0 C12.54 0 25.08 0 38 0 C38 1.32 38 2.64 38 4 C25.46 4 12.92 4 0 4 C0 2.68 0 1.36 0 0 Z " fill="#898989" transform="translate(680,168)"/>
<path d="M0 0 C12.54 0 25.08 0 38 0 C38 1.32 38 2.64 38 4 C25.46 4 12.92 4 0 4 C0 2.68 0 1.36 0 0 Z " fill="#898989" transform="translate(758,149)"/>
<path d="M0 0 C12.54 0 25.08 0 38 0 C38 1.32 38 2.64 38 4 C25.46 4 12.92 4 0 4 C0 2.68 0 1.36 0 0 Z " fill="#898989" transform="translate(680,149)"/>
<path d="M0 0 C12.54 0 25.08 0 38 0 C38 1.32 38 2.64 38 4 C25.46 4 12.92 4 0 4 C0 2.68 0 1.36 0 0 Z " fill="#898989" transform="translate(758,143)"/>
<path d="M0 0 C12.54 0 25.08 0 38 0 C38 1.32 38 2.64 38 4 C25.46 4 12.92 4 0 4 C0 2.68 0 1.36 0 0 Z " fill="#898989" transform="translate(680,143)"/>
<path d="M0 0 C16.5 0 33 0 50 0 C50 0.99 50 1.98 50 3 C33.5 3 17 3 0 3 C0 2.01 0 1.02 0 0 Z " fill="#639BB1" transform="translate(557,69)"/>
<path d="M0 0 C2.57161458 0.03255208 5.14322917 0.06510417 7.71484375 0.09765625 C7.71484375 4.38765625 7.71484375 8.67765625 7.71484375 13.09765625 C4.08484375 13.09765625 0.45484375 13.09765625 -3.28515625 13.09765625 C-3.31202178 11.11856227 -3.33149 9.13936654 -3.34765625 7.16015625 C-3.35925781 6.05800781 -3.37085938 4.95585937 -3.3828125 3.8203125 C-3.25076835 0.13892172 -3.25076835 0.13892172 0 0 Z " fill="#F3F3F3" transform="translate(916.28515625,369.90234375)"/>
<path d="M0 0 C2.57161458 0.03255208 5.14322917 0.06510417 7.71484375 0.09765625 C7.71484375 4.38765625 7.71484375 8.67765625 7.71484375 13.09765625 C4.08484375 13.09765625 0.45484375 13.09765625 -3.28515625 13.09765625 C-3.31202178 11.11856227 -3.33149 9.13936654 -3.34765625 7.16015625 C-3.35925781 6.05800781 -3.37085938 4.95585937 -3.3828125 3.8203125 C-3.25076835 0.13892172 -3.25076835 0.13892172 0 0 Z " fill="#F3F3F3" transform="translate(786.28515625,369.90234375)"/>
<path d="M0 0 C2.57161458 0.03255208 5.14322917 0.06510417 7.71484375 0.09765625 C7.71484375 4.38765625 7.71484375 8.67765625 7.71484375 13.09765625 C4.08484375 13.09765625 0.45484375 13.09765625 -3.28515625 13.09765625 C-3.31202178 11.11856227 -3.33149 9.13936654 -3.34765625 7.16015625 C-3.35925781 6.05800781 -3.37085938 4.95585937 -3.3828125 3.8203125 C-3.25076835 0.13892172 -3.25076835 0.13892172 0 0 Z " fill="#F3F3F3" transform="translate(655.28515625,369.90234375)"/>
<path d="M0 0 C7.71484375 -0.09765625 7.71484375 -0.09765625 10 0 C11 1 11 1 11.09765625 3.72265625 C11.08605469 4.82480469 11.07445312 5.92695313 11.0625 7.0625 C11.05347656 8.16722656 11.04445313 9.27195312 11.03515625 10.41015625 C11.02355469 11.26480469 11.01195312 12.11945313 11 13 C7.37 13 3.74 13 0 13 C0 8.71 0 4.42 0 0 Z " fill="#F3F0ED" transform="translate(420,370)"/>
<path d="M0 0 C7.71484375 -0.09765625 7.71484375 -0.09765625 10 0 C11 1 11 1 11.09765625 3.72265625 C11.08605469 4.82480469 11.07445312 5.92695313 11.0625 7.0625 C11.05347656 8.16722656 11.04445313 9.27195312 11.03515625 10.41015625 C11.02355469 11.26480469 11.01195312 12.11945313 11 13 C7.37 13 3.74 13 0 13 C0 8.71 0 4.42 0 0 Z " fill="#F4F1EE" transform="translate(295,370)"/>
<path d="M0 0 C7.71484375 -0.09765625 7.71484375 -0.09765625 10 0 C11 1 11 1 11.09765625 3.72265625 C11.08605469 4.82480469 11.07445312 5.92695313 11.0625 7.0625 C11.05347656 8.16722656 11.04445312 9.27195312 11.03515625 10.41015625 C11.02355469 11.26480469 11.01195312 12.11945313 11 13 C7.37 13 3.74 13 0 13 C0 8.71 0 4.42 0 0 Z " fill="#F4F1EE" transform="translate(171,370)"/>
</svg>
