<svg xmlns="http://www.w3.org/2000/svg" id="svg79" version="1.1" viewBox="0 0 931 425">
  <g id="layer1">
    <path id="path1" fill="#ad9578" d="M0 0h60v69h746v356H-76v-9h-49V296h49V69H0Zm9 9v60h25v4h17V9Zm546 63v3l7-2v-1zm-678 226v36h47v-36zm0 38v11h21v37h4v-48zm27 0v5h20v-5zm0 7v4h20v-4zm-27 6v4h19v-4zm27 0v4h20v-4zm-27 6v4h19v-4zm27 0v4h20v-4zm-27 6v4h19v-4zm27 0v4h20v-4zm-27 6v5h19v-5zm27 0v5h20v-5zm-27 7v4h19v-4zm27 0v4h20v-4zm-27 6v4h19v-4zm27 0v4h20v-4zm-27 6v28h47v-28z" transform="translate(125)"/>
    <path id="path2" fill="#6d4a4a" d="M0 0c2.6048-.081 5.207-.1405 7.8125-.1875l2.2363-.0762 8.9732.3315L19 7h3v16h-3v43h5V34h28v60H24V82h-5v24h3v19h-3v45h5v-35h99v12h9v139h-612v-8h-16v-75h57v-5h-3v-3h-2v-39h2v-4h184v-15h-3V98h2v-6h89v2H-7v58h5V94h5V77h-5V3h2z" transform="translate(799 139)"/>
    <path id="path3" fill="#85603b" d="M0 0h488v217h-9v-12h-99v35h-5v-45h3v-19h-3v-24h5v12h28v-60h-28v32h-5V93h3V77h-3v-4.7347L372 72v-2h-16v3h-2v74h5v17h-5v58h-5v-58H186v-2H97v6h-2v39h-2v10H-33V9H0Zm237 3v3l7-2V3Z" transform="translate(443 69)"/>
    <path id="path4" fill="#cacbcb" d="M0 0h277v217h-9v-12h-99v35h-5v-45h3v-19h-3v-24h5v12h28v-60h-28v32h-5V93h3V77h-3v-4.7806L161 72v-2h-16v3h-2v74h5v17h-5v58h-5v-58H12v-17h5V16h-4V9H0Zm26 3v3l7-2V3Z" transform="translate(654 69)"/>
    <path id="path5" fill="#6e4a4a" d="M0 0h17v5h12v100h3v39h-3v42h3v19h-3v17h3v39h-3v3h-54v5h54v75H-1v8h-87v-8h-14v-75h57v-5h-57v-7h-8v-21h8v-17h98v-24h-3v-19h3v-32h-3v-39h3V72h-3V43h3V5h3z" transform="translate(159 73)"/>
    <path id="path6" fill="#74485c" d="M0 0h72v2h19V0h113v2h19V0h152v5h-82v75h18v8H26v-8h16V5H0V0Z" transform="translate(380 337)"/>
    <path id="path7" fill="#ac9578" d="M0 0h68v96h25v4h2v39h3v32h-3v19h3v24H0v17h-8v-11h-47v36h47v-4h8v7h57v5H0v75h14v8H-8v-9h-49V218h49V32l8 1V0Zm-55 258v11h21v37h4v-48h-25zm27 0v5h20v-5h-20zm0 7v4h20v-4h-20zm-27 6v4h19v-4h-19zm27 0v4h20v-4h-20zm-27 6v4h19v-4h-19zm27 0v4h20v-4h-20zm-27 6v4h19v-4h-19zm27 0v4h20v-4h-20zm-27 6v5h19v-5h-19zm27 0v5h20v-5h-20zm-27 7v4h19v-4h-19zm27 0v4h20v-4h-20zm-27 6v4h19v-4h-19zm27 0v4h20v-4h-20zm-27 6v28h47v-28h-47z" transform="translate(57 78)"/>
    <path id="path8" fill="#84603b" d="M0 0h87v9h13v7h4v131h-5v17H62v-2h-88V9H0V0Z" transform="translate(567 69)"/>
    <path id="path9" fill="#74475c" d="M0 0h99v12h9v139H-45v-8h14V68h-17v-5h43v-9h2V35h3V0Z" transform="translate(823 274)"/>
    <path id="path10" fill="#009de3" d="M0 0h65v4h5V0h29l1 12h8v132h-9v-12H0v35h-5v-45h3v-19h-3V79h5v12h28V31H0v32h-5V20h3V4h2V0Z" transform="translate(823 142)"/>
    <path id="path11" fill="#74485c" d="M0 0h152v5H70v75h18v8H-36v-8h-16V5h33V2H0V0Z" transform="translate(603 337)"/>
    <path id="path12" fill="#75475b" d="m0 0 1 2h19v3h54v75H44v8h-87v-8h-14V5H0V0Z" transform="translate(114 337)"/>
    <path id="path13" fill="#dfdb0a" d="M0 0h8v28h93v-8h5v32h-3v19h3v24H8v17H0v-11h-47v36H0v-4h8v7h57v5H8v75h14v8H0v-9h-49V99H0V0Zm-47 139v11h21v37h4v-48h-25zm27 0v5H0v-5h-20zm0 7v4H0v-4h-20zm-27 6v4h19v-4h-19zm27 0v4H0v-4h-20zm-27 6v4h19v-4h-19zm27 0v4H0v-4h-20zm-27 6v4h19v-4h-19zm27 0v4H0v-4h-20zm-27 6v5h19v-5h-19zm27 0v5H0v-5h-20zm-27 7v4h19v-4h-19zm27 0v4H0v-4h-20zm-27 6v4h19v-4h-19zm27 0v4H0v-4h-20zm-27 6v28H0v-28h-47z" transform="translate(49 197)"/>
    <path id="path14" fill="#74485c" d="M0 0h1v5h17v75H4v8h-87v-8h-18V5h82V2H0V0Z" transform="translate(774 337)"/>
    <path id="path15" fill="#74485c" d="M0 0h1v5h42v75H27v8h-87v-8h-16V5h57V2H0V0Z" transform="translate(379 337)"/>
    <path id="path16" fill="#dfdb0a" d="m0 0 87.0103-.0918v6L112 6v59H5v2h-16v-2h-2V6H0Z" transform="translate(810 72)"/>
    <path id="path17" fill="#faf9f9" d="M0 0h60v69h10v9h-2v100h-5V78H51V9H9v60h25l.102 8.9082L30 78v38h-3v29h3v33h-5v-4H0V78h-68v33l-8 .2988V69H0Z" transform="translate(125)"/>
    <path id="path18" fill="#888" d="M0 0h89v9h23v35H-4V9h4z" transform="translate(680 69)"/>
    <path id="path19" fill="#009de3" d="M0 0h65v4h5V0h29l1 12h8v24H88l1 4 10 1v19H70V41h2v-5h-2V20h-5v40H33V26H0v-6h-2V4h2z" transform="translate(823 142)"/>
    <path id="path20" fill="#d6d7d7" d="M0 0h8v28h93v-8h5v32h-5V32H8v58h93V71h5v24H8v17H0v-11h-47v36H0v-4h8v7h57v5H8v75h14v8H0v-9h-49V99H0V0Zm-47 139v11h21v37h4v-48h-25zm27 0v5H0v-5h-20zm0 7v4H0v-4h-20zm-27 6v4h19v-4h-19zm27 0v4H0v-4h-20zm-27 6v4h19v-4h-19zm27 0v4H0v-4h-20zm-27 6v4h19v-4h-19zm27 0v4H0v-4h-20zm-27 6v5h19v-5h-19zm27 0v5H0v-5h-20zm-27 7v4h19v-4h-19zm27 0v4H0v-4h-20zm-27 6v4h19v-4h-19zm27 0v4H0v-4h-20zm-27 6v28H0v-28h-47z" transform="translate(49 197)"/>
    <path id="path21" fill="#898989" d="M0 0h116v34H78v4H39v-4H0V0Z" transform="translate(676 195)"/>
    <path id="path22" fill="#898989" d="M0 0h36v80h-76V56H0V0Z" transform="translate(716 114)"/>
    <path id="path23" fill="#f6f4f2" d="M0 0h162v85h-9V73h-29v4h-5v-4H54v4h-5l-.1837-4.8266L46 72v-4h107V9l-24.9438-.0918v-6L41 3v6H28v59h2v5h-2v74h5v17h-5v58h-5v-58h-38v-4h38V9H0Z" transform="translate(769 69)"/>
    <path id="path24" fill="#cccdcd" d="M0 0h26v9h-4v116h76V75h40v51H22v34h39v4H12v-17h5V16h-4V9H0V0Z" transform="translate(654 69)"/>
    <path id="path25" fill="#f6f4f2" d="M-1.194.0918 37 0v9H4v208h126v-10h5v15H-49v4h-4v-9h52z" transform="translate(406 69)"/>
    <path id="path26" fill="#ecf5f9" d="M0 0h5v6h33v34h32V0h5v16h2v5h-2v19h29V21H94l-1-5h20v67l-8.8194-.1172L104 69H94l-.0816-4.9082L104 64V45H75v19h2v5h-7V45H38v30H5v8H0V59h5v12h28V11H5v32H0Z" transform="translate(818 162)"/>
    <path id="path27" fill="#faf9f8" d="M0 0h8v28h93v-8h5v32h-5V32H8v58h93V71h5v24H8v17H0V0Z" transform="translate(49 197)"/>
    <path id="path28" fill="#dfdb0d" d="M0 0h21v38h2v29h-2v24H0V0Z" transform="translate(129 78)"/>
    <path id="path29" fill="#545b1f" d="M0 0h28v60H0V48h-3V32h3V0Z" transform="translate(823 173)"/>
    <path id="path30" fill="#f6faf8" d="M0 0h34v85h-9V73H-4v4h-5v-4h-65v4h-5l.046-4.7347L-82 72v-4H25V9L.039 8.8701Z" transform="translate(897 69)"/>
    <path id="path31" fill="#f2eff0" d="M0 0h151v5H69v75h18v8H50v-8h14V5H0V0Z" transform="translate(604 337)"/>
    <path id="path32" fill="#f6f4f5" d="M0 0h9v90h-29v-8H0V7h-78V2H0V0Z" transform="translate(922 335)"/>
    <path id="path33" fill="#fcfbfa" d="m-1.5586-1.039 5.2988-.2598L4 7h110v70h-5V15H4v26.2988l-5.2988.2598z" transform="translate(189 218)"/>
    <path id="path34" fill="#f7f6f4" d="M-1.169 0H26v9h-4v151h39v4H12v-17h5V16h-4V9H-1.169Z" transform="translate(654 69)"/>
    <path id="path35" fill="#f3eff1" d="M0 0h112v5H79v75h16v8H58v-8h16V5H0V0Z" transform="translate(472 337)"/>
    <path id="path36" fill="#faf9f9" d="M0 0h8v7h57v5H8v75h14v8H0V0Z" transform="translate(49 330)"/>
    <path id="path37" fill="#f6f4f2" d="M-1.039 0H37v9H11l.039 158.7402L6 168V9h-7.039z" transform="translate(530 69)"/>
    <path id="path38" fill="#f3f0f1" d="M0 0h72v5H47v75h16v8H26v-8h16V5H0V0Z" transform="translate(380 337)"/>
    <path id="path39" fill="#f6f4f5" d="M0 0h5v3h50V0h4v3h3v5H5v75h16v8l-37.7793-.1299L-17 83H0Z" transform="translate(298 334)"/>
    <path id="path40" fill="#f6f4f4" d="M0 0h5v83h2v8h-37v-8H0V8h-54V3H0V0Z" transform="translate(188 334)"/>
    <path id="path41" fill="#f4f0f2" d="M0 0h5v9h2v5h-28v75h18v8h-37v-8h14V14h-17V9H0V0Z" transform="translate(818 328)"/>
    <path id="path42" fill="#f3f1f3" d="M0 0h5v5h108v17h-9V10H5v35H0V0Z" transform="translate(818 264)"/>
    <path id="path43" fill="#bebebe" d="M0 0h39v12H0V0Z" transform="translate(753 176)"/>
    <path id="path44" fill="#bebebe" d="M0 0h39v12H0V0Z" transform="translate(676 120)"/>
    <path id="path45" fill="#f9f9f9" d="M0 0h37v9H.102Z" transform="translate(282 69)"/>
    <path id="path46" fill="#6392ae" d="M0 0h89l-.0816 3H0Z" transform="translate(680 69)"/>
    <path id="path47" fill="#6392ad" d="m0 0 86.0908.1299L86 3H0Z" transform="translate(567 69)"/>
    <path id="path48" fill="#6392ad" d="m0 0 85.831.1299L86 3H0Z" transform="translate(443 69)"/>
    <path id="path49" fill="#6191ad" d="M0 0h87v3H0V0Z" transform="translate(810 69)"/>
    <path id="path50" fill="#6191ad" d="m0 0 85.898.0918v3L0 3Z" transform="translate(319 69)"/>
    <path id="path51" fill="#6191ad" d="M0 0h87v3H0V0Z" transform="translate(195 69)"/>
    <path id="path52" fill="#8f8f8f" d="M0 0h39v5H0V0Z" transform="translate(753 189)"/>
    <path id="path53" fill="#8f8f8f" d="M0 0h39v5H0V0Z" transform="translate(753 145)"/>
    <path id="path54" fill="#8f8f8f" d="m0 0 38.0908.1299v5L0 5Z" transform="translate(676 145)"/>
    <path id="path55" fill="#8e8e8e" d="M0 0h38.0908v5H0Z" transform="translate(676 133)"/>
    <path id="path56" fill="#8b8b8b" d="M0 0h39v5H0V0Z" transform="translate(676 114)"/>
    <path id="path57" fill="#898989" d="M0 0h38v5H0V0Z" transform="translate(754 170)"/>
    <path id="path58" fill="#898989" d="M0 0h38v5H0V0Z" transform="translate(754 164)"/>
    <path id="path59" fill="#898989" d="M0 0h38v5H0V0Z" transform="translate(676 164)"/>
    <path id="path60" fill="#898989" d="M0 0h38v5H0V0Z" transform="translate(754 139)"/>
    <path id="path61" fill="#898989" d="M0 0h38v5H0V0Z" transform="translate(676 139)"/>
    <path id="path62" fill="#8d8d8d" d="M0 0h38v5H0V0Z" transform="translate(754 133)"/>
    <path id="path63" fill="#8a8a8a" d="M0 0h38v5H0V0Z" transform="translate(754 114)"/>
    <path id="path64" fill="#6399b3" d="M.8701 4.9355 1 8h-87V5Z" transform="translate(157 417)"/>
    <path id="path65" fill="#cfd0d0" d="M0 0h2v5h38v1H1v12h39v1H2v5h38v1H2v5H0V0Z" transform="translate(752 114)"/>
    <path id="path66" fill="#6793ac" d="M8 0v49H5L4.935.0908Z" transform="translate(923 286)"/>
    <path id="path67" fill="#898989" d="M0 0h38v4H0V0Z" transform="translate(754 183)"/>
    <path id="path68" fill="#898989" d="M0 0h38v4H0V0Z" transform="translate(754 177)"/>
    <path id="path69" fill="#898989" d="M0 0h38v4H0V0Z" transform="translate(754 158)"/>
    <path id="path70" fill="#898989" d="M0 0h38v4H0V0Z" transform="translate(676 158)"/>
    <path id="path71" fill="#898989" d="M0 0h38v4H0V0Z" transform="translate(754 152)"/>
    <path id="path72" fill="#898989" d="M0 0h38v4H0V0Z" transform="translate(676 152)"/>
    <path id="path73" fill="#898989" d="M0 0h38v4H0V0Z" transform="translate(754 127)"/>
    <path id="path74" fill="#898989" d="M0 0h38v4H0V0Z" transform="translate(676 127)"/>
    <path id="path75" fill="#898989" d="M0 0h38v4H0V0Z" transform="translate(754 121)"/>
    <path id="path76" fill="#898989" d="M0 0h38v4H0V0Z" transform="translate(676 121)"/>
    <path id="path77" fill="#599ab7" d="M-1.102 0H2v24h-3c-.0289-3.8125-.0468-7.625-.0625-11.4375l-.0254-3.2988-.0098-3.1348-.0158-2.904Z" transform="translate(929 245)"/>
    <path id="path78" fill="#599ab7" d="M-1.102.023 2 0v24h-3c-.0289-3.8125-.0468-7.625-.0625-11.4375l-.0254-3.2988-.0098-3.1348-.0158-2.904Z" transform="translate(929 154)"/>
    <path id="path79" fill="#faf9f8" stroke-width="1" d="M188.2207 278H193v19.1172h-4.7793V278z"/>
  </g>
  <path id="sv01" fill="#fff" stroke="#000" stroke-dasharray="none" stroke-linecap="round" stroke-linejoin="round" stroke-width="0" d="M834.582 118.793a9 9 0 0 1-8.9796 9 9 9 0 0 1-9.0203-8.9593 9 9 0 0 1 8.9389-9.0405 9 9 0 0 1 9.0607 8.9184" paint-order="markers fill stroke"/>
  <path id="sv02" fill="#fff" stroke="#000" stroke-dasharray="none" stroke-linecap="round" stroke-linejoin="round" stroke-width="0" d="M899.3125 118.793a9 9 0 0 1-8.9796 9 9 9 0 0 1-9.0203-8.9593 9 9 0 0 1 8.9389-9.0405 9 9 0 0 1 9.0606 8.9184" paint-order="markers fill stroke"/>
  <path id="sv03" fill="#fff" stroke="#000" stroke-dasharray="none" stroke-linecap="round" stroke-linejoin="round" stroke-width="0" d="M846.3516 155.793a9 9 0 0 1-8.9797 9 9 9 0 0 1-9.0203-8.9593 9 9 0 0 1 8.939-9.0405 9 9 0 0 1 9.0606 8.9184" paint-order="markers fill stroke"/>
  <path id="sv04" fill="#fff" stroke="#000" stroke-dasharray="none" stroke-linecap="round" stroke-linejoin="round" stroke-width="0" d="M878.4766 187.6523a9 9 0 0 1-8.9797 9 9 9 0 0 1-9.0203-8.9593 9 9 0 0 1 8.939-9.0405 9 9 0 0 1 9.0606 8.9185" paint-order="markers fill stroke"/>
  <path id="sv05" fill="#fff" stroke="#000" stroke-dasharray="none" stroke-linecap="round" stroke-linejoin="round" stroke-width="0" d="M916.5234 155.793a9 9 0 0 1-8.9796 9 9 9 0 0 1-9.0203-8.9593 9 9 0 0 1 8.9389-9.0405 9 9 0 0 1 9.0607 8.9184" paint-order="markers fill stroke"/>
  <path id="sv06" fill="#fff" stroke="#000" stroke-dasharray="none" stroke-linecap="round" stroke-linejoin="round" stroke-width="0" d="M915.0898 191.25a9 9 0 0 1-8.9796 9 9 9 0 0 1-9.0203-8.9593 9 9 0 0 1 8.939-9.0405 9 9 0 0 1 9.0606 8.9184" paint-order="markers fill stroke"/>
  <path id="sv07" fill="#fff" stroke="#000" stroke-dasharray="none" stroke-linecap="round" stroke-linejoin="round" stroke-width="0" d="M845.3633 216.9883a9 9 0 0 1-8.9797 9 9 9 0 0 1-9.0202-8.9593 9 9 0 0 1 8.9389-9.0405 9 9 0 0 1 9.0606 8.9184" paint-order="markers fill stroke"/>
  <path id="sv08" fill="#fff" stroke="#000" stroke-dasharray="none" stroke-linecap="round" stroke-linejoin="round" stroke-width="0" d="M845.3633 253.9375a9 9 0 0 1-8.9797 9 9 9 0 0 1-9.0202-8.9593 9 9 0 0 1 8.9389-9.0405 9 9 0 0 1 9.0606 8.9184" paint-order="markers fill stroke"/>
  <path id="sv09" fill="#fff" stroke="#000" stroke-dasharray="none" stroke-linecap="round" stroke-linejoin="round" stroke-width="0" d="M878.4766 241.4023a9 9 0 0 1-8.9797 9 9 9 0 0 1-9.0203-8.9593 9 9 0 0 1 8.939-9.0405 9 9 0 0 1 9.0606 8.9185" paint-order="markers fill stroke"/>
  <path id="sv10" fill="#fff" stroke="#000" stroke-dasharray="none" stroke-linecap="round" stroke-linejoin="round" stroke-width="0" d="M915.0898 216.8672a9 9 0 0 1-8.9796 9 9 9 0 0 1-9.0203-8.9593 9 9 0 0 1 8.939-9.0405 9 9 0 0 1 9.0606 8.9184" paint-order="markers fill stroke"/>
  <path id="sv11" fill="#fff" stroke="#000" stroke-dasharray="none" stroke-linecap="round" stroke-linejoin="round" stroke-width="0" d="M816.0977 170.4414a9 9 0 0 1-8.9797 9 9 9 0 0 1-9.0203-8.9593 9 9 0 0 1 8.939-9.0405 9 9 0 0 1 9.0606 8.9184" paint-order="markers fill stroke"/>
  <path id="sv12" fill="#fff" stroke="#000" stroke-dasharray="none" stroke-linecap="round" stroke-linejoin="round" stroke-width="0" d="M869.9922 315.9102a9 9 0 0 1-8.9797 9 9 9 0 0 1-9.0202-8.9593 9 9 0 0 1 8.9389-9.0405 9 9 0 0 1 9.0606 8.9184" paint-order="markers fill stroke"/>
  <path id="sv13" fill="#fff" stroke="#000" stroke-dasharray="none" stroke-linecap="round" stroke-linejoin="round" stroke-width="0" d="M918.9648 315.9102a9 9 0 0 1-8.9796 9 9 9 0 0 1-9.0203-8.9593 9 9 0 0 1 8.939-9.0405 9 9 0 0 1 9.0606 8.9184" paint-order="markers fill stroke"/>
  <path id="sv14" fill="#fff" stroke="#000" stroke-dasharray="none" stroke-linecap="round" stroke-linejoin="round" stroke-width="0" d="M832.7628 394.5468a9 9 0 0 1-8.9796 9 9 9 0 0 1-9.0203-8.9593 9 9 0 0 1 8.9389-9.0404 9 9 0 0 1 9.0606 8.9184" paint-order="markers fill stroke"/>
  <path id="sv15" fill="#fff" stroke="#000" stroke-dasharray="none" stroke-linecap="round" stroke-linejoin="round" stroke-width="0" d="M893.5696 394.5468a9 9 0 0 1-8.9797 9 9 9 0 0 1-9.0202-8.9593 9 9 0 0 1 8.9388-9.0404 9 9 0 0 1 9.0607 8.9184" paint-order="markers fill stroke"/>
  <path id="sv16" fill="#fff" stroke="#000" stroke-dasharray="none" stroke-linecap="round" stroke-linejoin="round" stroke-width="0" d="M771.956 394.5468a9 9 0 0 1-8.9796 9 9 9 0 0 1-9.0203-8.9593 9 9 0 0 1 8.939-9.0404 9 9 0 0 1 9.0606 8.9184" paint-order="markers fill stroke"/>
  <path id="sv17" fill="#fff" stroke="#000" stroke-dasharray="none" stroke-linecap="round" stroke-linejoin="round" stroke-width="0" d="M711.1492 394.5468a9 9 0 0 1-8.9796 9 9 9 0 0 1-9.0203-8.9593 9 9 0 0 1 8.9389-9.0404 9 9 0 0 1 9.0607 8.9184" paint-order="markers fill stroke"/>
  <path id="sv18" fill="#fff" stroke="#000" stroke-dasharray="none" stroke-linecap="round" stroke-linejoin="round" stroke-width="0" d="M589.5357 394.5468a9 9 0 0 1-8.9797 9 9 9 0 0 1-9.0202-8.9593 9 9 0 0 1 8.9389-9.0404 9 9 0 0 1 9.0606 8.9184" paint-order="markers fill stroke"/>
  <path id="sv19" fill="#fff" stroke="#000" stroke-dasharray="none" stroke-linecap="round" stroke-linejoin="round" stroke-width="0" d="M650.3425 394.5468a9 9 0 0 1-8.9797 9 9 9 0 0 1-9.0202-8.9593 9 9 0 0 1 8.9388-9.0404 9 9 0 0 1 9.0607 8.9184" paint-order="markers fill stroke"/>
  <path id="sv20" fill="#fff" stroke="#000" stroke-dasharray="none" stroke-linecap="round" stroke-linejoin="round" stroke-width="0" d="M467.9221 394.5468a9 9 0 0 1-8.9796 9 9 9 0 0 1-9.0203-8.9593 9 9 0 0 1 8.939-9.0404 9 9 0 0 1 9.0606 8.9184" paint-order="markers fill stroke"/>
  <path id="sv21" fill="#fff" stroke="#000" stroke-dasharray="none" stroke-linecap="round" stroke-linejoin="round" stroke-width="0" d="M528.729 394.5468a9 9 0 0 1-8.9797 9 9 9 0 0 1-9.0203-8.9593 9 9 0 0 1 8.939-9.0404 9 9 0 0 1 9.0606 8.9184" paint-order="markers fill stroke"/>
  <path id="sv22" fill="#fff" stroke="#000" stroke-dasharray="none" stroke-linecap="round" stroke-linejoin="round" stroke-width="0" d="M346.3086 394.5468a9 9 0 0 1-8.9797 9 9 9 0 0 1-9.0202-8.9593 9 9 0 0 1 8.9389-9.0404 9 9 0 0 1 9.0606 8.9184" paint-order="markers fill stroke"/>
  <path id="sv23" fill="#fff" stroke="#000" stroke-dasharray="none" stroke-linecap="round" stroke-linejoin="round" stroke-width="0" d="M407.1154 394.5468a9 9 0 0 1-8.9797 9 9 9 0 0 1-9.0203-8.9593 9 9 0 0 1 8.939-9.0404 9 9 0 0 1 9.0606 8.9184" paint-order="markers fill stroke"/>
  <path id="sv24-a" fill="#fff" stroke="#000" stroke-dasharray="none" stroke-linecap="round" stroke-linejoin="round" stroke-width="0" d="M279.7482 394.5468a9 9 0 0 1-8.9797 9 9 9 0 0 1-9.0202-8.9593 9 9 0 0 1 8.9389-9.0404 9 9 0 0 1 9.0606 8.9184" paint-order="markers fill stroke"/>
  <path id="sv24-b" fill="#fff" stroke="#000" stroke-dasharray="none" stroke-linecap="round" stroke-linejoin="round" stroke-width="0" d="M231.4318 394.5468a9 9 0 0 1-8.9796 9 9 9 0 0 1-9.0203-8.9593 9 9 0 0 1 8.9389-9.0404 9 9 0 0 1 9.0606 8.9184" paint-order="markers fill stroke"/>
  <path id="sv26" fill="#fff" stroke="#000" stroke-dasharray="none" stroke-linecap="round" stroke-linejoin="round" stroke-width="0" d="M253.1246 277.6879a9 9 0 0 1-8.9796 9 9 9 0 0 1-9.0203-8.9593 9 9 0 0 1 8.9389-9.0405 9 9 0 0 1 9.0606 8.9184" paint-order="markers fill stroke"/>
  <path id="sv27" fill="#fff" stroke="#000" stroke-dasharray="none" stroke-linecap="round" stroke-linejoin="round" stroke-width="0" d="M166.5366 394.5468a9 9 0 0 1-8.9797 9 9 9 0 0 1-9.0202-8.9593 9 9 0 0 1 8.9388-9.0404 9 9 0 0 1 9.0607 8.9184" paint-order="markers fill stroke"/>
  <path id="sv28" fill="#fff" stroke="#000" stroke-dasharray="none" stroke-linecap="round" stroke-linejoin="round" stroke-width="0" d="M95.3295 394.5468a9 9 0 0 1-8.9796 9 9 9 0 0 1-9.0203-8.9593 9 9 0 0 1 8.9389-9.0404 9 9 0 0 1 9.0607 8.9184" paint-order="markers fill stroke"/>
  <path id="sv29" fill="#fff" stroke="#000" stroke-dasharray="none" stroke-linecap="round" stroke-linejoin="round" stroke-width="0" d="M131.0781 314.8438a9 9 0 0 1-8.9796 9 9 9 0 0 1-9.0203-8.9594 9 9 0 0 1 8.9389-9.0404 9 9 0 0 1 9.0607 8.9184" paint-order="markers fill stroke"/>
  <path id="sv30" fill="#fff" stroke="#000" stroke-dasharray="none" stroke-linecap="round" stroke-linejoin="round" stroke-width="0" d="M114.2617 259.3047a9 9 0 0 1-8.9796 9 9 9 0 0 1-9.0203-8.9593 9 9 0 0 1 8.9389-9.0405 9 9 0 0 1 9.0606 8.9184" paint-order="markers fill stroke"/>
  <path id="sv31" fill="#fff" stroke="#000" stroke-dasharray="none" stroke-linecap="round" stroke-linejoin="round" stroke-width="0" d="M101.3872 188.0195a9 9 0 0 1-8.9797 9 9 9 0 0 1-9.0203-8.9593 9 9 0 0 1 8.939-9.0405 9 9 0 0 1 9.0606 8.9184" paint-order="markers fill stroke"/>
  <path id="sv32" fill="#fff" stroke="#000" stroke-dasharray="none" stroke-linecap="round" stroke-linejoin="round" stroke-width="0" d="M101.3872 127.863a9 9 0 0 1-8.9797 9 9 9 0 0 1-9.0203-8.9593 9 9 0 0 1 8.939-9.0405 9 9 0 0 1 9.0606 8.9184" paint-order="markers fill stroke"/>
  <path id="sv33" fill="#fff" stroke="#000" stroke-dasharray="none" stroke-linecap="round" stroke-linejoin="round" stroke-width="0" d="M149.289 127.9649a9 9 0 0 1-8.9796 9 9 9 0 0 1-9.0202-8.9593 9 9 0 0 1 8.9388-9.0405 9 9 0 0 1 9.0607 8.9184" paint-order="markers fill stroke"/>
  <path id="sv34" fill="#fff" stroke="#000" stroke-dasharray="none" stroke-linecap="round" stroke-linejoin="round" stroke-width="0" d="M180.5742 188.746a9 9 0 0 1-8.9796 9 9 9 0 0 1-9.0203-8.9592 9 9 0 0 1 8.9389-9.0405 9 9 0 0 1 9.0606 8.9184" paint-order="markers fill stroke"/>
  <path id="sv35" fill="#fff" stroke="#000" stroke-dasharray="none" stroke-linecap="round" stroke-linejoin="round" stroke-width="0" d="M242.5916 140.3159a9 9 0 0 1-8.9796 9 9 9 0 0 1-9.0203-8.9594 9 9 0 0 1 8.9389-9.0404 9 9 0 0 1 9.0607 8.9184" paint-order="markers fill stroke"/>
  <path id="sv36" fill="#fff" stroke="#000" stroke-dasharray="none" stroke-linecap="round" stroke-linejoin="round" stroke-width="0" d="M369.5956 140.3159a9 9 0 0 1-8.9797 9 9 9 0 0 1-9.0203-8.9594 9 9 0 0 1 8.939-9.0404 9 9 0 0 1 9.0606 8.9184" paint-order="markers fill stroke"/>
  <path id="sv37" fill="#fff" stroke="#000" stroke-dasharray="none" stroke-linecap="round" stroke-linejoin="round" stroke-width="0" d="M306.0936 140.3159a9 9 0 0 1-8.9797 9 9 9 0 0 1-9.0202-8.9594 9 9 0 0 1 8.9389-9.0404 9 9 0 0 1 9.0606 8.9184" paint-order="markers fill stroke"/>
  <path id="sv38" fill="#fff" stroke="#000" stroke-dasharray="none" stroke-linecap="round" stroke-linejoin="round" stroke-width="0" d="M447.8778 140.3159a9 9 0 0 1-8.9796 9 9 9 0 0 1-9.0203-8.9594 9 9 0 0 1 8.9389-9.0404 9 9 0 0 1 9.0607 8.9184" paint-order="markers fill stroke"/>
  <path id="sv39" fill="#fff" stroke="#000" stroke-dasharray="none" stroke-linecap="round" stroke-linejoin="round" stroke-width="0" d="M518.8778 140.3159a9 9 0 0 1-8.9796 9 9 9 0 0 1-9.0203-8.9594 9 9 0 0 1 8.9389-9.0404 9 9 0 0 1 9.0607 8.9184" paint-order="markers fill stroke"/>
  <path id="sv40" fill="#fff" stroke="#000" stroke-dasharray="none" stroke-linecap="round" stroke-linejoin="round" stroke-width="0" d="M483.3778 249.7138a9 9 0 0 1-8.9796 9 9 9 0 0 1-9.0203-8.9593 9 9 0 0 1 8.9389-9.0405 9 9 0 0 1 9.0607 8.9184" paint-order="markers fill stroke"/>
  <path id="sv41" fill="#fff" stroke="#000" stroke-dasharray="none" stroke-linecap="round" stroke-linejoin="round" stroke-width="0" d="M741.5 213a9 9 0 0 1-8.9796 9 9 9 0 0 1-9.0203-8.9593 9 9 0 0 1 8.9389-9.0405 9 9 0 0 1 9.0606 8.9184" paint-order="markers fill stroke"/>
  <path id="sv42" fill="#fff" stroke="#000" stroke-dasharray="none" stroke-linecap="round" stroke-linejoin="round" stroke-width="0" d="M741.5 88a9 9 0 0 1-8.9796 9 9 9 0 0 1-9.0203-8.9593 9 9 0 0 1 8.9389-9.0405 9 9 0 0 1 9.0606 8.9184" paint-order="markers fill stroke"/>
</svg>
