<?xml version="1.0" encoding="UTF-8"?>
<!DOCTYPE svg PUBLIC "-//W3C//DTD SVG 1.1//EN" "http://www.w3.org/Graphics/SVG/1.1/DTD/svg11.dtd">
<svg xmlns="http://www.w3.org/2000/svg" version="1.1" width="931px" height="425px" style="shape-rendering:geometricPrecision; text-rendering:geometricPrecision; image-rendering:optimizeQuality; fill-rule:evenodd; clip-rule:evenodd" xmlns:xlink="http://www.w3.org/1999/xlink">
<g><path style="opacity:0.934" fill="#fdfdfd" d="M 124.5,-0.5 C 144.5,-0.5 164.5,-0.5 184.5,-0.5C 184.5,22.5 184.5,45.5 184.5,68.5C 186.833,68.5 189.167,68.5 191.5,68.5C 191.5,71.5 191.5,74.5 191.5,77.5C 186.167,77.5 180.833,77.5 175.5,77.5C 175.5,74.5 175.5,71.5 175.5,68.5C 175.5,48.5 175.5,28.5 175.5,8.5C 161.5,8.5 147.5,8.5 133.5,8.5C 133.5,28.5 133.5,48.5 133.5,68.5C 132.523,71.2869 132.19,74.2869 132.5,77.5C 127.5,77.5 122.5,77.5 117.5,77.5C 117.5,74.5 117.5,71.5 117.5,68.5C 119.833,68.5 122.167,68.5 124.5,68.5C 124.5,45.5 124.5,22.5 124.5,-0.5 Z M 175.5,68.5 C 161.5,68.5 147.5,68.5 133.5,68.5C 133.5,48.5 133.5,28.5 133.5,8.5C 147.5,8.5 161.5,8.5 175.5,8.5C 175.5,28.5 175.5,48.5 175.5,68.5 Z"/></g>
<g><path style="opacity:0.974" fill="#fdfdfd" d="M 70.5,68.5 C 70.5,71.5 70.5,74.5 70.5,77.5C 65.5,77.5 60.5,77.5 55.5,77.5C 55.5,93.8333 55.5,110.167 55.5,126.5C 52.8333,126.5 50.1667,126.5 47.5,126.5C 47.5,107.167 47.5,87.8333 47.5,68.5C 55.1667,68.5 62.8333,68.5 70.5,68.5 Z"/></g>
<g><path style="opacity:0.933" fill="#fcfcfc" d="M 238.5,68.5 C 265.167,68.5 291.833,68.5 318.5,68.5C 318.5,69.5 318.5,70.5 318.5,71.5C 318.5,73.5 318.5,75.5 318.5,77.5C 291.833,77.5 265.167,77.5 238.5,77.5C 238.5,74.5 238.5,71.5 238.5,68.5 Z"/></g>
<g><path style="opacity:0.68" fill="#639bb3" d="M 318.5,68.5 C 347.5,68.5 376.5,68.5 405.5,68.5C 405.737,69.791 405.404,70.791 404.5,71.5C 375.833,71.5 347.167,71.5 318.5,71.5C 318.5,70.5 318.5,69.5 318.5,68.5 Z"/></g>
<g><path style="opacity:0.955" fill="#fafaf8" d="M 405.5,68.5 C 417.833,68.5 430.167,68.5 442.5,68.5C 442.5,69.5 442.5,70.5 442.5,71.5C 442.5,73.5 442.5,75.5 442.5,77.5C 431.5,77.5 420.5,77.5 409.5,77.5C 410.157,103.189 409.491,128.522 407.5,153.5C 406.5,153.5 405.5,153.5 404.5,153.5C 404.5,126.167 404.5,98.8333 404.5,71.5C 405.404,70.791 405.737,69.791 405.5,68.5 Z"/></g>
<g><path style="opacity:0.68" fill="#629ab1" d="M 442.5,68.5 C 471.5,68.5 500.5,68.5 529.5,68.5C 529.5,69.5 529.5,70.5 529.5,71.5C 500.5,71.5 471.5,71.5 442.5,71.5C 442.5,70.5 442.5,69.5 442.5,68.5 Z"/></g>
<g><path style="opacity:0.967" fill="#fcfbef" d="M 529.5,68.5 C 538.5,68.5 547.5,68.5 556.5,68.5C 556.263,69.791 556.596,70.791 557.5,71.5C 557.5,73.5 557.5,75.5 557.5,77.5C 553.167,77.5 548.833,77.5 544.5,77.5C 544.5,111.5 544.5,145.5 544.5,179.5C 542.833,179.5 541.167,179.5 539.5,179.5C 539.5,145.5 539.5,111.5 539.5,77.5C 536.167,77.5 532.833,77.5 529.5,77.5C 529.5,75.5 529.5,73.5 529.5,71.5C 529.5,70.5 529.5,69.5 529.5,68.5 Z"/></g>
<g><path style="opacity:0.68" fill="#639bb2" d="M 556.5,68.5 C 573.5,68.5 590.5,68.5 607.5,68.5C 607.737,69.791 607.404,70.791 606.5,71.5C 590.167,71.5 573.833,71.5 557.5,71.5C 556.596,70.791 556.263,69.791 556.5,68.5 Z"/></g>
<g><path style="opacity:0.954" fill="#fcfcfa" d="M 607.5,68.5 C 615.167,68.5 622.833,68.5 630.5,68.5C 630.5,71.5 630.5,74.5 630.5,77.5C 628.833,77.5 627.167,77.5 625.5,77.5C 624.504,93.6581 624.17,109.991 624.5,126.5C 626.167,126.5 627.833,126.5 629.5,126.5C 629.5,127.833 629.5,129.167 629.5,130.5C 627.833,130.5 626.167,130.5 624.5,130.5C 624.5,155.5 624.5,180.5 624.5,205.5C 617.087,206.128 610.087,205.461 603.5,203.5C 603.5,202.5 603.5,201.5 603.5,200.5C 609.167,200.5 614.833,200.5 620.5,200.5C 620.5,159.5 620.5,118.5 620.5,77.5C 615.833,77.5 611.167,77.5 606.5,77.5C 606.5,75.5 606.5,73.5 606.5,71.5C 607.404,70.791 607.737,69.791 607.5,68.5 Z"/></g>
<g><path style="opacity:0.302" fill="#898989" d="M 630.5,68.5 C 636.833,68.5 643.167,68.5 649.5,68.5C 649.5,71.5 649.5,74.5 649.5,77.5C 657.833,77.5 666.167,77.5 674.5,77.5C 674.5,93.5 674.5,109.5 674.5,125.5C 665.983,125.174 657.65,125.507 649.5,126.5C 649.5,127.833 649.5,129.167 649.5,130.5C 657.833,130.5 666.167,130.5 674.5,130.5C 674.5,165.167 674.5,199.833 674.5,234.5C 656.5,234.5 638.5,234.5 620.5,234.5C 620.182,239.032 620.515,243.366 621.5,247.5C 622.833,247.5 624.167,247.5 625.5,247.5C 625.5,244.833 625.5,242.167 625.5,239.5C 643.5,239.5 661.5,239.5 679.5,239.5C 679.5,238.167 679.5,236.833 679.5,235.5C 692.833,235.5 706.167,235.5 719.5,235.5C 719.5,198.167 719.5,160.833 719.5,123.5C 731.5,123.5 743.5,123.5 755.5,123.5C 755.5,148.5 755.5,173.5 755.5,198.5C 768.833,198.5 782.167,198.5 795.5,198.5C 795.5,200.167 795.5,201.833 795.5,203.5C 803.243,204.13 810.576,203.463 817.5,201.5C 820.167,201.5 822.833,201.5 825.5,201.5C 829.445,202.825 833.778,203.492 838.5,203.5C 843.222,203.492 847.555,202.825 851.5,201.5C 854.5,201.5 857.5,201.5 860.5,201.5C 865.288,202.828 870.454,203.495 876,203.5C 881.546,203.495 886.712,202.828 891.5,201.5C 896.833,201.5 902.167,201.5 907.5,201.5C 911.715,203.436 916.381,204.103 921.5,203.5C 921.5,212.833 921.5,222.167 921.5,231.5C 884.833,231.5 848.167,231.5 811.5,231.5C 811.5,228.833 811.5,226.167 811.5,223.5C 806.167,223.5 800.833,223.5 795.5,223.5C 795.5,227.833 795.5,232.167 795.5,236.5C 839.5,236.5 883.5,236.5 927.5,236.5C 927.5,285.833 927.5,335.167 927.5,384.5C 869.832,384.333 812.166,384.5 754.5,385C 753.748,385.671 753.414,386.504 753.5,387.5C 736.5,387.5 719.5,387.5 702.5,387.5C 702.5,386.5 702.5,385.5 702.5,384.5C 676.833,384.5 651.167,384.5 625.5,384.5C 625.5,351.833 625.5,319.167 625.5,286.5C 623.833,286.5 622.167,286.5 620.5,286.5C 620.5,293.167 620.5,299.833 620.5,306.5C 614.5,306.5 608.5,306.5 602.5,306.5C 602.5,308.167 602.5,309.833 602.5,311.5C 596.118,309.601 589.451,308.934 582.5,309.5C 582.5,308.833 582.5,308.167 582.5,307.5C 570.011,306.505 557.344,306.171 544.5,306.5C 544.5,299.833 544.5,293.167 544.5,286.5C 543.5,286.5 542.5,286.5 541.5,286.5C 541.5,273.5 541.5,260.5 541.5,247.5C 542.5,247.5 543.5,247.5 544.5,247.5C 544.5,233.5 544.5,219.5 544.5,205.5C 557.876,206.148 570.876,205.481 583.5,203.5C 590.167,203.5 596.833,203.5 603.5,203.5C 610.087,205.461 617.087,206.128 624.5,205.5C 624.5,180.5 624.5,155.5 624.5,130.5C 626.167,130.5 627.833,130.5 629.5,130.5C 630.451,129.081 630.784,127.415 630.5,125.5C 628.833,125.5 627.167,125.5 625.5,125.5C 625.5,109.5 625.5,93.5 625.5,77.5C 627.167,77.5 628.833,77.5 630.5,77.5C 630.5,74.5 630.5,71.5 630.5,68.5 Z"/></g>
<g><path style="opacity:0.957" fill="#fafbfc" d="M 649.5,68.5 C 743.167,68.5 836.833,68.5 930.5,68.5C 930.5,124.5 930.5,180.5 930.5,236.5C 929.5,236.5 928.5,236.5 927.5,236.5C 883.5,236.5 839.5,236.5 795.5,236.5C 795.5,232.167 795.5,227.833 795.5,223.5C 800.833,223.5 806.167,223.5 811.5,223.5C 811.5,226.167 811.5,228.833 811.5,231.5C 848.33,232.498 885.33,232.832 922.5,232.5C 922.5,222.5 922.5,212.5 922.5,202.5C 917.833,202.5 913.167,202.5 908.5,202.5C 908.5,201.5 908.5,200.5 908.5,199.5C 912.634,198.515 916.968,198.182 921.5,198.5C 922.496,184.01 922.829,169.343 922.5,154.5C 920.5,154.5 918.5,154.5 916.5,154.5C 916.5,153.167 916.5,151.833 916.5,150.5C 918.167,150.5 919.833,150.5 921.5,150.5C 921.5,126.167 921.5,101.833 921.5,77.5C 901.833,77.5 882.167,77.5 862.5,77.5C 861.508,84.9818 861.175,92.6484 861.5,100.5C 871.5,100.5 881.5,100.5 891.5,100.5C 891.5,101.833 891.5,103.167 891.5,104.5C 881.833,104.5 872.167,104.5 862.5,104.5C 861.509,111.313 861.175,118.313 861.5,125.5C 871.5,125.5 881.5,125.5 891.5,125.5C 891.5,126.833 891.5,128.167 891.5,129.5C 881.833,129.5 872.167,129.5 862.5,129.5C 862.5,136.5 862.5,143.5 862.5,150.5C 874.833,150.5 887.167,150.5 899.5,150.5C 899.5,151.833 899.5,153.167 899.5,154.5C 891.5,154.5 883.5,154.5 875.5,154.5C 875.5,169.5 875.5,184.5 875.5,199.5C 880.833,199.5 886.167,199.5 891.5,199.5C 891.5,200.167 891.5,200.833 891.5,201.5C 886.712,202.828 881.546,203.495 876,203.5C 870.454,203.495 865.288,202.828 860.5,201.5C 860.328,200.508 860.662,199.842 861.5,199.5C 865.167,199.5 868.833,199.5 872.5,199.5C 872.5,184.5 872.5,169.5 872.5,154.5C 864.167,154.5 855.833,154.5 847.5,154.5C 847.5,169.5 847.5,184.5 847.5,199.5C 848.833,199.5 850.167,199.5 851.5,199.5C 851.5,200.167 851.5,200.833 851.5,201.5C 847.555,202.825 843.222,203.492 838.5,203.5C 833.778,203.492 829.445,202.825 825.5,201.5C 825.414,200.504 825.748,199.671 826.5,199C 832.157,198.501 837.824,198.334 843.5,198.5C 843.5,183.833 843.5,169.167 843.5,154.5C 835.5,154.5 827.5,154.5 819.5,154.5C 819.5,153.167 819.5,151.833 819.5,150.5C 832.167,150.5 844.833,150.5 857.5,150.5C 857.5,135.167 857.5,119.833 857.5,104.5C 853.167,104.5 848.833,104.5 844.5,104.5C 844.5,102.833 844.5,101.167 844.5,99.5C 848.833,99.5 853.167,99.5 857.5,99.5C 857.5,92.1667 857.5,84.8333 857.5,77.5C 848.833,77.5 840.167,77.5 831.5,77.5C 831.5,84.8333 831.5,92.1667 831.5,99.5C 832.5,99.5 833.5,99.5 834.5,99.5C 834.5,101.167 834.5,102.833 834.5,104.5C 828.833,104.5 823.167,104.5 817.5,104.5C 817.5,103.167 817.5,101.833 817.5,100.5C 820.833,100.5 824.167,100.5 827.5,100.5C 827.5,92.8333 827.5,85.1667 827.5,77.5C 818.5,77.5 809.5,77.5 800.5,77.5C 799.508,84.9818 799.175,92.6484 799.5,100.5C 802.5,100.5 805.5,100.5 808.5,100.5C 808.5,101.833 808.5,103.167 808.5,104.5C 805.833,104.5 803.167,104.5 800.5,104.5C 800.5,119.833 800.5,135.167 800.5,150.5C 806.167,150.5 811.833,150.5 817.5,150.5C 817.5,151.833 817.5,153.167 817.5,154.5C 811.5,154.5 805.5,154.5 799.5,154.5C 799.171,169.343 799.504,184.01 800.5,198.5C 806.167,198.5 811.833,198.5 817.5,198.5C 817.5,199.5 817.5,200.5 817.5,201.5C 810.576,203.463 803.243,204.13 795.5,203.5C 795.5,201.833 795.5,200.167 795.5,198.5C 795.5,197.833 795.5,197.167 795.5,196.5C 795.5,194.833 795.5,193.167 795.5,191.5C 795.5,191.167 795.5,190.833 795.5,190.5C 795.5,188.833 795.5,187.167 795.5,185.5C 795.5,185.167 795.5,184.833 795.5,184.5C 795.5,182.833 795.5,181.167 795.5,179.5C 795.5,178.833 795.5,178.167 795.5,177.5C 795.5,176.167 795.5,174.833 795.5,173.5C 795.5,172.833 795.5,172.167 795.5,171.5C 795.5,170.167 795.5,168.833 795.5,167.5C 795.5,166.833 795.5,166.167 795.5,165.5C 795.5,163.833 795.5,162.167 795.5,160.5C 795.5,160.167 795.5,159.833 795.5,159.5C 795.5,157.833 795.5,156.167 795.5,154.5C 795.5,153.833 795.5,153.167 795.5,152.5C 795.5,151.167 795.5,149.833 795.5,148.5C 795.5,147.833 795.5,147.167 795.5,146.5C 795.5,145.167 795.5,143.833 795.5,142.5C 795.5,141.833 795.5,141.167 795.5,140.5C 795.5,138.833 795.5,137.167 795.5,135.5C 795.5,135.167 795.5,134.833 795.5,134.5C 795.5,132.833 795.5,131.167 795.5,129.5C 795.5,129.167 795.5,128.833 795.5,128.5C 795.5,126.833 795.5,125.167 795.5,123.5C 795.5,122.833 795.5,122.167 795.5,121.5C 795.5,106.833 795.5,92.1667 795.5,77.5C 756.833,77.5 718.167,77.5 679.5,77.5C 679.5,92.1667 679.5,106.833 679.5,121.5C 679.5,122.167 679.5,122.833 679.5,123.5C 679.5,125.167 679.5,126.833 679.5,128.5C 679.5,128.833 679.5,129.167 679.5,129.5C 679.5,131.167 679.5,132.833 679.5,134.5C 679.5,134.833 679.5,135.167 679.5,135.5C 679.5,137.167 679.5,138.833 679.5,140.5C 679.5,141.167 679.5,141.833 679.5,142.5C 679.5,143.833 679.5,145.167 679.5,146.5C 679.5,147.167 679.5,147.833 679.5,148.5C 679.5,149.833 679.5,151.167 679.5,152.5C 679.5,153.167 679.5,153.833 679.5,154.5C 679.5,156.167 679.5,157.833 679.5,159.5C 679.5,159.833 679.5,160.167 679.5,160.5C 679.5,162.167 679.5,163.833 679.5,165.5C 679.5,166.167 679.5,166.833 679.5,167.5C 679.5,168.833 679.5,170.167 679.5,171.5C 679.5,172.167 679.5,172.833 679.5,173.5C 679.5,174.833 679.5,176.167 679.5,177.5C 679.5,178.167 679.5,178.833 679.5,179.5C 679.5,181.167 679.5,182.833 679.5,184.5C 679.5,184.833 679.5,185.167 679.5,185.5C 679.5,187.167 679.5,188.833 679.5,190.5C 679.5,190.833 679.5,191.167 679.5,191.5C 679.5,193.167 679.5,194.833 679.5,196.5C 679.5,197.167 679.5,197.833 679.5,198.5C 679.5,199.833 679.5,201.167 679.5,202.5C 679.5,203.167 679.5,203.833 679.5,204.5C 679.5,205.833 679.5,207.167 679.5,208.5C 679.5,209.167 679.5,209.833 679.5,210.5C 679.5,212.167 679.5,213.833 679.5,215.5C 679.5,215.833 679.5,216.167 679.5,216.5C 679.5,218.167 679.5,219.833 679.5,221.5C 679.5,222.167 679.5,222.833 679.5,223.5C 679.5,224.833 679.5,226.167 679.5,227.5C 679.5,228.167 679.5,228.833 679.5,229.5C 679.5,230.833 679.5,232.167 679.5,233.5C 679.5,234.167 679.5,234.833 679.5,235.5C 679.5,236.833 679.5,238.167 679.5,239.5C 661.5,239.5 643.5,239.5 625.5,239.5C 625.5,242.167 625.5,244.833 625.5,247.5C 624.167,247.5 622.833,247.5 621.5,247.5C 621.5,243.5 621.5,239.5 621.5,235.5C 639.5,235.5 657.5,235.5 675.5,235.5C 675.832,200.329 675.498,165.329 674.5,130.5C 666.167,130.5 657.833,130.5 649.5,130.5C 649.5,129.167 649.5,127.833 649.5,126.5C 658.167,126.5 666.833,126.5 675.5,126.5C 675.83,109.991 675.496,93.6581 674.5,77.5C 666.167,77.5 657.833,77.5 649.5,77.5C 649.5,74.5 649.5,71.5 649.5,68.5 Z"/></g>
<g><path style="opacity:0.302" fill="#c3c3c3" d="M 70.5,68.5 C 86.1667,68.5 101.833,68.5 117.5,68.5C 117.5,71.5 117.5,74.5 117.5,77.5C 122.5,77.5 127.5,77.5 132.5,77.5C 132.19,74.2869 132.523,71.2869 133.5,68.5C 147.5,68.5 161.5,68.5 175.5,68.5C 175.5,71.5 175.5,74.5 175.5,77.5C 180.833,77.5 186.167,77.5 191.5,77.5C 191.5,74.5 191.5,71.5 191.5,68.5C 207.167,68.5 222.833,68.5 238.5,68.5C 238.5,71.5 238.5,74.5 238.5,77.5C 265.167,77.5 291.833,77.5 318.5,77.5C 318.5,75.5 318.5,73.5 318.5,71.5C 347.167,71.5 375.833,71.5 404.5,71.5C 404.5,98.8333 404.5,126.167 404.5,153.5C 405.5,153.5 406.5,153.5 407.5,153.5C 407.5,166.5 407.5,179.5 407.5,192.5C 405.525,202.446 404.858,212.779 405.5,223.5C 359.5,223.5 313.5,223.5 267.5,223.5C 267.5,225.833 267.5,228.167 267.5,230.5C 252.5,230.5 237.5,230.5 222.5,230.5C 222.5,228.167 222.5,225.833 222.5,223.5C 205.167,223.5 187.833,223.5 170.5,223.5C 170.5,225.833 170.5,228.167 170.5,230.5C 132.167,230.5 93.8333,230.5 55.5,230.5C 55.5,213.5 55.5,196.5 55.5,179.5C 52.8333,179.5 50.1667,179.5 47.5,179.5C 47.5,161.833 47.5,144.167 47.5,126.5C 50.1667,126.5 52.8333,126.5 55.5,126.5C 55.5,110.167 55.5,93.8333 55.5,77.5C 60.5,77.5 65.5,77.5 70.5,77.5C 70.5,74.5 70.5,71.5 70.5,68.5 Z"/></g>
<g><path style="opacity:0.243" fill="#deda0a" d="M 442.5,71.5 C 471.5,71.5 500.5,71.5 529.5,71.5C 529.5,73.5 529.5,75.5 529.5,77.5C 532.833,77.5 536.167,77.5 539.5,77.5C 539.5,111.5 539.5,145.5 539.5,179.5C 541.167,179.5 542.833,179.5 544.5,179.5C 544.5,145.5 544.5,111.5 544.5,77.5C 548.833,77.5 553.167,77.5 557.5,77.5C 557.5,75.5 557.5,73.5 557.5,71.5C 573.833,71.5 590.167,71.5 606.5,71.5C 606.5,73.5 606.5,75.5 606.5,77.5C 611.167,77.5 615.833,77.5 620.5,77.5C 620.5,118.5 620.5,159.5 620.5,200.5C 614.833,200.5 609.167,200.5 603.5,200.5C 603.5,201.5 603.5,202.5 603.5,203.5C 596.833,203.5 590.167,203.5 583.5,203.5C 583.5,202.833 583.5,202.167 583.5,201.5C 570.265,200.816 556.932,200.15 543.5,199.5C 542.432,198.566 541.099,198.232 539.5,198.5C 539.5,202.833 539.5,207.167 539.5,211.5C 496.167,211.5 452.833,211.5 409.5,211.5C 410.06,204.879 409.393,198.545 407.5,192.5C 407.5,179.5 407.5,166.5 407.5,153.5C 409.491,128.522 410.157,103.189 409.5,77.5C 420.5,77.5 431.5,77.5 442.5,77.5C 442.5,75.5 442.5,73.5 442.5,71.5 Z"/></g>
<g><path style="opacity:0.302" fill="#888988" d="M 795.5,121.5 C 756.833,121.5 718.167,121.5 679.5,121.5C 679.5,106.833 679.5,92.1667 679.5,77.5C 718.167,77.5 756.833,77.5 795.5,77.5C 795.5,92.1667 795.5,106.833 795.5,121.5 Z"/></g>
<g><path style="opacity:0.412" fill="#afdff5" d="M 800.5,77.5 C 800.5,84.8333 800.5,92.1667 800.5,99.5C 803.385,99.1936 806.052,99.5269 808.5,100.5C 805.5,100.5 802.5,100.5 799.5,100.5C 799.175,92.6484 799.508,84.9818 800.5,77.5 Z"/></g>
<g><path style="opacity:0.243" fill="#049de3" d="M 800.5,77.5 C 809.5,77.5 818.5,77.5 827.5,77.5C 827.5,85.1667 827.5,92.8333 827.5,100.5C 824.167,100.5 820.833,100.5 817.5,100.5C 817.5,101.833 817.5,103.167 817.5,104.5C 823.167,104.5 828.833,104.5 834.5,104.5C 834.5,102.833 834.5,101.167 834.5,99.5C 833.5,99.5 832.5,99.5 831.5,99.5C 831.5,92.1667 831.5,84.8333 831.5,77.5C 840.167,77.5 848.833,77.5 857.5,77.5C 857.5,84.8333 857.5,92.1667 857.5,99.5C 853.167,99.5 848.833,99.5 844.5,99.5C 844.5,101.167 844.5,102.833 844.5,104.5C 848.833,104.5 853.167,104.5 857.5,104.5C 857.5,119.833 857.5,135.167 857.5,150.5C 844.833,150.5 832.167,150.5 819.5,150.5C 819.5,151.833 819.5,153.167 819.5,154.5C 827.5,154.5 835.5,154.5 843.5,154.5C 843.5,169.167 843.5,183.833 843.5,198.5C 837.824,198.334 832.157,198.501 826.5,199C 825.748,199.671 825.414,200.504 825.5,201.5C 822.833,201.5 820.167,201.5 817.5,201.5C 817.5,200.5 817.5,199.5 817.5,198.5C 811.833,198.5 806.167,198.5 800.5,198.5C 800.5,184.167 800.5,169.833 800.5,155.5C 806.358,155.822 812.025,155.489 817.5,154.5C 817.5,153.167 817.5,151.833 817.5,150.5C 811.833,150.5 806.167,150.5 800.5,150.5C 800.5,135.167 800.5,119.833 800.5,104.5C 803.167,104.5 805.833,104.5 808.5,104.5C 808.5,103.167 808.5,101.833 808.5,100.5C 806.052,99.5269 803.385,99.1936 800.5,99.5C 800.5,92.1667 800.5,84.8333 800.5,77.5 Z"/></g>
<g><path style="opacity:0.243" fill="#009de2" d="M 862.5,77.5 C 882.167,77.5 901.833,77.5 921.5,77.5C 921.5,101.833 921.5,126.167 921.5,150.5C 919.833,150.5 918.167,150.5 916.5,150.5C 916.5,151.833 916.5,153.167 916.5,154.5C 917.919,155.451 919.585,155.784 921.5,155.5C 921.5,169.833 921.5,184.167 921.5,198.5C 916.968,198.182 912.634,198.515 908.5,199.5C 907.662,199.842 907.328,200.508 907.5,201.5C 902.167,201.5 896.833,201.5 891.5,201.5C 891.5,200.833 891.5,200.167 891.5,199.5C 886.695,198.513 881.695,198.179 876.5,198.5C 876.5,184.167 876.5,169.833 876.5,155.5C 884.352,155.825 892.018,155.492 899.5,154.5C 899.5,153.167 899.5,151.833 899.5,150.5C 887.167,150.5 874.833,150.5 862.5,150.5C 862.5,143.5 862.5,136.5 862.5,129.5C 872.167,129.5 881.833,129.5 891.5,129.5C 891.5,128.167 891.5,126.833 891.5,125.5C 882.014,124.506 872.348,124.173 862.5,124.5C 862.5,117.833 862.5,111.167 862.5,104.5C 872.167,104.5 881.833,104.5 891.5,104.5C 891.5,103.167 891.5,101.833 891.5,100.5C 882.014,99.5062 872.348,99.1729 862.5,99.5C 862.5,92.1667 862.5,84.8333 862.5,77.5 Z"/></g>
<g><path style="opacity:0.434" fill="#c1c1c1" d="M 625.5,77.5 C 625.5,93.5 625.5,109.5 625.5,125.5C 627.167,125.5 628.833,125.5 630.5,125.5C 630.784,127.415 630.451,129.081 629.5,130.5C 629.5,129.167 629.5,127.833 629.5,126.5C 627.833,126.5 626.167,126.5 624.5,126.5C 624.17,109.991 624.504,93.6581 625.5,77.5 Z"/></g>
<g><path style="opacity:0.461" fill="#c8c8c8" d="M 674.5,77.5 C 675.496,93.6581 675.83,109.991 675.5,126.5C 666.833,126.5 658.167,126.5 649.5,126.5C 657.65,125.507 665.983,125.174 674.5,125.5C 674.5,109.5 674.5,93.5 674.5,77.5 Z"/></g>
<g><path style="opacity:0.431" fill="#9ad8f4" d="M 862.5,77.5 C 862.5,84.8333 862.5,92.1667 862.5,99.5C 872.348,99.1729 882.014,99.5062 891.5,100.5C 881.5,100.5 871.5,100.5 861.5,100.5C 861.175,92.6484 861.508,84.9818 862.5,77.5 Z"/></g>
<g><path style="opacity:0.302" fill="#8c8c8c" d="M 679.5,123.5 C 692.5,123.5 705.5,123.5 718.5,123.5C 718.5,125.167 718.5,126.833 718.5,128.5C 705.5,128.5 692.5,128.5 679.5,128.5C 679.5,126.833 679.5,125.167 679.5,123.5 Z"/></g>
<g><path style="opacity:0.842" fill="#c9caca" d="M 679.5,121.5 C 718.167,121.5 756.833,121.5 795.5,121.5C 795.5,122.167 795.5,122.833 795.5,123.5C 782.833,123.5 770.167,123.5 757.5,123.5C 757.5,125.167 757.5,126.833 757.5,128.5C 770.167,128.5 782.833,128.5 795.5,128.5C 795.5,128.833 795.5,129.167 795.5,129.5C 782.833,129.5 770.167,129.5 757.5,129.5C 757.5,131.167 757.5,132.833 757.5,134.5C 770.167,134.5 782.833,134.5 795.5,134.5C 795.5,134.833 795.5,135.167 795.5,135.5C 782.5,135.5 769.5,135.5 756.5,135.5C 756.5,137.167 756.5,138.833 756.5,140.5C 769.5,140.5 782.5,140.5 795.5,140.5C 795.5,141.167 795.5,141.833 795.5,142.5C 782.833,142.5 770.167,142.5 757.5,142.5C 757.5,143.833 757.5,145.167 757.5,146.5C 770.167,146.5 782.833,146.5 795.5,146.5C 795.5,147.167 795.5,147.833 795.5,148.5C 782.833,148.5 770.167,148.5 757.5,148.5C 757.5,149.833 757.5,151.167 757.5,152.5C 770.167,152.5 782.833,152.5 795.5,152.5C 795.5,153.167 795.5,153.833 795.5,154.5C 782.833,154.5 770.167,154.5 757.5,154.5C 757.5,156.167 757.5,157.833 757.5,159.5C 770.167,159.5 782.833,159.5 795.5,159.5C 795.5,159.833 795.5,160.167 795.5,160.5C 782.833,160.5 770.167,160.5 757.5,160.5C 757.5,162.167 757.5,163.833 757.5,165.5C 770.167,165.5 782.833,165.5 795.5,165.5C 795.5,166.167 795.5,166.833 795.5,167.5C 782.833,167.5 770.167,167.5 757.5,167.5C 757.5,168.833 757.5,170.167 757.5,171.5C 770.167,171.5 782.833,171.5 795.5,171.5C 795.5,172.167 795.5,172.833 795.5,173.5C 782.833,173.5 770.167,173.5 757.5,173.5C 757.5,174.833 757.5,176.167 757.5,177.5C 770.167,177.5 782.833,177.5 795.5,177.5C 795.5,178.167 795.5,178.833 795.5,179.5C 782.833,179.5 770.167,179.5 757.5,179.5C 757.5,181.167 757.5,182.833 757.5,184.5C 770.167,184.5 782.833,184.5 795.5,184.5C 795.5,184.833 795.5,185.167 795.5,185.5C 782.833,185.5 770.167,185.5 757.5,185.5C 757.5,187.167 757.5,188.833 757.5,190.5C 770.167,190.5 782.833,190.5 795.5,190.5C 795.5,190.833 795.5,191.167 795.5,191.5C 782.5,191.5 769.5,191.5 756.5,191.5C 756.5,193.167 756.5,194.833 756.5,196.5C 769.5,196.5 782.5,196.5 795.5,196.5C 795.5,197.167 795.5,197.833 795.5,198.5C 782.167,198.5 768.833,198.5 755.5,198.5C 755.5,173.5 755.5,148.5 755.5,123.5C 743.5,123.5 731.5,123.5 719.5,123.5C 719.5,160.833 719.5,198.167 719.5,235.5C 706.167,235.5 692.833,235.5 679.5,235.5C 679.5,234.833 679.5,234.167 679.5,233.5C 692.167,233.5 704.833,233.5 717.5,233.5C 717.5,232.167 717.5,230.833 717.5,229.5C 704.833,229.5 692.167,229.5 679.5,229.5C 679.5,228.833 679.5,228.167 679.5,227.5C 692.167,227.5 704.833,227.5 717.5,227.5C 717.5,226.167 717.5,224.833 717.5,223.5C 704.833,223.5 692.167,223.5 679.5,223.5C 679.5,222.833 679.5,222.167 679.5,221.5C 692.167,221.5 704.833,221.5 717.5,221.5C 717.5,219.833 717.5,218.167 717.5,216.5C 704.833,216.5 692.167,216.5 679.5,216.5C 679.5,216.167 679.5,215.833 679.5,215.5C 692.167,215.5 704.833,215.5 717.5,215.5C 717.5,213.833 717.5,212.167 717.5,210.5C 704.833,210.5 692.167,210.5 679.5,210.5C 679.5,209.833 679.5,209.167 679.5,208.5C 692.167,208.5 704.833,208.5 717.5,208.5C 717.5,207.167 717.5,205.833 717.5,204.5C 704.833,204.5 692.167,204.5 679.5,204.5C 679.5,203.833 679.5,203.167 679.5,202.5C 692.167,202.5 704.833,202.5 717.5,202.5C 717.5,201.167 717.5,199.833 717.5,198.5C 704.833,198.5 692.167,198.5 679.5,198.5C 679.5,197.833 679.5,197.167 679.5,196.5C 692.5,196.5 705.5,196.5 718.5,196.5C 718.5,194.833 718.5,193.167 718.5,191.5C 705.5,191.5 692.5,191.5 679.5,191.5C 679.5,191.167 679.5,190.833 679.5,190.5C 692.167,190.5 704.833,190.5 717.5,190.5C 717.5,188.833 717.5,187.167 717.5,185.5C 704.833,185.5 692.167,185.5 679.5,185.5C 679.5,185.167 679.5,184.833 679.5,184.5C 692.5,184.5 705.5,184.5 718.5,184.5C 718.5,182.833 718.5,181.167 718.5,179.5C 705.5,179.5 692.5,179.5 679.5,179.5C 679.5,178.833 679.5,178.167 679.5,177.5C 692.167,177.5 704.833,177.5 717.5,177.5C 717.5,176.167 717.5,174.833 717.5,173.5C 704.833,173.5 692.167,173.5 679.5,173.5C 679.5,172.833 679.5,172.167 679.5,171.5C 692.167,171.5 704.833,171.5 717.5,171.5C 717.5,170.167 717.5,168.833 717.5,167.5C 704.833,167.5 692.167,167.5 679.5,167.5C 679.5,166.833 679.5,166.167 679.5,165.5C 692.167,165.5 704.833,165.5 717.5,165.5C 717.5,163.833 717.5,162.167 717.5,160.5C 704.833,160.5 692.167,160.5 679.5,160.5C 679.5,160.167 679.5,159.833 679.5,159.5C 692.167,159.5 704.833,159.5 717.5,159.5C 717.5,157.833 717.5,156.167 717.5,154.5C 704.833,154.5 692.167,154.5 679.5,154.5C 679.5,153.833 679.5,153.167 679.5,152.5C 692.167,152.5 704.833,152.5 717.5,152.5C 717.5,151.167 717.5,149.833 717.5,148.5C 704.833,148.5 692.167,148.5 679.5,148.5C 679.5,147.833 679.5,147.167 679.5,146.5C 692.167,146.5 704.833,146.5 717.5,146.5C 717.5,145.167 717.5,143.833 717.5,142.5C 704.833,142.5 692.167,142.5 679.5,142.5C 679.5,141.833 679.5,141.167 679.5,140.5C 692.5,140.5 705.5,140.5 718.5,140.5C 718.5,138.833 718.5,137.167 718.5,135.5C 705.5,135.5 692.5,135.5 679.5,135.5C 679.5,135.167 679.5,134.833 679.5,134.5C 692.167,134.5 704.833,134.5 717.5,134.5C 717.5,132.833 717.5,131.167 717.5,129.5C 704.833,129.5 692.167,129.5 679.5,129.5C 679.5,129.167 679.5,128.833 679.5,128.5C 692.5,128.5 705.5,128.5 718.5,128.5C 718.5,126.833 718.5,125.167 718.5,123.5C 705.5,123.5 692.5,123.5 679.5,123.5C 679.5,122.833 679.5,122.167 679.5,121.5 Z"/></g>
<g><path style="opacity:0.302" fill="#8b8b8b" d="M 795.5,123.5 C 795.5,125.167 795.5,126.833 795.5,128.5C 782.833,128.5 770.167,128.5 757.5,128.5C 757.5,126.833 757.5,125.167 757.5,123.5C 770.167,123.5 782.833,123.5 795.5,123.5 Z"/></g>
<g><path style="opacity:0.431" fill="#9ad8f4" d="M 862.5,104.5 C 862.5,111.167 862.5,117.833 862.5,124.5C 872.348,124.173 882.014,124.506 891.5,125.5C 881.5,125.5 871.5,125.5 861.5,125.5C 861.175,118.313 861.509,111.313 862.5,104.5 Z"/></g>
<g><path style="opacity:0.302" fill="#888988" d="M 679.5,129.5 C 692.167,129.5 704.833,129.5 717.5,129.5C 717.5,131.167 717.5,132.833 717.5,134.5C 704.833,134.5 692.167,134.5 679.5,134.5C 679.5,132.833 679.5,131.167 679.5,129.5 Z"/></g>
<g><path style="opacity:0.302" fill="#888988" d="M 795.5,129.5 C 795.5,131.167 795.5,132.833 795.5,134.5C 782.833,134.5 770.167,134.5 757.5,134.5C 757.5,132.833 757.5,131.167 757.5,129.5C 770.167,129.5 782.833,129.5 795.5,129.5 Z"/></g>
<g><path style="opacity:0.302" fill="#8e8e8e" d="M 679.5,135.5 C 692.5,135.5 705.5,135.5 718.5,135.5C 718.5,137.167 718.5,138.833 718.5,140.5C 705.5,140.5 692.5,140.5 679.5,140.5C 679.5,138.833 679.5,137.167 679.5,135.5 Z"/></g>
<g><path style="opacity:0.302" fill="#8e8e8e" d="M 795.5,135.5 C 795.5,137.167 795.5,138.833 795.5,140.5C 782.5,140.5 769.5,140.5 756.5,140.5C 756.5,138.833 756.5,137.167 756.5,135.5C 769.5,135.5 782.5,135.5 795.5,135.5 Z"/></g>
<g><path style="opacity:0.302" fill="#888988" d="M 679.5,142.5 C 692.167,142.5 704.833,142.5 717.5,142.5C 717.5,143.833 717.5,145.167 717.5,146.5C 704.833,146.5 692.167,146.5 679.5,146.5C 679.5,145.167 679.5,143.833 679.5,142.5 Z"/></g>
<g><path style="opacity:0.302" fill="#888988" d="M 795.5,142.5 C 795.5,143.833 795.5,145.167 795.5,146.5C 782.833,146.5 770.167,146.5 757.5,146.5C 757.5,145.167 757.5,143.833 757.5,142.5C 770.167,142.5 782.833,142.5 795.5,142.5 Z"/></g>
<g><path style="opacity:0.302" fill="#888988" d="M 679.5,148.5 C 692.167,148.5 704.833,148.5 717.5,148.5C 717.5,149.833 717.5,151.167 717.5,152.5C 704.833,152.5 692.167,152.5 679.5,152.5C 679.5,151.167 679.5,149.833 679.5,148.5 Z"/></g>
<g><path style="opacity:0.302" fill="#888988" d="M 795.5,148.5 C 795.5,149.833 795.5,151.167 795.5,152.5C 782.833,152.5 770.167,152.5 757.5,152.5C 757.5,151.167 757.5,149.833 757.5,148.5C 770.167,148.5 782.833,148.5 795.5,148.5 Z"/></g>
<g><path style="opacity:0.302" fill="#888988" d="M 679.5,154.5 C 692.167,154.5 704.833,154.5 717.5,154.5C 717.5,156.167 717.5,157.833 717.5,159.5C 704.833,159.5 692.167,159.5 679.5,159.5C 679.5,157.833 679.5,156.167 679.5,154.5 Z"/></g>
<g><path style="opacity:0.302" fill="#888988" d="M 795.5,154.5 C 795.5,156.167 795.5,157.833 795.5,159.5C 782.833,159.5 770.167,159.5 757.5,159.5C 757.5,157.833 757.5,156.167 757.5,154.5C 770.167,154.5 782.833,154.5 795.5,154.5 Z"/></g>
<g><path style="opacity:0.412" fill="#acdef5" d="M 817.5,154.5 C 812.025,155.489 806.358,155.822 800.5,155.5C 800.5,169.833 800.5,184.167 800.5,198.5C 799.504,184.01 799.171,169.343 799.5,154.5C 805.5,154.5 811.5,154.5 817.5,154.5 Z"/></g>
<g><path style="opacity:0.471" fill="#acdff5" d="M 861.5,199.5 C 864.625,198.521 867.958,198.187 871.5,198.5C 871.5,184.167 871.5,169.833 871.5,155.5C 863.833,155.5 856.167,155.5 848.5,155.5C 848.5,169.833 848.5,184.167 848.5,198.5C 849.791,198.263 850.791,198.596 851.5,199.5C 850.167,199.5 848.833,199.5 847.5,199.5C 847.5,184.5 847.5,169.5 847.5,154.5C 855.833,154.5 864.167,154.5 872.5,154.5C 872.5,169.5 872.5,184.5 872.5,199.5C 868.833,199.5 865.167,199.5 861.5,199.5 Z"/></g>
<g><path style="opacity:0.243" fill="#019ce2" d="M 861.5,199.5 C 860.662,199.842 860.328,200.508 860.5,201.5C 857.5,201.5 854.5,201.5 851.5,201.5C 851.5,200.833 851.5,200.167 851.5,199.5C 850.791,198.596 849.791,198.263 848.5,198.5C 848.5,184.167 848.5,169.833 848.5,155.5C 856.167,155.5 863.833,155.5 871.5,155.5C 871.5,169.833 871.5,184.167 871.5,198.5C 867.958,198.187 864.625,198.521 861.5,199.5 Z"/></g>
<g><path style="opacity:0.592" fill="#b6e3f7" d="M 899.5,154.5 C 892.018,155.492 884.352,155.825 876.5,155.5C 876.5,169.833 876.5,184.167 876.5,198.5C 881.695,198.179 886.695,198.513 891.5,199.5C 886.167,199.5 880.833,199.5 875.5,199.5C 875.5,184.5 875.5,169.5 875.5,154.5C 883.5,154.5 891.5,154.5 899.5,154.5 Z"/></g>
<g><path style="opacity:0.435" fill="#b8e4f5" d="M 916.5,154.5 C 918.5,154.5 920.5,154.5 922.5,154.5C 922.829,169.343 922.496,184.01 921.5,198.5C 921.5,184.167 921.5,169.833 921.5,155.5C 919.585,155.784 917.919,155.451 916.5,154.5 Z"/></g>
<g><path style="opacity:0.302" fill="#8a8a8a" d="M 679.5,160.5 C 692.167,160.5 704.833,160.5 717.5,160.5C 717.5,162.167 717.5,163.833 717.5,165.5C 704.833,165.5 692.167,165.5 679.5,165.5C 679.5,163.833 679.5,162.167 679.5,160.5 Z"/></g>
<g><path style="opacity:0.302" fill="#8a8a8a" d="M 795.5,160.5 C 795.5,162.167 795.5,163.833 795.5,165.5C 782.833,165.5 770.167,165.5 757.5,165.5C 757.5,163.833 757.5,162.167 757.5,160.5C 770.167,160.5 782.833,160.5 795.5,160.5 Z"/></g>
<g><path style="opacity:0.302" fill="#888988" d="M 679.5,167.5 C 692.167,167.5 704.833,167.5 717.5,167.5C 717.5,168.833 717.5,170.167 717.5,171.5C 704.833,171.5 692.167,171.5 679.5,171.5C 679.5,170.167 679.5,168.833 679.5,167.5 Z"/></g>
<g><path style="opacity:0.302" fill="#888988" d="M 795.5,167.5 C 795.5,168.833 795.5,170.167 795.5,171.5C 782.833,171.5 770.167,171.5 757.5,171.5C 757.5,170.167 757.5,168.833 757.5,167.5C 770.167,167.5 782.833,167.5 795.5,167.5 Z"/></g>
<g><path style="opacity:0.302" fill="#888988" d="M 679.5,173.5 C 692.167,173.5 704.833,173.5 717.5,173.5C 717.5,174.833 717.5,176.167 717.5,177.5C 704.833,177.5 692.167,177.5 679.5,177.5C 679.5,176.167 679.5,174.833 679.5,173.5 Z"/></g>
<g><path style="opacity:0.302" fill="#888988" d="M 795.5,173.5 C 795.5,174.833 795.5,176.167 795.5,177.5C 782.833,177.5 770.167,177.5 757.5,177.5C 757.5,176.167 757.5,174.833 757.5,173.5C 770.167,173.5 782.833,173.5 795.5,173.5 Z"/></g>
<g><path style="opacity:0.302" fill="#8d8d8d" d="M 679.5,179.5 C 692.5,179.5 705.5,179.5 718.5,179.5C 718.5,181.167 718.5,182.833 718.5,184.5C 705.5,184.5 692.5,184.5 679.5,184.5C 679.5,182.833 679.5,181.167 679.5,179.5 Z"/></g>
<g><path style="opacity:0.302" fill="#8c8c8c" d="M 795.5,179.5 C 795.5,181.167 795.5,182.833 795.5,184.5C 782.833,184.5 770.167,184.5 757.5,184.5C 757.5,182.833 757.5,181.167 757.5,179.5C 770.167,179.5 782.833,179.5 795.5,179.5 Z"/></g>
<g><path style="opacity:0.997" fill="#fdfdfd" d="M 47.5,179.5 C 50.1667,179.5 52.8333,179.5 55.5,179.5C 55.5,196.5 55.5,213.5 55.5,230.5C 55.5,292.167 55.5,353.833 55.5,415.5C 60.5,415.5 65.5,415.5 70.5,415.5C 70.5,417.5 70.5,419.5 70.5,421.5C 70.5,421.833 70.5,422.167 70.5,422.5C 70.5,423.167 70.5,423.833 70.5,424.5C 62.8333,424.5 55.1667,424.5 47.5,424.5C 47.5,421.5 47.5,418.5 47.5,415.5C 47.5,414.833 47.5,414.167 47.5,413.5C 47.5,404.167 47.5,394.833 47.5,385.5C 47.5,384.833 47.5,384.167 47.5,383.5C 47.5,382.167 47.5,380.833 47.5,379.5C 47.5,378.833 47.5,378.167 47.5,377.5C 47.5,375.833 47.5,374.167 47.5,372.5C 47.5,371.833 47.5,371.167 47.5,370.5C 47.5,369.167 47.5,367.833 47.5,366.5C 47.5,365.833 47.5,365.167 47.5,364.5C 47.5,363.167 47.5,361.833 47.5,360.5C 47.5,359.833 47.5,359.167 47.5,358.5C 47.5,357.167 47.5,355.833 47.5,354.5C 47.5,353.833 47.5,353.167 47.5,352.5C 47.5,350.833 47.5,349.167 47.5,347.5C 47.5,346.833 47.5,346.167 47.5,345.5C 47.5,329.5 47.5,313.5 47.5,297.5C 47.5,296.833 47.5,296.167 47.5,295.5C 47.5,256.833 47.5,218.167 47.5,179.5 Z"/></g>
<g><path style="opacity:0.302" fill="#888988" d="M 679.5,185.5 C 692.167,185.5 704.833,185.5 717.5,185.5C 717.5,187.167 717.5,188.833 717.5,190.5C 704.833,190.5 692.167,190.5 679.5,190.5C 679.5,188.833 679.5,187.167 679.5,185.5 Z"/></g>
<g><path style="opacity:0.302" fill="#888988" d="M 795.5,185.5 C 795.5,187.167 795.5,188.833 795.5,190.5C 782.833,190.5 770.167,190.5 757.5,190.5C 757.5,188.833 757.5,187.167 757.5,185.5C 770.167,185.5 782.833,185.5 795.5,185.5 Z"/></g>
<g><path style="opacity:0.302" fill="#8d8d8d" d="M 679.5,191.5 C 692.5,191.5 705.5,191.5 718.5,191.5C 718.5,193.167 718.5,194.833 718.5,196.5C 705.5,196.5 692.5,196.5 679.5,196.5C 679.5,194.833 679.5,193.167 679.5,191.5 Z"/></g>
<g><path style="opacity:0.302" fill="#8e8e8e" d="M 795.5,191.5 C 795.5,193.167 795.5,194.833 795.5,196.5C 782.5,196.5 769.5,196.5 756.5,196.5C 756.5,194.833 756.5,193.167 756.5,191.5C 769.5,191.5 782.5,191.5 795.5,191.5 Z"/></g>
<g><path style="opacity:1" fill="#faf9f6" d="M 407.5,192.5 C 409.393,198.545 410.06,204.879 409.5,211.5C 452.833,211.5 496.167,211.5 539.5,211.5C 539.5,207.167 539.5,202.833 539.5,198.5C 541.099,198.232 542.432,198.566 543.5,199.5C 556.458,201.481 569.791,202.148 583.5,201.5C 583.5,202.167 583.5,202.833 583.5,203.5C 570.876,205.481 557.876,206.148 544.5,205.5C 544.5,219.5 544.5,233.5 544.5,247.5C 543.5,247.5 542.5,247.5 541.5,247.5C 539.525,237.554 538.858,227.221 539.5,216.5C 503.167,216.5 466.833,216.5 430.5,216.5C 430.5,223.167 430.5,229.833 430.5,236.5C 426.833,236.5 423.167,236.5 419.5,236.5C 419.5,233.833 419.5,231.167 419.5,228.5C 381.5,228.5 343.5,228.5 305.5,228.5C 305.5,231.167 305.5,233.833 305.5,236.5C 292.833,236.5 280.167,236.5 267.5,236.5C 267.5,234.5 267.5,232.5 267.5,230.5C 267.5,228.167 267.5,225.833 267.5,223.5C 313.5,223.5 359.5,223.5 405.5,223.5C 404.858,212.779 405.525,202.446 407.5,192.5 Z"/></g>
<g><path style="opacity:0.302" fill="#888988" d="M 679.5,198.5 C 692.167,198.5 704.833,198.5 717.5,198.5C 717.5,199.833 717.5,201.167 717.5,202.5C 704.833,202.5 692.167,202.5 679.5,202.5C 679.5,201.167 679.5,199.833 679.5,198.5 Z"/></g>
<g><path style="opacity:0.506" fill="#f6f4b2" d="M 543.5,199.5 C 556.932,200.15 570.265,200.816 583.5,201.5C 569.791,202.148 556.458,201.481 543.5,199.5 Z"/></g>
<g><path style="opacity:0.302" fill="#888988" d="M 679.5,204.5 C 692.167,204.5 704.833,204.5 717.5,204.5C 717.5,205.833 717.5,207.167 717.5,208.5C 704.833,208.5 692.167,208.5 679.5,208.5C 679.5,207.167 679.5,205.833 679.5,204.5 Z"/></g>
<g><path style="opacity:0.302" fill="#898989" d="M 679.5,210.5 C 692.167,210.5 704.833,210.5 717.5,210.5C 717.5,212.167 717.5,213.833 717.5,215.5C 704.833,215.5 692.167,215.5 679.5,215.5C 679.5,213.833 679.5,212.167 679.5,210.5 Z"/></g>
<g><path style="opacity:0.302" fill="#85613d" d="M 541.5,247.5 C 541.5,260.5 541.5,273.5 541.5,286.5C 539.52,298.455 538.854,310.788 539.5,323.5C 541.167,323.5 542.833,323.5 544.5,323.5C 544.5,319.5 544.5,315.5 544.5,311.5C 557.344,311.829 570.011,311.495 582.5,310.5C 582.5,310.167 582.5,309.833 582.5,309.5C 589.451,308.934 596.118,309.601 602.5,311.5C 608.5,311.5 614.5,311.5 620.5,311.5C 620.5,335.833 620.5,360.167 620.5,384.5C 595.167,384.5 569.833,384.5 544.5,384.5C 544.5,370.5 544.5,356.5 544.5,342.5C 542.585,342.216 540.919,342.549 539.5,343.5C 539.5,357.167 539.5,370.833 539.5,384.5C 538.167,384.5 536.833,384.5 535.5,384.5C 535.5,394.833 535.5,405.167 535.5,415.5C 533.265,415.205 531.265,415.539 529.5,416.5C 528.549,417.919 528.216,419.585 528.5,421.5C 499.833,421.5 471.167,421.5 442.5,421.5C 442.5,419.5 442.5,417.5 442.5,415.5C 429.989,415.171 417.655,415.505 405.5,416.5C 404.549,417.919 404.216,419.585 404.5,421.5C 375.833,421.5 347.167,421.5 318.5,421.5C 318.5,419.5 318.5,417.5 318.5,415.5C 305.989,415.171 293.655,415.505 281.5,416.5C 280.549,417.919 280.216,419.585 280.5,421.5C 251.833,421.5 223.167,421.5 194.5,421.5C 194.5,419.5 194.5,417.5 194.5,415.5C 181.989,415.171 169.655,415.505 157.5,416.5C 156.549,417.919 156.216,419.585 156.5,421.5C 127.833,421.5 99.1667,421.5 70.5,421.5C 70.5,419.5 70.5,417.5 70.5,415.5C 65.5,415.5 60.5,415.5 55.5,415.5C 55.5,353.833 55.5,292.167 55.5,230.5C 93.8333,230.5 132.167,230.5 170.5,230.5C 170.5,232.5 170.5,234.5 170.5,236.5C 187.833,236.5 205.167,236.5 222.5,236.5C 222.5,234.5 222.5,232.5 222.5,230.5C 237.5,230.5 252.5,230.5 267.5,230.5C 267.5,232.5 267.5,234.5 267.5,236.5C 280.167,236.5 292.833,236.5 305.5,236.5C 305.5,233.833 305.5,231.167 305.5,228.5C 343.5,228.5 381.5,228.5 419.5,228.5C 419.5,231.167 419.5,233.833 419.5,236.5C 423.167,236.5 426.833,236.5 430.5,236.5C 430.5,229.833 430.5,223.167 430.5,216.5C 466.833,216.5 503.167,216.5 539.5,216.5C 538.858,227.221 539.525,237.554 541.5,247.5 Z"/></g>
<g><path style="opacity:0.302" fill="#888988" d="M 679.5,216.5 C 692.167,216.5 704.833,216.5 717.5,216.5C 717.5,218.167 717.5,219.833 717.5,221.5C 704.833,221.5 692.167,221.5 679.5,221.5C 679.5,219.833 679.5,218.167 679.5,216.5 Z"/></g>
<g><path style="opacity:0.302" fill="#888988" d="M 679.5,223.5 C 692.167,223.5 704.833,223.5 717.5,223.5C 717.5,224.833 717.5,226.167 717.5,227.5C 704.833,227.5 692.167,227.5 679.5,227.5C 679.5,226.167 679.5,224.833 679.5,223.5 Z"/></g>
<g><path style="opacity:1" fill="#fbfaf9" d="M 222.5,230.5 C 222.5,232.5 222.5,234.5 222.5,236.5C 205.167,236.5 187.833,236.5 170.5,236.5C 170.5,234.5 170.5,232.5 170.5,230.5C 170.5,228.167 170.5,225.833 170.5,223.5C 187.833,223.5 205.167,223.5 222.5,223.5C 222.5,225.833 222.5,228.167 222.5,230.5 Z"/></g>
<g><path style="opacity:0.302" fill="#888988" d="M 679.5,229.5 C 692.167,229.5 704.833,229.5 717.5,229.5C 717.5,230.833 717.5,232.167 717.5,233.5C 704.833,233.5 692.167,233.5 679.5,233.5C 679.5,232.167 679.5,230.833 679.5,229.5 Z"/></g>
<g><path style="opacity:0.553" fill="#d5d6d6" d="M 908.5,199.5 C 908.5,200.5 908.5,201.5 908.5,202.5C 913.167,202.5 917.833,202.5 922.5,202.5C 922.5,212.5 922.5,222.5 922.5,232.5C 885.33,232.832 848.33,232.498 811.5,231.5C 848.167,231.5 884.833,231.5 921.5,231.5C 921.5,222.167 921.5,212.833 921.5,203.5C 916.381,204.103 911.715,203.436 907.5,201.5C 907.328,200.508 907.662,199.842 908.5,199.5 Z"/></g>
<g><path style="opacity:0.553" fill="#cfcfcf" d="M 674.5,130.5 C 675.498,165.329 675.832,200.329 675.5,235.5C 657.5,235.5 639.5,235.5 621.5,235.5C 621.5,239.5 621.5,243.5 621.5,247.5C 620.515,243.366 620.182,239.032 620.5,234.5C 638.5,234.5 656.5,234.5 674.5,234.5C 674.5,199.833 674.5,165.167 674.5,130.5 Z"/></g>
<g><path style="opacity:0.836" fill="#6598af" d="M 927.5,236.5 C 928.5,236.5 929.5,236.5 930.5,236.5C 930.5,286.833 930.5,337.167 930.5,387.5C 871.5,387.5 812.5,387.5 753.5,387.5C 753.414,386.504 753.748,385.671 754.5,385C 812.166,384.5 869.832,384.333 927.5,384.5C 927.5,335.167 927.5,285.833 927.5,236.5 Z"/></g>
<g><path style="opacity:0.749" fill="#e3e3e3" d="M 719.5,254.5 C 744.995,253.502 770.661,253.169 796.5,253.5C 796.5,255.167 796.5,256.833 796.5,258.5C 770.5,258.5 744.5,258.5 718.5,258.5C 718.232,256.901 718.566,255.568 719.5,254.5 Z"/></g>
<g><path style="opacity:1" fill="#fdfefd" d="M 719.5,254.5 C 744.833,254.5 770.167,254.5 795.5,254.5C 795.5,255.5 795.5,256.5 795.5,257.5C 770.167,257.5 744.833,257.5 719.5,257.5C 719.5,256.5 719.5,255.5 719.5,254.5 Z"/></g>
<g><path style="opacity:1" fill="#fdfdfd" d="M 582.5,307.5 C 582.5,308.167 582.5,308.833 582.5,309.5C 582.5,309.833 582.5,310.167 582.5,310.5C 569.5,310.5 556.5,310.5 543.5,310.5C 543.5,314.5 543.5,318.5 543.5,322.5C 542.5,322.5 541.5,322.5 540.5,322.5C 540.5,310.833 540.5,299.167 540.5,287.5C 541.5,287.5 542.5,287.5 543.5,287.5C 543.5,294.167 543.5,300.833 543.5,307.5C 556.5,307.5 569.5,307.5 582.5,307.5 Z"/></g>
<g><path style="opacity:1" fill="#fbfbfa" d="M 620.5,311.5 C 614.5,311.5 608.5,311.5 602.5,311.5C 602.5,309.833 602.5,308.167 602.5,306.5C 608.5,306.5 614.5,306.5 620.5,306.5C 621.49,300.355 621.823,294.022 621.5,287.5C 622.5,287.5 623.5,287.5 624.5,287.5C 624.5,319.833 624.5,352.167 624.5,384.5C 623.5,384.5 622.5,384.5 621.5,384.5C 621.831,359.994 621.498,335.661 620.5,311.5 Z"/></g>
<g><path style="opacity:0.761" fill="#e2e1df" d="M 625.5,384.5 C 623.833,385.833 622.167,385.833 620.5,384.5C 620.5,360.167 620.5,335.833 620.5,311.5C 621.498,335.661 621.831,359.994 621.5,384.5C 622.5,384.5 623.5,384.5 624.5,384.5C 624.5,352.167 624.5,319.833 624.5,287.5C 623.5,287.5 622.5,287.5 621.5,287.5C 621.823,294.022 621.49,300.355 620.5,306.5C 620.5,299.833 620.5,293.167 620.5,286.5C 622.167,286.5 623.833,286.5 625.5,286.5C 625.5,319.167 625.5,351.833 625.5,384.5 Z"/></g>
<g><path style="opacity:0.538" fill="#d6d7d7" d="M -0.5,295.5 C 15.5,295.5 31.5,295.5 47.5,295.5C 47.5,296.167 47.5,296.833 47.5,297.5C 32.1667,297.5 16.8333,297.5 1.5,297.5C 1.5,309.5 1.5,321.5 1.5,333.5C 8.5,333.5 15.5,333.5 22.5,333.5C 22.5,350.167 22.5,366.833 22.5,383.5C 23.8333,383.5 25.1667,383.5 26.5,383.5C 26.5,370.833 26.5,358.167 26.5,345.5C 33.5,345.5 40.5,345.5 47.5,345.5C 47.5,346.167 47.5,346.833 47.5,347.5C 41.1667,347.5 34.8333,347.5 28.5,347.5C 28.5,349.167 28.5,350.833 28.5,352.5C 34.8333,352.5 41.1667,352.5 47.5,352.5C 47.5,353.167 47.5,353.833 47.5,354.5C 41.1667,354.5 34.8333,354.5 28.5,354.5C 28.5,355.833 28.5,357.167 28.5,358.5C 34.8333,358.5 41.1667,358.5 47.5,358.5C 47.5,359.167 47.5,359.833 47.5,360.5C 41.1667,360.5 34.8333,360.5 28.5,360.5C 28.5,361.833 28.5,363.167 28.5,364.5C 34.8333,364.5 41.1667,364.5 47.5,364.5C 47.5,365.167 47.5,365.833 47.5,366.5C 41.1667,366.5 34.8333,366.5 28.5,366.5C 28.5,367.833 28.5,369.167 28.5,370.5C 34.8333,370.5 41.1667,370.5 47.5,370.5C 47.5,371.167 47.5,371.833 47.5,372.5C 41.1667,372.5 34.8333,372.5 28.5,372.5C 28.5,374.167 28.5,375.833 28.5,377.5C 34.8333,377.5 41.1667,377.5 47.5,377.5C 47.5,378.167 47.5,378.833 47.5,379.5C 41.1667,379.5 34.8333,379.5 28.5,379.5C 28.5,380.833 28.5,382.167 28.5,383.5C 34.8333,383.5 41.1667,383.5 47.5,383.5C 47.5,384.167 47.5,384.833 47.5,385.5C 32.1667,385.5 16.8333,385.5 1.5,385.5C 1.5,394.833 1.5,404.167 1.5,413.5C 16.8333,413.5 32.1667,413.5 47.5,413.5C 47.5,414.167 47.5,414.833 47.5,415.5C 31.5,415.5 15.5,415.5 -0.5,415.5C -0.5,375.5 -0.5,335.5 -0.5,295.5 Z M 1.5,335.5 C 7.83333,335.5 14.1667,335.5 20.5,335.5C 20.5,336.833 20.5,338.167 20.5,339.5C 14.1667,339.5 7.83333,339.5 1.5,339.5C 1.5,338.167 1.5,336.833 1.5,335.5 Z M 1.5,341.5 C 7.83333,341.5 14.1667,341.5 20.5,341.5C 20.5,342.833 20.5,344.167 20.5,345.5C 14.1667,345.5 7.83333,345.5 1.5,345.5C 1.5,344.167 1.5,342.833 1.5,341.5 Z M 1.5,347.5 C 7.83333,347.5 14.1667,347.5 20.5,347.5C 20.5,349.167 20.5,350.833 20.5,352.5C 14.1667,352.5 7.83333,352.5 1.5,352.5C 1.5,350.833 1.5,349.167 1.5,347.5 Z M 1.5,354.5 C 7.83333,354.5 14.1667,354.5 20.5,354.5C 20.5,355.833 20.5,357.167 20.5,358.5C 14.1667,358.5 7.83333,358.5 1.5,358.5C 1.5,357.167 1.5,355.833 1.5,354.5 Z M 1.5,360.5 C 7.83333,360.5 14.1667,360.5 20.5,360.5C 20.5,361.833 20.5,363.167 20.5,364.5C 14.1667,364.5 7.83333,364.5 1.5,364.5C 1.5,363.167 1.5,361.833 1.5,360.5 Z M 1.5,366.5 C 7.83333,366.5 14.1667,366.5 20.5,366.5C 20.5,367.833 20.5,369.167 20.5,370.5C 14.1667,370.5 7.83333,370.5 1.5,370.5C 1.5,369.167 1.5,367.833 1.5,366.5 Z M 1.5,372.5 C 7.83333,372.5 14.1667,372.5 20.5,372.5C 20.5,374.167 20.5,375.833 20.5,377.5C 14.1667,377.5 7.83333,377.5 1.5,377.5C 1.5,375.833 1.5,374.167 1.5,372.5 Z M 1.5,379.5 C 7.83333,379.5 14.1667,379.5 20.5,379.5C 20.5,380.833 20.5,382.167 20.5,383.5C 14.1667,383.5 7.83333,383.5 1.5,383.5C 1.5,382.167 1.5,380.833 1.5,379.5 Z"/></g>
<g><path style="opacity:0.749" fill="#e3deda" d="M 541.5,286.5 C 542.5,286.5 543.5,286.5 544.5,286.5C 544.5,293.167 544.5,299.833 544.5,306.5C 557.344,306.171 570.011,306.505 582.5,307.5C 569.5,307.5 556.5,307.5 543.5,307.5C 543.5,300.833 543.5,294.167 543.5,287.5C 542.5,287.5 541.5,287.5 540.5,287.5C 540.5,299.167 540.5,310.833 540.5,322.5C 541.5,322.5 542.5,322.5 543.5,322.5C 543.5,318.5 543.5,314.5 543.5,310.5C 556.5,310.5 569.5,310.5 582.5,310.5C 570.011,311.495 557.344,311.829 544.5,311.5C 544.5,315.5 544.5,319.5 544.5,323.5C 542.833,323.5 541.167,323.5 539.5,323.5C 538.854,310.788 539.52,298.455 541.5,286.5 Z"/></g>
<g><path style="opacity:0.944" fill="#fbfbfa" d="M 539.5,343.5 C 540.833,343.5 542.167,343.5 543.5,343.5C 543.5,357.167 543.5,370.833 543.5,384.5C 543.263,385.791 543.596,386.791 544.5,387.5C 544.5,399.833 544.5,412.167 544.5,424.5C 539.5,424.5 534.5,424.5 529.5,424.5C 529.5,423.833 529.5,423.167 529.5,422.5C 529.5,420.5 529.5,418.5 529.5,416.5C 531.265,415.539 533.265,415.205 535.5,415.5C 535.5,405.167 535.5,394.833 535.5,384.5C 536.833,384.5 538.167,384.5 539.5,384.5C 539.5,370.833 539.5,357.167 539.5,343.5 Z"/></g>
<g><path style="opacity:0.506" fill="#cbbcac" d="M 539.5,343.5 C 540.919,342.549 542.585,342.216 544.5,342.5C 544.5,356.5 544.5,370.5 544.5,384.5C 544.167,384.5 543.833,384.5 543.5,384.5C 543.5,370.833 543.5,357.167 543.5,343.5C 542.167,343.5 540.833,343.5 539.5,343.5 Z"/></g>
<g><path style="opacity:1" fill="#f7f5f2" d="M 170.5,369.5 C 174.167,369.5 177.833,369.5 181.5,369.5C 181.5,373.833 181.5,378.167 181.5,382.5C 177.833,382.5 174.167,382.5 170.5,382.5C 170.5,378.167 170.5,373.833 170.5,369.5 Z"/></g>
<g><path style="opacity:1" fill="#f7f5f2" d="M 294.5,369.5 C 298.167,369.5 301.833,369.5 305.5,369.5C 305.5,373.833 305.5,378.167 305.5,382.5C 301.833,382.5 298.167,382.5 294.5,382.5C 294.5,378.167 294.5,373.833 294.5,369.5 Z"/></g>
<g><path style="opacity:1" fill="#f7f4f2" d="M 419.5,369.5 C 423.106,369.211 426.606,369.544 430,370.5C 430.499,374.486 430.666,378.486 430.5,382.5C 426.833,382.5 423.167,382.5 419.5,382.5C 419.5,378.167 419.5,373.833 419.5,369.5 Z"/></g>
<g><path style="opacity:1" fill="#f7f7f7" d="M 652.5,369.5 C 655.833,369.5 659.167,369.5 662.5,369.5C 662.5,373.833 662.5,378.167 662.5,382.5C 658.833,382.5 655.167,382.5 651.5,382.5C 651.231,378.069 651.564,373.735 652.5,369.5 Z"/></g>
<g><path style="opacity:1" fill="#f7f7f7" d="M 783.5,369.5 C 786.833,369.5 790.167,369.5 793.5,369.5C 793.5,373.833 793.5,378.167 793.5,382.5C 789.833,382.5 786.167,382.5 782.5,382.5C 782.231,378.069 782.564,373.735 783.5,369.5 Z"/></g>
<g><path style="opacity:1" fill="#f7f7f7" d="M 913.5,369.5 C 916.833,369.5 920.167,369.5 923.5,369.5C 923.5,373.833 923.5,378.167 923.5,382.5C 919.833,382.5 916.167,382.5 912.5,382.5C 912.231,378.069 912.564,373.735 913.5,369.5 Z"/></g>
<g><path style="opacity:0.827" fill="#6597ad" d="M 543.5,384.5 C 543.833,384.5 544.167,384.5 544.5,384.5C 569.833,384.5 595.167,384.5 620.5,384.5C 622.167,385.833 623.833,385.833 625.5,384.5C 651.167,384.5 676.833,384.5 702.5,384.5C 702.5,385.5 702.5,386.5 702.5,387.5C 649.833,387.5 597.167,387.5 544.5,387.5C 543.596,386.791 543.263,385.791 543.5,384.5 Z"/></g>
<g><path style="opacity:0.955" fill="#f9f8f6" d="M 194.5,421.5 C 194.5,421.833 194.5,422.167 194.5,422.5C 194.5,423.167 194.5,423.833 194.5,424.5C 182.167,424.5 169.833,424.5 157.5,424.5C 157.5,423.833 157.5,423.167 157.5,422.5C 157.5,420.5 157.5,418.5 157.5,416.5C 169.655,415.505 181.989,415.171 194.5,415.5C 194.5,417.5 194.5,419.5 194.5,421.5 Z"/></g>
<g><path style="opacity:0.955" fill="#f9f8f6" d="M 318.5,421.5 C 318.5,421.833 318.5,422.167 318.5,422.5C 318.5,423.167 318.5,423.833 318.5,424.5C 306.167,424.5 293.833,424.5 281.5,424.5C 281.5,423.833 281.5,423.167 281.5,422.5C 281.5,420.5 281.5,418.5 281.5,416.5C 293.655,415.505 305.989,415.171 318.5,415.5C 318.5,417.5 318.5,419.5 318.5,421.5 Z"/></g>
<g><path style="opacity:0.955" fill="#f9f8f6" d="M 442.5,421.5 C 442.5,421.833 442.5,422.167 442.5,422.5C 442.5,423.167 442.5,423.833 442.5,424.5C 430.167,424.5 417.833,424.5 405.5,424.5C 405.5,423.833 405.5,423.167 405.5,422.5C 405.5,420.5 405.5,418.5 405.5,416.5C 417.655,415.505 429.989,415.171 442.5,415.5C 442.5,417.5 442.5,419.5 442.5,421.5 Z"/></g>
<g><path style="opacity:0.482" fill="#708d96" d="M 157.5,416.5 C 157.5,418.5 157.5,420.5 157.5,422.5C 128.5,422.5 99.5,422.5 70.5,422.5C 70.5,422.167 70.5,421.833 70.5,421.5C 99.1667,421.5 127.833,421.5 156.5,421.5C 156.216,419.585 156.549,417.919 157.5,416.5 Z"/></g>
<g><path style="opacity:0.482" fill="#708d96" d="M 281.5,416.5 C 281.5,418.5 281.5,420.5 281.5,422.5C 252.5,422.5 223.5,422.5 194.5,422.5C 194.5,422.167 194.5,421.833 194.5,421.5C 223.167,421.5 251.833,421.5 280.5,421.5C 280.216,419.585 280.549,417.919 281.5,416.5 Z"/></g>
<g><path style="opacity:0.482" fill="#708d96" d="M 405.5,416.5 C 405.5,418.5 405.5,420.5 405.5,422.5C 376.5,422.5 347.5,422.5 318.5,422.5C 318.5,422.167 318.5,421.833 318.5,421.5C 347.167,421.5 375.833,421.5 404.5,421.5C 404.216,419.585 404.549,417.919 405.5,416.5 Z"/></g>
<g><path style="opacity:0.482" fill="#708d96" d="M 529.5,416.5 C 529.5,418.5 529.5,420.5 529.5,422.5C 500.5,422.5 471.5,422.5 442.5,422.5C 442.5,422.167 442.5,421.833 442.5,421.5C 471.167,421.5 499.833,421.5 528.5,421.5C 528.216,419.585 528.549,417.919 529.5,416.5 Z"/></g>
<g><path style="opacity:0.82" fill="#619ab3" d="M 70.5,422.5 C 99.5,422.5 128.5,422.5 157.5,422.5C 157.5,423.167 157.5,423.833 157.5,424.5C 128.5,424.5 99.5,424.5 70.5,424.5C 70.5,423.833 70.5,423.167 70.5,422.5 Z"/></g>
<g><path style="opacity:0.82" fill="#619ab3" d="M 194.5,422.5 C 223.5,422.5 252.5,422.5 281.5,422.5C 281.5,423.167 281.5,423.833 281.5,424.5C 252.5,424.5 223.5,424.5 194.5,424.5C 194.5,423.833 194.5,423.167 194.5,422.5 Z"/></g>
<g><path style="opacity:0.82" fill="#619ab3" d="M 318.5,422.5 C 347.5,422.5 376.5,422.5 405.5,422.5C 405.5,423.167 405.5,423.833 405.5,424.5C 376.5,424.5 347.5,424.5 318.5,424.5C 318.5,423.833 318.5,423.167 318.5,422.5 Z"/></g>
<g><path style="opacity:0.82" fill="#619ab3" d="M 442.5,422.5 C 471.5,422.5 500.5,422.5 529.5,422.5C 529.5,423.167 529.5,423.833 529.5,424.5C 500.5,424.5 471.5,424.5 442.5,424.5C 442.5,423.833 442.5,423.167 442.5,422.5 Z"/></g>
</svg>
