<svg width="24" height="24" viewBox="0 0 24 24" fill="none" xmlns="http://www.w3.org/2000/svg">
<path d="M2.61316 12.6631C2.61316 12.9316 2.73133 13.1895 2.94617 13.3936L9.68152 20.1182C9.89637 20.3223 10.1327 20.4189 10.3905 20.4189C10.9384 20.4189 11.3466 20.0215 11.3466 19.4736C11.3466 19.2051 11.2499 18.958 11.078 18.7861L8.80066 16.4658L5.5243 13.4902L7.96277 13.6406H20.6278C21.2079 13.6406 21.6054 13.2324 21.6054 12.6631C21.6054 12.083 21.2079 11.6748 20.6278 11.6748H7.96277L5.53504 11.8252L8.80066 8.84961L11.078 6.5293C11.2499 6.35742 11.3466 6.11035 11.3466 5.8418C11.3466 5.29395 10.9384 4.89648 10.3905 4.89648C10.1327 4.89648 9.89637 4.99316 9.66004 5.21875L2.94617 11.9219C2.73133 12.126 2.61316 12.3838 2.61316 12.6631Z" fill="#021730"/>
</svg>
