<svg width="24" height="24" viewBox="0 0 24 24" fill="none" xmlns="http://www.w3.org/2000/svg">
<path d="M12.12 3.04883C11.5399 3.04883 11.1425 3.45703 11.1425 4.02637V17.1318L11.2177 19.3232L8.30652 16.1113L5.99695 13.8232C5.82508 13.6514 5.56727 13.5547 5.29871 13.5547C4.7616 13.5547 4.3534 13.9629 4.3534 14.5107C4.3534 14.7686 4.45008 15.0049 4.66492 15.2197L11.3895 21.9551C11.5936 22.1699 11.8514 22.2881 12.12 22.2881C12.3886 22.2881 12.6464 22.1699 12.8505 21.9551L19.5751 15.2197C19.7899 15.0049 19.8866 14.7686 19.8866 14.5107C19.8866 13.9629 19.4784 13.5547 18.9413 13.5547C18.6727 13.5547 18.4149 13.6514 18.243 13.8232L15.9227 16.1113L13.0223 19.3125L13.0975 17.1318V4.02637C13.0975 3.45703 12.6893 3.04883 12.12 3.04883Z" fill="#021730"/>
</svg>
