<svg width="24" height="24" viewBox="0 0 24 24" fill="none" xmlns="http://www.w3.org/2000/svg">
<path d="M12.12 22.2881C12.6893 22.2881 13.0975 21.8799 13.0975 21.3105V8.20508L13.0223 6.02441L15.9227 9.22559L18.243 11.5137C18.4149 11.6855 18.6727 11.7822 18.9413 11.7822C19.4784 11.7822 19.8866 11.374 19.8866 10.8262C19.8866 10.5684 19.7899 10.332 19.5751 10.1172L12.8505 3.38184C12.6464 3.16699 12.3886 3.04883 12.12 3.04883C11.8514 3.04883 11.5936 3.16699 11.3895 3.38184L4.66492 10.1172C4.45008 10.332 4.3534 10.5684 4.3534 10.8262C4.3534 11.374 4.7616 11.7822 5.29871 11.7822C5.56727 11.7822 5.82508 11.6855 5.99695 11.5137L8.30652 9.22559L11.2177 6.01367L11.1425 8.20508V21.3105C11.1425 21.8799 11.5399 22.2881 12.12 22.2881Z" fill="#021730"/>
</svg>
