<svg width="20" height="17" viewBox="0 0 20 17"  class="control-btn" xmlns="http://www.w3.org/2000/svg">
<path d="M0.613164 8.66309C0.613164 8.93164 0.731328 9.18945 0.946172 9.39355L7.68152 16.1182C7.89637 16.3223 8.1327 16.4189 8.39051 16.4189C8.93836 16.4189 9.34656 16.0215 9.34656 15.4736C9.34656 15.2051 9.24988 14.958 9.07801 14.7861L6.80066 12.4658L3.5243 9.49023L5.96277 9.64062H18.6278C19.2079 9.64062 19.6054 9.23242 19.6054 8.66309C19.6054 8.08301 19.2079 7.6748 18.6278 7.6748H5.96277L3.53504 7.8252L6.80066 4.84961L9.07801 2.5293C9.24988 2.35742 9.34656 2.11035 9.34656 1.8418C9.34656 1.29395 8.93836 0.896484 8.39051 0.896484C8.1327 0.896484 7.89637 0.993164 7.66004 1.21875L0.946172 7.92188C0.731328 8.12598 0.613164 8.38379 0.613164 8.66309Z" fill="#F8F8F8" fill-opacity="0.92"/>
</svg>
