<svg width="24" height="24" viewBox="0 0 24 24" fill="none" xmlns="http://www.w3.org/2000/svg">
<path d="M9.99305 21.665C10.4657 21.665 10.8309 21.4609 11.0995 21.0635L20.6815 6.03516C20.8749 5.72363 20.9608 5.47656 20.9608 5.22949C20.9608 4.61719 20.5419 4.19824 19.9188 4.19824C19.4891 4.19824 19.2421 4.35938 18.9735 4.77832L9.95008 19.1299L5.28797 13.0605C5.01941 12.6953 4.75086 12.5449 4.3534 12.5449C3.71961 12.5449 3.27918 12.9746 3.27918 13.5869C3.27918 13.8447 3.3866 14.124 3.60145 14.3926L8.87586 21.0635C9.19812 21.4717 9.53113 21.665 9.99305 21.665Z" fill="#021730"/>
</svg>
