<svg width="11" height="19" viewBox="0 0 11 19" fill="none" xmlns="http://www.w3.org/2000/svg">
<path d="M1.09168 18.5469C1.38172 18.5469 1.61805 18.4395 1.81141 18.2568L9.81434 10.4258C10.0399 10.2109 10.1581 9.95312 10.1581 9.66309C10.1581 9.37305 10.0399 9.09375 9.82508 8.88965L1.82215 1.06934C1.62879 0.875977 1.38172 0.768555 1.09168 0.768555C0.522344 0.768555 0.0711718 1.21973 0.0711718 1.78906C0.0711718 2.06836 0.189336 2.32617 0.371953 2.51953L7.67664 9.66309L0.371953 16.7959C0.189336 16.9893 0.0711718 17.2471 0.0711718 17.5264C0.0711718 18.1064 0.522344 18.5469 1.09168 18.5469Z" fill="#021730"/>
</svg>
