<svg width="18" height="17" viewBox="0 0 18 17" fill="none" xmlns="http://www.w3.org/2000/svg" class="icon-exit">
<path style="fill:#fff;" fill="currentColor" d="M1.29875 14.7754C0.836836 15.248 0.815351 16.0859 1.30949 16.5693C1.80363 17.0527 2.63078 17.042 3.10344 16.5801L9.205 10.4785L15.2958 16.5801C15.7792 17.0527 16.6064 17.0635 17.0898 16.5693C17.5732 16.0752 17.5839 15.2588 17.1005 14.7754L10.9989 8.67383L17.1005 2.58301C17.5839 2.09961 17.5839 1.27246 17.0898 0.789062C16.5956 0.305664 15.7792 0.305664 15.2958 0.77832L9.205 6.87988L3.10344 0.77832C2.63078 0.316406 1.79289 0.294922 1.30949 0.789062C0.826094 1.2832 0.836836 2.11035 1.29875 2.57227L7.40031 8.67383L1.29875 14.7754Z" fill="white"/>
</svg>
