<svg width="24" height="24" viewBox="0 0 24 24" fill="none" xmlns="http://www.w3.org/2000/svg">
<path d="M6.73723 12.6738C6.73723 11.5244 5.8134 10.6006 4.6425 10.6006C3.49309 10.6006 2.55852 11.5244 2.55852 12.6738C2.55852 13.8232 3.49309 14.7471 4.6425 14.7471C5.80266 14.7471 6.73723 13.8232 6.73723 12.6738ZM14.2675 12.6738C14.2675 11.5244 13.3544 10.6006 12.205 10.6006C11.0556 10.6006 10.1318 11.5244 10.1318 12.6738C10.1318 13.8232 11.0556 14.7471 12.205 14.7471C13.3437 14.7471 14.2675 13.8232 14.2675 12.6738ZM21.8407 12.6738C21.8407 11.5244 20.9169 10.6006 19.7675 10.6006C18.5966 10.6006 17.6728 11.5244 17.6728 12.6738C17.6728 13.8232 18.5966 14.7471 19.7675 14.7471C20.9062 14.7471 21.8407 13.8232 21.8407 12.6738Z" fill="black"/>
</svg>
