<svg width="24" height="24" viewBox="0 0 24 24" fill="none" xmlns="http://www.w3.org/2000/svg">
<path d="M16.8232 22.6855C18.5957 22.6855 19.7773 22.2021 20.8301 21.0312C20.9053 20.9453 20.9805 20.8594 21.0557 20.7842C21.6572 20.0967 21.9473 19.4199 21.9473 18.7754C21.9473 18.0342 21.5283 17.3467 20.626 16.7236L17.6396 14.6504C16.7158 14.0166 15.6309 13.9414 14.7822 14.8008L14.0088 15.5635C13.7617 15.8105 13.5469 15.832 13.2891 15.6602C12.7412 15.3057 11.667 14.3604 10.9258 13.6191C10.1523 12.8564 9.40039 12.0078 9.00293 11.374C8.8418 11.1162 8.85254 10.9014 9.09961 10.6543L9.8623 9.88086C10.7109 9.03223 10.6465 7.94727 10.0127 7.02344L7.91797 4.01562C7.30566 3.12402 6.60742 2.71582 5.86621 2.70508C5.22168 2.69434 4.54492 2.99512 3.86816 3.59668C3.78223 3.67188 3.69629 3.73633 3.62109 3.81152C2.4502 4.875 1.95605 6.0459 1.95605 7.83984C1.95605 10.7725 3.72852 14.3174 7.03711 17.6152C10.335 20.9023 13.8584 22.6855 16.8232 22.6855ZM21.1523 2.71582C20.9375 2.71582 20.7549 2.79102 20.5938 2.95215L16.3076 7.24902L14.8037 8.88184L14.9756 6.01367V4.52051C14.9756 4.10156 14.6533 3.76855 14.2344 3.75781C13.8047 3.73633 13.4395 4.08008 13.4395 4.52051V10.3428C13.4395 10.9229 13.7295 11.2236 14.3096 11.2236H20.1641C20.6045 11.2236 20.9482 10.8691 20.9375 10.4287C20.916 9.99902 20.583 9.6875 20.1641 9.6875H18.6387L15.7598 9.85938L17.4141 8.35547L21.7002 4.05859C21.8721 3.88672 21.958 3.69336 21.958 3.46777C21.958 3.04883 21.6035 2.71582 21.1523 2.71582ZM16.8232 21.085C14.2344 21.1279 10.9473 19.1836 8.25098 16.5088C5.5332 13.8125 3.51367 10.4072 3.56738 7.80762C3.57812 6.70117 3.97559 5.74512 4.75977 5.05762C4.82422 4.99316 4.88867 4.9502 4.95312 4.89648C5.25391 4.63867 5.57617 4.49902 5.86621 4.49902C6.16699 4.49902 6.4248 4.61719 6.61816 4.91797L8.57324 7.83984C8.79883 8.17285 8.80957 8.53809 8.47656 8.86035L7.61719 9.71973C6.88672 10.4395 6.94043 11.3096 7.44531 11.9863C8.01465 12.7705 9.02441 13.9199 9.84082 14.7148C10.668 15.542 11.9033 16.6484 12.6768 17.2178C13.3535 17.7227 14.2236 17.7764 14.9434 17.0459L15.8027 16.1865C16.125 15.8535 16.4902 15.8643 16.8232 16.0898L19.7236 18.0234C20.0352 18.2275 20.1533 18.4854 20.1533 18.7861C20.1533 19.0762 20.0137 19.3877 19.7559 19.6885C19.6914 19.7637 19.6484 19.8174 19.5947 19.8926C18.8965 20.6768 17.9404 21.0635 16.8232 21.085Z" fill="#021730"/>
</svg>
