<svg width="24" height="24" viewBox="0 0 24 24" fill="none" xmlns="http://www.w3.org/2000/svg">
<path d="M7.72461 17.0889C10.4854 19.8496 13.9658 22.0518 16.877 22.0518C18.209 22.0518 19.3477 21.5898 20.2822 20.6016C20.7764 20.0752 21.1953 19.3662 21.1953 18.6787C21.1953 18.2168 21.0127 17.7656 20.5186 17.4219L17.4248 15.2412C17.0381 14.9727 16.6729 14.8223 16.3184 14.8223C15.8779 14.8223 15.4375 15.0479 14.9648 15.5098L14.2236 16.2295C14.1162 16.3369 13.9766 16.3799 13.8369 16.3799C13.708 16.3799 13.5791 16.3369 13.4609 16.2832C12.8809 15.9824 11.7744 15.1338 10.7217 14.0811C9.67969 13.0391 8.82031 11.9541 8.54102 11.3525C8.4873 11.2344 8.44434 11.1162 8.44434 10.998C8.44434 10.8799 8.4873 10.751 8.59473 10.6436L9.31445 9.87012C9.76562 9.37598 9.99121 8.93555 9.99121 8.49512C9.99121 8.14062 9.84082 7.77539 9.56152 7.37793L7.4668 4.41309C7.10156 3.89746 6.60742 3.67188 6.08105 3.67188C5.43652 3.67188 4.77051 3.9834 4.16895 4.57422C3.20215 5.51953 2.7832 6.67969 2.7832 7.95801C2.7832 10.8584 4.95312 14.3281 7.72461 17.0889Z" fill="#021730"/>
</svg>
