<svg width="24" height="24" viewBox="0 0 24 24" fill="none" xmlns="http://www.w3.org/2000/svg">
<path d="M12.1307 15.3916C12.5927 15.3916 12.9794 15.0156 12.9794 14.5537V4.1875L12.9149 2.67285L13.5809 3.40332L15.0848 5.00391C15.2352 5.17578 15.4501 5.26172 15.6542 5.26172C16.0946 5.26172 16.4384 4.9502 16.4384 4.50977C16.4384 4.28418 16.3417 4.1123 16.1805 3.95117L12.7645 0.642578C12.5389 0.427734 12.3456 0.352539 12.1307 0.352539C11.9052 0.352539 11.7118 0.427734 11.497 0.642578L8.0702 3.95117C7.90906 4.1123 7.81238 4.28418 7.81238 4.50977C7.81238 4.9502 8.14539 5.26172 8.58582 5.26172C8.78992 5.26172 9.02625 5.17578 9.17664 5.00391L10.6698 3.40332L11.3358 2.67285L11.2714 4.1875V14.5537C11.2714 15.0156 11.6581 15.3916 12.1307 15.3916ZM6.28699 23.4053H17.953C20.1122 23.4053 21.1971 22.3203 21.1971 20.2041V10.1172C21.1971 7.99023 20.1122 6.90527 17.953 6.90527H15.16V8.67773H17.8993C18.8768 8.67773 19.4354 9.2041 19.4354 10.2354V20.0859C19.4354 21.1172 18.8768 21.6436 17.8993 21.6436H6.35145C5.36316 21.6436 4.81531 21.1172 4.81531 20.0859V10.2354C4.81531 9.2041 5.36316 8.67773 6.35145 8.67773H9.10145V6.90527H6.28699C4.13855 6.90527 3.04285 7.99023 3.04285 10.1172V20.2041C3.04285 22.3311 4.13855 23.4053 6.28699 23.4053Z" fill="#021730"/>
</svg>
