<svg width="24" height="24" viewBox="0 0 24 24" fill="none" xmlns="http://www.w3.org/2000/svg">
<path d="M2.4198 11.2559C2.58094 11.4277 2.81727 11.417 2.9784 11.2451C5.35242 8.74219 8.55359 7.37793 12.12 7.37793C15.6971 7.37793 18.9198 8.7207 21.2723 11.2451C21.4227 11.417 21.6591 11.417 21.8202 11.2451L23.0555 10.0098C23.2059 9.85938 23.2059 9.66602 23.077 9.50488C20.8104 6.7334 16.4921 4.73535 12.12 4.73535C7.73719 4.73535 3.41883 6.72266 1.16297 9.50488C1.03406 9.66602 1.0448 9.85938 1.18445 10.0098L2.4198 11.2559ZM6.46961 15.3271C6.64148 15.499 6.85633 15.4883 7.03895 15.2842C8.24207 13.9736 10.1971 13.0605 12.12 13.0713C14.0536 13.0605 15.9979 13.9951 17.2118 15.3057C17.3944 15.4883 17.5985 15.4883 17.7704 15.3271L19.1669 13.9307C19.3065 13.8018 19.328 13.6084 19.1991 13.458C17.7596 11.6748 15.0204 10.418 12.12 10.418C9.20887 10.418 6.48035 11.6855 5.03016 13.458C4.91199 13.6084 4.92273 13.791 5.06238 13.9307L6.46961 15.3271ZM12.12 20.6553C12.2919 20.6553 12.453 20.5586 12.7968 20.2256L15.1278 17.9805C15.2567 17.8623 15.2889 17.7012 15.1708 17.5293C14.5907 16.7773 13.3983 16.1113 12.12 16.1113C10.8309 16.1113 9.61707 16.7881 9.04773 17.5615C8.95105 17.7119 8.97254 17.8623 9.11219 17.9805L11.4325 20.2256C11.787 20.5693 11.9374 20.6553 12.12 20.6553Z" fill="#021730"/>
</svg>
