<svg width="24" height="24" viewBox="0 0 24 24" fill="none" xmlns="http://www.w3.org/2000/svg">
<path d="M20.9393 20.2256C21.1434 20.4297 21.4657 20.4297 21.6591 20.2256C21.8632 20.0215 21.8524 19.71 21.6591 19.5166L3.30066 1.1582C3.1073 0.964844 2.78504 0.954102 2.58094 1.1582C2.38758 1.35156 2.38758 1.67383 2.58094 1.86719L20.9393 20.2256ZM21.2723 11.2451C21.4227 11.417 21.6591 11.417 21.8417 11.2344L23.0555 10.0098C23.2059 9.85938 23.2059 9.66602 23.077 9.50488C20.7782 6.74414 16.4921 4.73535 12.12 4.73535C10.9491 4.73535 9.7782 4.88574 8.65027 5.1543L10.9706 7.47461C14.8485 7.12012 18.6083 8.43066 21.2723 11.2451ZM2.4198 11.2451C2.58094 11.417 2.81727 11.4062 2.9784 11.2344C4.2782 9.85938 5.82508 8.83887 7.55457 8.20508L5.56727 6.21777C3.78406 7.05566 2.24793 8.19434 1.16297 9.50488C1.03406 9.66602 1.0448 9.85938 1.18445 10.0098L2.4198 11.2451ZM6.46961 15.3271C6.64148 15.4883 6.85633 15.4883 7.03895 15.2842C8.34949 13.8662 10.4442 12.9854 12.453 13.1035L10.0145 10.665C7.96277 11.0947 6.1366 12.1367 5.03016 13.458C4.91199 13.6084 4.92273 13.8018 5.06238 13.9307L6.46961 15.3271ZM18.2968 14.8008L19.1669 13.9307C19.3065 13.8018 19.328 13.6084 19.1991 13.458C18.1141 12.126 16.2557 11.0947 14.1932 10.6973L18.2968 14.8008ZM12.12 20.6553C12.3026 20.6553 12.453 20.5586 12.8075 20.2256L15.1278 17.9805C15.2675 17.8623 15.2889 17.7012 15.1708 17.5293C14.6014 16.7773 13.3983 16.1113 12.12 16.1113C10.8309 16.1113 9.62781 16.7881 9.05848 17.5615C8.9618 17.7119 8.98328 17.8623 9.11219 17.9805L11.4432 20.2256C11.787 20.5693 11.9481 20.6553 12.12 20.6553Z" fill="#021730"/>
</svg>
