<svg width="24" height="24" viewBox="0 0 24 24" fill="none" xmlns="http://www.w3.org/2000/svg">
<path d="M4.38469 19.0869C4.00871 19.4629 3.99797 20.1182 4.38469 20.4941C4.77141 20.8701 5.41594 20.8701 5.79191 20.4941L12.205 14.0811L18.6073 20.4941C18.9941 20.8701 19.6386 20.8809 20.0146 20.4941C20.3905 20.1074 20.3905 19.4629 20.0146 19.0869L13.6015 12.6738L20.0146 6.27148C20.3905 5.88477 20.4013 5.24023 20.0146 4.86426C19.6279 4.48828 18.9941 4.48828 18.6073 4.86426L12.205 11.2773L5.79191 4.86426C5.41594 4.48828 4.76066 4.47754 4.38469 4.86426C4.00871 5.25098 4.00871 5.89551 4.38469 6.26074L10.7978 12.6738L4.38469 19.0869Z" fill="#021730"/>
</svg>
