<svg viewBox="0 0 931 425" xmlns="http://www.w3.org/2000/svg">
 <g id="floormap_core">
  <path transform="translate(125)" d="M0 0h60v69h746v356H-76v-9h-49V296h49V69H0Zm9 9v60h25v4h17V9Zm546 63v3l7-2v-1zm-678 226v36h47v-36zm0 38v11h21v37h4v-48zm27 0v5h20v-5zm0 7v4h20v-4zm-27 6v4h19v-4zm27 0v4h20v-4zm-27 6v4h19v-4zm27 0v4h20v-4zm-27 6v4h19v-4zm27 0v4h20v-4zm-27 6v5h19v-5zm27 0v5h20v-5zm-27 7v4h19v-4zm27 0v4h20v-4zm-27 6v4h19v-4zm27 0v4h20v-4zm-27 6v28h47v-28z" fill="#ad9578"/>
  <path transform="translate(799 139)" d="m0 0c3-.08 5-.1 8-.2l2-.08 9 .3-.02 7h3v16h-3v43h5v-32h28v60h-28v-12h-5v24h3v19h-3v45h5v-35h99v12h9v139h-612v-8h-16v-75h57v-5h-3v-3h-2v-39h2v-4h184v-15h-3v-39h2v-6h89v2h163v58h5v-58h5v-17h-5v-74h2z" fill="#6d4a4a"/>
  <path transform="translate(443 69)" d="M0 0h488v217h-9v-12h-99v35h-5v-45h3v-19h-3v-24h5v12h28v-60h-28v32h-5V93h3V77h-3v-4.7347L372 72v-2h-16v3h-2v74h5v17h-5v58h-5v-58H186v-2H97v6h-2v39h-2v10H-33V9H0Zm237 3v3l7-2V3Z" fill="#85603b"/>
  <path transform="translate(654 69)" d="M0 0h277v217h-9v-12h-99v35h-5v-45h3v-19h-3v-24h5v12h28v-60h-28v32h-5V93h3V77h-3v-4.7806L161 72v-2h-16v3h-2v74h5v17h-5v58h-5v-58H12v-17h5V16h-4V9H0Zm26 3v3l7-2V3Z" fill="#cacbcb"/>
  <path transform="translate(159 73)" d="M0 0h17v5h12v100h3v39h-3v42h3v19h-3v17h3v39h-3v3h-54v5h54v75H-1v8h-87v-8h-14v-75h57v-5h-57v-7h-8v-21h8v-17h98v-24h-3v-19h3v-32h-3v-39h3V72h-3V43h3V5h3z" fill="#6e4a4a"/>
  <path transform="translate(380 337)" d="M0 0h72v2h19V0h113v2h19V0h152v5h-82v75h18v8H26v-8h16V5H0V0Z" fill="#74485c"/>
  <path transform="translate(57 78)" d="M0 0h68v96h25v4h2v39h3v32h-3v19h3v24H0v17h-8v-11h-47v36h47v-4h8v7h57v5H0v75h14v8H-8v-9h-49V218h49V32l8 1V0Zm-55 258v11h21v37h4v-48h-25zm27 0v5h20v-5h-20zm0 7v4h20v-4h-20zm-27 6v4h19v-4h-19zm27 0v4h20v-4h-20zm-27 6v4h19v-4h-19zm27 0v4h20v-4h-20zm-27 6v4h19v-4h-19zm27 0v4h20v-4h-20zm-27 6v5h19v-5h-19zm27 0v5h20v-5h-20zm-27 7v4h19v-4h-19zm27 0v4h20v-4h-20zm-27 6v4h19v-4h-19zm27 0v4h20v-4h-20zm-27 6v28h47v-28h-47z" fill="#ac9578"/>
  <path transform="translate(567 69)" d="M0 0h87v9h13v7h4v131h-5v17H62v-2h-88V9H0V0Z" fill="#84603b"/>
  <path transform="translate(823 274)" d="M0 0h99v12h9v139H-45v-8h14V68h-17v-5h43v-9h2V35h3V0Z" fill="#74475c"/>
  <path transform="translate(823 142)" d="M0 0h65v4h5V0h29l1 12h8v132h-9v-12H0v35h-5v-45h3v-19h-3V79h5v12h28V31H0v32h-5V20h3V4h2V0Z" fill="#009de3"/>
  <path transform="translate(603 337)" d="M0 0h152v5H70v75h18v8H-36v-8h-16V5h33V2H0V0Z" fill="#74485c"/>
  <path transform="translate(114 337)" d="m0 0 1 2h19v3h54v75H44v8h-87v-8h-14V5H0V0Z" fill="#75475b"/>
  <path transform="translate(49 197)" d="M0 0h8v28h93v-8h5v32h-3v19h3v24H8v17H0v-11h-47v36H0v-4h8v7h57v5H8v75h14v8H0v-9h-49V99H0V0Zm-47 139v11h21v37h4v-48h-25zm27 0v5H0v-5h-20zm0 7v4H0v-4h-20zm-27 6v4h19v-4h-19zm27 0v4H0v-4h-20zm-27 6v4h19v-4h-19zm27 0v4H0v-4h-20zm-27 6v4h19v-4h-19zm27 0v4H0v-4h-20zm-27 6v5h19v-5h-19zm27 0v5H0v-5h-20zm-27 7v4h19v-4h-19zm27 0v4H0v-4h-20zm-27 6v4h19v-4h-19zm27 0v4H0v-4h-20zm-27 6v28H0v-28h-47z" fill="#dfdb0a"/>
  <path transform="translate(774 337)" d="M0 0h1v5h17v75H4v8h-87v-8h-18V5h82V2H0V0Z" fill="#74485c"/>
  <path transform="translate(379 337)" d="M0 0h1v5h42v75H27v8h-87v-8h-16V5h57V2H0V0Z" fill="#74485c"/>
  <path transform="translate(810 72)" d="m0 0 87-.09v6l25 .09v59h-107v2h-16v-2h-2v-59h13z" fill="#dfdb0a"/>
  <path transform="translate(125)" d="M0 0h60v69h10v9h-2v100h-5V78H51V9H9v60h25l.102 8.9082L30 78v38h-3v29h3v33h-5v-4H0V78h-68v33l-8 .2988V69H0Z" fill="#faf9f9"/>
  <path transform="translate(680 69)" d="M0 0h89v9h23v35H-4V9h4z" fill="#888"/>
  <path transform="translate(823 142)" d="M0 0h65v4h5V0h29l1 12h8v24H88l1 4 10 1v19H70V41h2v-5h-2V20h-5v40H33V26H0v-6h-2V4h2z" fill="#009de3"/>
  <path transform="translate(49 197)" d="M0 0h8v28h93v-8h5v32h-5V32H8v58h93V71h5v24H8v17H0v-11h-47v36H0v-4h8v7h57v5H8v75h14v8H0v-9h-49V99H0V0Zm-47 139v11h21v37h4v-48h-25zm27 0v5H0v-5h-20zm0 7v4H0v-4h-20zm-27 6v4h19v-4h-19zm27 0v4H0v-4h-20zm-27 6v4h19v-4h-19zm27 0v4H0v-4h-20zm-27 6v4h19v-4h-19zm27 0v4H0v-4h-20zm-27 6v5h19v-5h-19zm27 0v5H0v-5h-20zm-27 7v4h19v-4h-19zm27 0v4H0v-4h-20zm-27 6v4h19v-4h-19zm27 0v4H0v-4h-20zm-27 6v28H0v-28h-47z" fill="#d6d7d7"/>
  <path transform="translate(676 195)" d="M0 0h116v34H78v4H39v-4H0V0Z" fill="#898989"/>
  <path transform="translate(716 114)" d="M0 0h36v80h-76V56H0V0Z" fill="#898989"/>
  <path transform="translate(769 69)" d="m0 0h162v85h-9v-12h-29v4h-5v-4h-65v4h-5l-.2-5-3-.2v-4h107v-59l-25-.09v-6l-87 .09v6h-13v59h2v5h-2v74h5v17h-5v58h-5v-58h-38v-4h38v-151h-23z" fill="#f6f4f2"/>
  <path transform="translate(654 69)" d="M0 0h26v9h-4v116h76V75h40v51H22v34h39v4H12v-17h5V16h-4V9H0V0Z" fill="#cccdcd"/>
  <path transform="translate(406 69)" d="m-1 .09 38-.09v9h-33v208h126v-10h5v15h-184v4h-4v-9h52z" fill="#f6f4f2"/>
  <path transform="translate(818 162)" d="M0 0h5v6h33v34h32V0h5v16h2v5h-2v19h29V21H94l-1-5h20v67l-8.8194-.1172L104 69H94l-.0816-4.9082L104 64V45H75v19h2v5h-7V45H38v30H5v8H0V59h5v12h28V11H5v32H0Z" fill="#ecf5f9"/>
  <path transform="translate(49 197)" d="M0 0h8v28h93v-8h5v32h-5V32H8v58h93V71h5v24H8v17H0V0Z" fill="#faf9f8"/>
  <path transform="translate(129 78)" d="M0 0h21v38h2v29h-2v24H0V0Z" fill="#dfdb0d"/>
  <path transform="translate(823 173)" d="M0 0h28v60H0V48h-3V32h3V0Z" fill="#545b1f"/>
  <path transform="translate(897 69)" d="m0 0h34v85h-9v-12h-29v4h-5v-4h-65v4h-5l.05-5-3-.3v-4h107v-59l-25-.1z" fill="#f6faf8"/>
  <path transform="translate(604 337)" d="M0 0h151v5H69v75h18v8H50v-8h14V5H0V0Z" fill="#f2eff0"/>
  <path transform="translate(922 335)" d="M0 0h9v90h-29v-8H0V7h-78V2H0V0Z" fill="#f6f4f5"/>
  <path transform="translate(189 218)" d="m-2-1 5-.3.3 8h110v70h-5v-62h-105v26l-5 .3z" fill="#fcfbfa"/>
  <path transform="translate(654 69)" d="m-1 0h27v9h-4v151h39v4h-49v-17h5v-131h-4v-7h-14z" fill="#f7f6f4"/>
  <path transform="translate(472 337)" d="M0 0h112v5H79v75h16v8H58v-8h16V5H0V0Z" fill="#f3eff1"/>
  <path transform="translate(49 330)" d="M0 0h8v7h57v5H8v75h14v8H0V0Z" fill="#faf9f9"/>
  <path transform="translate(530 69)" d="m-1 0h38v9h-26l.04 159-5 .3v-159h-7z" fill="#f6f4f2"/>
  <path transform="translate(380 337)" d="M0 0h72v5H47v75h16v8H26v-8h16V5H0V0Z" fill="#f3f0f1"/>
  <path transform="translate(298 334)" d="m0 0h5v3h50v-3h4v3h3v5h-57v75h16v8l-38-.1-.2-8h17z" fill="#f6f4f5"/>
  <path transform="translate(188 334)" d="M0 0h5v83h2v8h-37v-8H0V8h-54V3H0V0Z" fill="#f6f4f4"/>
  <path transform="translate(818 328)" d="M0 0h5v9h2v5h-28v75h18v8h-37v-8h14V14h-17V9H0V0Z" fill="#f4f0f2"/>
  <path transform="translate(818 264)" d="M0 0h5v5h108v17h-9V10H5v35H0V0Z" fill="#f3f1f3"/>
  <path transform="translate(753 176)" d="M0 0h39v12H0V0Z" fill="#bebebe"/>
  <path transform="translate(676 120)" d="M0 0h39v12H0V0Z" fill="#bebebe"/>
  <path transform="translate(282 69)" d="m0 0h37v9h-37z" fill="#f9f9f9"/>
  <path transform="translate(680 69)" d="m0 0h89l-.08 3h-89z" fill="#6392ae"/>
  <path transform="translate(567 69)" d="m0 0 86 .1-.09 3h-86z" fill="#6392ad"/>
  <path transform="translate(443 69)" d="m0 0 86 .1.2 3h-86z" fill="#6392ad"/>
  <path transform="translate(810 69)" d="M0 0h87v3H0V0Z" fill="#6191ad"/>
  <path transform="translate(319 69)" d="m0 0 86 .09v3l-86-.09z" fill="#6191ad"/>
  <path transform="translate(195 69)" d="M0 0h87v3H0V0Z" fill="#6191ad"/>
  <path transform="translate(753 189)" d="M0 0h39v5H0V0Z" fill="#8f8f8f"/>
  <path transform="translate(753 145)" d="M0 0h39v5H0V0Z" fill="#8f8f8f"/>
  <path transform="translate(676 145)" d="m0 0 38 .1v5l-38-.1z" fill="#8f8f8f"/>
  <path transform="translate(676 133)" d="m0 0h38v5h-38z" fill="#8e8e8e"/>
  <path transform="translate(676 114)" d="M0 0h39v5H0V0Z" fill="#8b8b8b"/>
  <path transform="translate(754 170)" d="M0 0h38v5H0V0Z" fill="#898989"/>
  <path transform="translate(754 164)" d="M0 0h38v5H0V0Z" fill="#898989"/>
  <path transform="translate(676 164)" d="M0 0h38v5H0V0Z" fill="#898989"/>
  <path transform="translate(754 139)" d="M0 0h38v5H0V0Z" fill="#898989"/>
  <path transform="translate(676 139)" d="M0 0h38v5H0V0Z" fill="#898989"/>
  <path transform="translate(754 133)" d="M0 0h38v5H0V0Z" fill="#8d8d8d"/>
  <path transform="translate(754 114)" d="M0 0h38v5H0V0Z" fill="#8a8a8a"/>
  <path transform="translate(157 417)" d="m.9 5 .1 3h-87v-3z" fill="#6399b3"/>
  <path transform="translate(752 114)" d="M0 0h2v5h38v1H1v12h39v1H2v5h38v1H2v5H0V0Z" fill="#cfd0d0"/>
  <path transform="translate(923 286)" d="m8 0v49h-3l-.06-49z" fill="#6793ac"/>
  <path transform="translate(754 183)" d="M0 0h38v4H0V0Z" fill="#898989"/>
  <path transform="translate(754 177)" d="M0 0h38v4H0V0Z" fill="#898989"/>
  <path transform="translate(754 158)" d="M0 0h38v4H0V0Z" fill="#898989"/>
  <path transform="translate(676 158)" d="M0 0h38v4H0V0Z" fill="#898989"/>
  <path transform="translate(754 152)" d="M0 0h38v4H0V0Z" fill="#898989"/>
  <path transform="translate(676 152)" d="M0 0h38v4H0V0Z" fill="#898989"/>
  <path transform="translate(754 127)" d="M0 0h38v4H0V0Z" fill="#898989"/>
  <path transform="translate(676 127)" d="M0 0h38v4H0V0Z" fill="#898989"/>
  <path transform="translate(754 121)" d="M0 0h38v4H0V0Z" fill="#898989"/>
  <path transform="translate(676 121)" d="M0 0h38v4H0V0Z" fill="#898989"/>
  <path transform="translate(929 245)" d="m-1 0h3v24h-3c-.03-4-.05-8-.06-11l-.03-3-.01-3-.02-3z" fill="#599ab7"/>
  <path transform="translate(929 154)" d="m-1 .02 3-.02v24h-3c-.03-4-.05-8-.06-11l-.03-3-.01-3-.02-3z" fill="#599ab7"/>
  <path d="m188 278h5v19h-5v-19z" fill="#faf9f8"/>
 </g>
 <path id="sv01" class="BulbButHomeStyle" d="m835 119a9 9 0 01-9 9 9 9 0 01-9-9 9 9 0 019-9 9 9 0 019 9" onclick="ButonBulbOnclick(this)"/>
 <path id="sv02" class="BulbButHomeStyle" d="m899 119a9 9 0 01-9 9 9 9 0 01-9-9 9 9 0 019-9 9 9 0 019 9" onclick="ButonBulbOnclick(this);"/>
 <path id="sv03" class="BulbButHomeStyle" d="m846 156a9 9 0 01-9 9 9 9 0 01-9-9 9 9 0 019-9 9 9 0 019 9" onclick="ButonBulbOnclick(this);"/>
 <path id="sv04" class="BulbButHomeStyle" d="m878 188a9 9 0 01-9 9 9 9 0 01-9-9 9 9 0 019-9 9 9 0 019 9" onclick="ButonBulbOnclick(this);"/>
 <path id="sv05" class="BulbButHomeStyle" d="m917 156a9 9 0 01-9 9 9 9 0 01-9-9 9 9 0 019-9 9 9 0 019 9" onclick="ButonBulbOnclick(this);"/>
 <path id="sv06" class="BulbButHomeStyle" d="m915 191a9 9 0 01-9 9 9 9 0 01-9-9 9 9 0 019-9 9 9 0 019 9" onclick="ButonBulbOnclick(this);"/>
 <path id="sv07" class="BulbButHomeStyle" d="m845 217a9 9 0 01-9 9 9 9 0 01-9-9 9 9 0 019-9 9 9 0 019 9" onclick="ButonBulbOnclick(this);"/>
 <path id="sv08" class="BulbButHomeStyle" d="m845 254a9 9 0 01-9 9 9 9 0 01-9-9 9 9 0 019-9 9 9 0 019 9" onclick="ButonBulbOnclick(this);"/>
 <path id="sv09" class="BulbButHomeStyle" d="m878 241a9 9 0 01-9 9 9 9 0 01-9-9 9 9 0 019-9 9 9 0 019 9" onclick="ButonBulbOnclick(this);"/>
 <path id="sv10" class="BulbButHomeStyle" d="m915 217a9 9 0 01-9 9 9 9 0 01-9-9 9 9 0 019-9 9 9 0 019 9" onclick="ButonBulbOnclick(this);"/>
 <path id="sv11" class="BulbButHomeStyle" d="m816 170a9 9 0 01-9 9 9 9 0 01-9-9 9 9 0 019-9 9 9 0 019 9" onclick="ButonBulbOnclick(this);"/>
 <path id="sv12" class="BulbButHomeStyle" d="m870 316a9 9 0 01-9 9 9 9 0 01-9-9 9 9 0 019-9 9 9 0 019 9" onclick="ButonBulbOnclick(this);"/>
 <path id="sv13" class="BulbButHomeStyle" d="m919 316a9 9 0 01-9 9 9 9 0 01-9-9 9 9 0 019-9 9 9 0 019 9" onclick="ButonBulbOnclick(this);"/>
 <path id="sv14" class="BulbButHomeStyle" d="m833 395a9 9 0 01-9 9 9 9 0 01-9-9 9 9 0 019-9 9 9 0 019 9" onclick="ButonBulbOnclick(this);"/>
 <path id="sv15" class="BulbButHomeStyle" d="m894 395a9 9 0 01-9 9 9 9 0 01-9-9 9 9 0 019-9 9 9 0 019 9" onclick="ButonBulbOnclick(this);"/>
 <path id="sv16" class="BulbButHomeStyle" d="m772 395a9 9 0 01-9 9 9 9 0 01-9-9 9 9 0 019-9 9 9 0 019 9" onclick="ButonBulbOnclick(this);"/>
 <path id="sv17" class="BulbButHomeStyle" d="m711 395a9 9 0 01-9 9 9 9 0 01-9-9 9 9 0 019-9 9 9 0 019 9" onclick="ButonBulbOnclick(this);"/>
 <path id="sv18" class="BulbButHomeStyle" d="m590 395a9 9 0 01-9 9 9 9 0 01-9-9 9 9 0 019-9 9 9 0 019 9" onclick="ButonBulbOnclick(this);"/>
 <path id="sv19" class="BulbButHomeStyle" d="m650 395a9 9 0 01-9 9 9 9 0 01-9-9 9 9 0 019-9 9 9 0 019 9" onclick="ButonBulbOnclick(this);"/>
 <path id="sv20" class="BulbButHomeStyle" d="m468 395a9 9 0 01-9 9 9 9 0 01-9-9 9 9 0 019-9 9 9 0 019 9" onclick="ButonBulbOnclick(this);"/>
 <path id="sv21" class="BulbButHomeStyle" d="m529 395a9 9 0 01-9 9 9 9 0 01-9-9 9 9 0 019-9 9 9 0 019 9" onclick="ButonBulbOnclick(this);"/>
 <path id="sv22" class="BulbButHomeStyle" d="m346 395a9 9 0 01-9 9 9 9 0 01-9-9 9 9 0 019-9 9 9 0 019 9" onclick="ButonBulbOnclick(this);"/>
 <path id="sv23" class="BulbButHomeStyle" d="m407 395a9 9 0 01-9 9 9 9 0 01-9-9 9 9 0 019-9 9 9 0 019 9" onclick="ButonBulbOnclick(this);"/>
 <path id="sv24" class="BulbButHomeStyle" d="m280 395a9 9 0 01-9 9 9 9 0 01-9-9 9 9 0 019-9 9 9 0 019 9" onclick="ButonBulbOnclick(this);"/>
 <path id="path80" class="BulbButHomeStyle" d="m231 395a9 9 0 01-9 9 9 9 0 01-9-9 9 9 0 019-9 9 9 0 019 9" onclick="ButonBulbOnclick(this);"/>
 <path id="sv26" class="BulbButHomeStyle" d="m253 278a9 9 0 01-9 9 9 9 0 01-9-9 9 9 0 019-9 9 9 0 019 9" onclick="ButonBulbOnclick(this);"/>
 <path id="sv27" class="BulbButHomeStyle" d="m167 395a9 9 0 01-9 9 9 9 0 01-9-9 9 9 0 019-9 9 9 0 019 9" onclick="ButonBulbOnclick(this);"/>
 <path id="sv28" class="BulbButHomeStyle" d="m95 395a9 9 0 01-9 9 9 9 0 01-9-9 9 9 0 019-9 9 9 0 019 9" onclick="ButonBulbOnclick(this);"/>
 <path id="sv29" class="BulbButHomeStyle" d="m131 315a9 9 0 01-9 9 9 9 0 01-9-9 9 9 0 019-9 9 9 0 019 9" onclick="ButonBulbOnclick(this);"/>
 <path id="sv30" class="BulbButHomeStyle" d="m114 259a9 9 0 01-9 9 9 9 0 01-9-9 9 9 0 019-9 9 9 0 019 9" onclick="ButonBulbOnclick(this);"/>
 <path id="sv31" class="BulbButHomeStyle" d="m101 188a9 9 0 01-9 9 9 9 0 01-9-9 9 9 0 019-9 9 9 0 019 9" onclick="ButonBulbOnclick(this);"/>
 <path id="sv32" class="BulbButHomeStyle" d="m101 128a9 9 0 01-9 9 9 9 0 01-9-9 9 9 0 019-9 9 9 0 019 9" onclick="ButonBulbOnclick(this);"/>
 <path id="sv33" class="BulbButHomeStyle" d="m149 128a9 9 0 01-9 9 9 9 0 01-9-9 9 9 0 019-9 9 9 0 019 9" onclick="ButonBulbOnclick(this);"/>
 <path id="sv34" class="BulbButHomeStyle" d="m181 189a9 9 0 01-9 9 9 9 0 01-9-9 9 9 0 019-9 9 9 0 019 9" onclick="ButonBulbOnclick(this);"/>
 <path id="sv35" class="BulbButHomeStyle" d="m243 140a9 9 0 01-9 9 9 9 0 01-9-9 9 9 0 019-9 9 9 0 019 9" onclick="ButonBulbOnclick(this);"/>
 <path id="sv36" class="BulbButHomeStyle" d="m370 140a9 9 0 01-9 9 9 9 0 01-9-9 9 9 0 019-9 9 9 0 019 9" onclick="ButonBulbOnclick(this);"/>
 <path id="sv37" class="BulbButHomeStyle" d="m306 140a9 9 0 01-9 9 9 9 0 01-9-9 9 9 0 019-9 9 9 0 019 9" onclick="ButonBulbOnclick(this);"/>
 <path id="sv38" class="BulbButHomeStyle" d="m448 140a9 9 0 01-9 9 9 9 0 01-9-9 9 9 0 019-9 9 9 0 019 9" onclick="ButonBulbOnclick(this);"/>
 <path id="sv39" class="BulbButHomeStyle" d="m519 140a9 9 0 01-9 9 9 9 0 01-9-9 9 9 0 019-9 9 9 0 019 9" onclick="ButonBulbOnclick(this);"/>
 <path id="sv40" class="BulbButHomeStyle" d="m483 250a9 9 0 01-9 9 9 9 0 01-9-9 9 9 0 019-9 9 9 0 019 9" onclick="ButonBulbOnclick(this);"/>
 <path id="sv41" class="BulbButHomeStyle" d="m742 213a9 9 0 01-9 9 9 9 0 01-9-9 9 9 0 019-9 9 9 0 019 9" onclick="ButonBulbOnclick(this);"/>
 <path id="sv42" class="BulbButHomeStyle" d="m742 88a9 9 0 01-9 9 9 9 0 01-9-9 9 9 0 019-9 9 9 0 019 9" onclick="ButonBulbOnclick(this);"/>
 <g id="DMPSshow" class="">
  <circle id="circle1" cx="605" cy="153" r="15" fbactiveclass="lehceRed" onclick="togeDMPSpanel();"/>
  <text id="text1" x="591" y="157"><tspan id="tspan1">DMPS</tspan></text>
 </g>
 <rect id="rect81" x="552" y="192" width="50" height="30" rx="4" ry="5" stroke="#000"/>
 <rect id="rect81-9" x="566" y="290" width="50" height="30" rx="4" ry="5" stroke="#000"/>
 <rect id="rect81-9-5" x="828" y="346" width="50" height="30" rx="4" ry="5" stroke="#000"/>
 <rect id="rect81-9-5-5" x="832" y="74" width="50" height="30" rx="4" ry="5" stroke="#000"/>
 <rect id="rect81-9-4" x="674" y="345" width="43" height="34" rx="4" ry="3" stroke="#000"/>
 <rect id="rect81-9-8" x="718" y="345" width="42" height="34" rx="3" ry="3" stroke="#000"/>
 <rect id="rect81-9-8-8" x="760" y="345" width="30" height="17" rx="2" ry="2" stroke="#000"/>
 <rect id="rect81-9-8-8-2" x="760" y="362" width="30" height="17" rx="2" ry="2" stroke="#000"/>
 <g id="Shade02" class="freeHeatBox ShadeSelector" booljoin="Bool-202" fbactiveclass="lehceRed" ipid="0x27,0x26,0x28,0x29,0x30" onclick="ButtonShadeSelect(this);">
  <rect id="rect1" class="blindBtnRect" x="586" y="76" width="50" height="30" rx="4" ry="5"/>
  <text id="ShadeIcon" class="blindBtnIcon shadeIconDiplay assetCresHVACFontIcon" x="590.7" y="102.4"><tspan id="tspan2">A</tspan></text>
 </g>
 <g id="Shade01" class="freeHeatBox ShadeSelector" booljoin="Bool-201" fbactiveclass="lehceRed" ipid="0x27,0x26,0x28,0x29,0x30" onclick="ButtonShadeSelect(this);">
  <rect id="rect2" class="blindBtnRect" x="458" y="76" width="50" height="30" rx="4" ry="5"/>
  <text id="text3" class="blindBtnIcon shadeIconDiplay assetCresHVACFontIcon" x="462.7" y="102.4"><tspan id="tspan3">A</tspan></text>
 </g>
</svg>
